<svg width="33" height="34" viewBox="0 0 33 34" fill="none" xmlns="http://www.w3.org/2000/svg">
<path d="M32.1071 16.8258C32.1071 17.7358 29.8373 18.435 29.6893 19.3032C29.5375 20.2003 31.4369 21.6487 31.1423 22.4814C30.8426 23.3292 28.4785 23.1836 28.0491 23.9541C27.6197 24.7245 28.913 26.7682 28.3547 27.453C27.7965 28.1377 25.6216 27.1716 24.9551 27.748C24.2886 28.3243 24.8402 30.694 24.0846 31.1445C23.329 31.5949 21.6159 29.9175 20.7925 30.2262C19.9824 30.5295 19.7099 32.9523 18.843 33.1078C17.9997 33.2595 16.9414 31.0816 16.0554 31.0816C15.1694 31.0816 14.1111 33.2602 13.2678 33.1078C12.401 32.9516 12.1277 30.5295 11.3183 30.2262C10.4949 29.9175 8.7745 31.5911 8.0255 31.1445C7.27649 30.6978 7.82002 28.322 7.15571 27.748C6.4914 27.1739 4.31581 28.1385 3.75608 27.4522C3.19635 26.7659 4.49846 24.7321 4.06172 23.9541C3.62499 23.176 1.26308 23.3292 0.964798 22.4814C0.670203 21.6472 2.5696 20.1965 2.41789 19.3032C2.27059 18.435 0 17.7381 0 16.8258C0 15.9135 2.26985 15.2166 2.41789 14.3483C2.5696 13.455 0.670203 12.0028 0.964798 11.1702C1.26455 10.3224 3.62867 10.468 4.06172 9.69753C4.49478 8.92707 3.19783 6.88338 3.75608 6.19861C4.31434 5.51384 6.48919 6.47995 7.15571 5.90362C7.82223 5.32729 7.2706 2.95753 8.02623 2.50708C8.78187 2.05663 10.4949 3.73405 11.3183 3.42541C12.1285 3.12208 12.401 0.69923 13.2678 0.543773C14.1111 0.392108 15.1694 2.57002 16.0554 2.57002C16.9414 2.57002 17.9997 0.39135 18.843 0.543773C19.7099 0.699988 19.9831 3.12208 20.7925 3.42541C21.6159 3.73405 23.3363 2.06043 24.0853 2.50708C24.8343 2.95373 24.2908 5.32957 24.9551 5.90362C25.6194 6.47767 27.795 5.51308 28.3547 6.19937C28.9145 6.88565 27.6124 8.91948 28.0491 9.69753C28.4858 10.4756 30.8478 10.3224 31.1423 11.1702C31.4369 12.0044 29.5375 13.455 29.6893 14.3483C29.8373 15.2166 32.1071 15.9135 32.1071 16.8258Z" fill="#3F3F41"/>
</svg>
