<svg width="42" height="42" viewBox="0 0 42 42" fill="none" xmlns="http://www.w3.org/2000/svg">
<g clip-path="url(#clip0_569_710)">
<path d="M17.8269 17.1836C13.2204 6.42614 7.06945 12.5771 17.8269 17.1836V17.1836Z" fill="#316811"/>
<path d="M17.8269 24.4189C7.06945 29.0255 13.2204 35.1802 17.8269 24.4189V24.4189Z" fill="#316811"/>
<path d="M25.062 24.4189C29.6685 35.1802 35.8233 29.0255 25.062 24.4189V24.4189Z" fill="#316811"/>
<path d="M41.9285 20.8015C34.4386 20.8015 28.6757 20.1511 24.2974 19.1849C24.5447 18.4621 24.8033 17.7964 25.0582 17.184C24.4496 17.4376 23.7826 17.6912 23.0573 17.9448C22.0987 13.5703 21.4445 7.80738 21.4445 0.321289C21.4445 7.80738 20.794 13.5703 19.8278 17.9524C19.1051 17.6988 18.4381 17.4452 17.827 17.1916C18.0806 17.8028 18.3341 18.4697 18.5877 19.1925C14.2132 20.1511 8.45032 20.8015 0.964233 20.8015C8.45032 20.8015 14.2132 21.4558 18.5953 22.4182C18.3418 23.1435 18.0882 23.8104 17.8346 24.419C18.447 24.1604 19.1127 23.9017 19.8354 23.6583C20.8016 28.0366 21.4521 33.7995 21.4521 41.2894C21.4521 33.7995 22.1064 28.0366 23.0687 23.6583C23.7953 23.9055 24.461 24.1642 25.0696 24.419C24.8109 23.8104 24.5523 23.1447 24.3088 22.4182C28.6757 21.4558 34.4386 20.8015 41.9285 20.8015Z" fill="#316811"/>
<path d="M25.062 17.1836C35.8233 12.5771 29.6685 6.42614 25.062 17.1836V17.1836Z" fill="#316811"/>
</g>
<defs>
<clipPath id="clip0_569_710">
<rect width="40.9643" height="40.9643" fill="white" transform="translate(0.964233 0.321289)"/>
</clipPath>
</defs>
</svg>
