<svg width="34" height="33" viewBox="0 0 34 33" fill="none" xmlns="http://www.w3.org/2000/svg">
<path d="M33.6071 16.7319C33.6071 18.4 31.1138 19.6538 30.6247 21.1589C30.1181 22.7182 31.3812 25.196 30.4358 26.4909C29.4813 27.8026 26.7297 27.3623 25.4178 28.319C24.119 29.2635 23.6931 32.0217 22.133 32.5282C20.6277 33.0172 18.6683 31.052 17 31.052C15.3317 31.052 13.3723 33.0172 11.867 32.5282C10.3069 32.0217 9.88102 29.2635 8.58216 28.319C7.27035 27.3646 4.51874 27.8048 3.56422 26.4909C2.61883 25.196 3.88188 22.7159 3.37529 21.1589C2.88622 19.6538 0.39286 18.4 0.39286 16.7319C0.39286 15.0638 2.88622 13.81 3.37529 12.3048C3.88188 10.7456 2.61883 8.2678 3.56422 6.97289C4.51874 5.66123 7.27035 6.1015 8.58216 5.14479C9.88102 4.20027 10.3069 1.44213 11.867 0.935594C13.3723 0.446577 15.3317 2.41178 17 2.41178C18.6683 2.41178 20.6277 0.446577 22.133 0.935594C23.6931 1.44213 24.119 4.20027 25.4178 5.14479C26.7297 6.09921 29.4813 5.65895 30.4358 6.97289C31.3812 8.2678 30.1181 10.7479 30.6247 12.3048C31.1138 13.81 33.6071 15.0638 33.6071 16.7319Z" fill="#EAD833"/>
</svg>
