<svg width="36" height="32" viewBox="0 0 36 32" fill="none" xmlns="http://www.w3.org/2000/svg">
<path d="M22.5476 2.13188C19.9928 3.70955 18.8129 3.99737 18.1633 3.99737C17.4597 3.99737 16.1931 3.96539 13.2919 2.13188C9.66539 -0.160002 7.77095 1.11919 7.77095 4.42377C7.77095 7.72835 8.47461 10.6598 3.60317 12.8451C-1.26827 15.0304 -0.348105 18.0152 3.60317 19.8274C7.55445 21.6395 7.8792 23.0786 7.77095 27.2893C7.66269 31.5 9.34063 32.8325 13.4543 30.3807C17.568 27.9289 18.9753 28.4086 22.3853 30.3807C25.7953 32.3528 28.1769 32.1929 28.1769 27.2893C28.1769 22.3857 28.3934 21.9593 32.3988 19.8274C36.4042 17.6954 37.2161 15.2436 32.3988 12.8451C27.5815 10.4466 28.231 8.31464 28.1227 4.42377C28.0145 0.532892 25.7411 0.159795 22.5476 2.13188Z" fill="#F4E998"/>
</svg>
