<svg width="33" height="34" viewBox="0 0 33 34" fill="none" xmlns="http://www.w3.org/2000/svg">
<path d="M32.5 17.1471C32.5 18.0571 30.2301 18.7562 30.0821 19.6245C29.9304 20.5216 31.8298 21.97 31.5352 22.8027C31.2354 23.6505 28.8713 23.5049 28.442 24.2753C28.0126 25.0458 29.3059 27.0895 28.7476 27.7743C28.1893 28.459 26.0145 27.4929 25.348 28.0692C24.6815 28.6456 25.2331 31.0153 24.4774 31.4658C23.7218 31.9162 22.0087 30.2388 21.1854 30.5475C20.3752 30.8508 20.1027 33.2736 19.2359 33.4291C18.3926 33.5808 17.3343 31.4028 16.4483 31.4028C15.5623 31.4028 14.5039 33.5815 13.6607 33.4291C12.7938 33.2729 12.5206 30.8508 11.7112 30.5475C10.8878 30.2388 9.16736 31.9124 8.41835 31.4658C7.66934 31.0191 8.21287 28.6433 7.54856 28.0692C6.88425 27.4952 4.70867 28.4598 4.14894 27.7735C3.58921 27.0872 4.89131 25.0534 4.45458 24.2753C4.01784 23.4973 1.65593 23.6505 1.35765 22.8027C1.06306 21.9685 2.96246 20.5178 2.81074 19.6245C2.66344 18.7562 0.392853 18.0593 0.392853 17.1471C0.392853 16.2348 2.66271 15.5379 2.81074 14.6696C2.96246 13.7763 1.06306 12.3241 1.35765 11.4915C1.6574 10.6437 4.02152 10.7893 4.45458 10.0188C4.88763 9.24835 3.59068 7.20467 4.14894 6.5199C4.70719 5.83513 6.88204 6.80124 7.54856 6.22491C8.21508 5.64858 7.66345 3.27881 8.41909 2.82837C9.17472 2.37792 10.8878 4.05534 11.7112 3.7467C12.5213 3.44337 12.7938 1.02052 13.6607 0.865062C14.5039 0.713397 15.5623 2.89131 16.4483 2.89131C17.3343 2.89131 18.3926 0.712639 19.2359 0.865062C20.1027 1.02128 20.3759 3.44337 21.1854 3.7467C22.0087 4.05534 23.7292 2.38171 24.4782 2.82837C25.2272 3.27502 24.6837 5.65086 25.348 6.22491C26.0123 6.79896 28.1879 5.83437 28.7476 6.52066C29.3073 7.20694 28.0052 9.24077 28.442 10.0188C28.8787 10.7969 31.2406 10.6437 31.5352 11.4915C31.8298 12.3256 29.9304 13.7763 30.0821 14.6696C30.2301 15.5379 32.5 16.2348 32.5 17.1471Z" fill="#FFEB0F"/>
</svg>
