<svg width="327" height="60" viewBox="0 0 327 60" fill="none" xmlns="http://www.w3.org/2000/svg">
<path d="M0 0.875031V48H18.915C28.535 48 36.53 44.165 36.53 34.025C36.53 27.785 33.345 24.73 29.445 22.975C32.24 21.285 34.71 17.32 34.71 12.9C34.71 3.21503 26.325 0.875031 17.745 0.875031H0ZM8.255 20.57V7.50503H18.525C23.205 7.50503 26.325 9.65003 26.325 13.81C26.325 18.425 23.335 20.57 18.525 20.57H8.255ZM8.255 41.37V26.875H18.785C25.09 26.875 28.015 29.215 28.015 34.025C28.015 38.705 25.09 41.37 19.24 41.37H8.255Z" fill="#1C1C1C"/>
<path d="M51.6095 48V0.875031H43.3545V48H51.6095Z" fill="#1C1C1C"/>
<path d="M94.6029 7.57003V0.875031H60.2829V8.02503H84.5929L58.2029 41.305V48H95.3829V40.85H68.2779L94.6029 7.57003Z" fill="#1C1C1C"/>
<path d="M157.032 32.335H149.102C147.672 38.77 143.122 42.085 136.752 42.085C129.212 42.085 123.427 35.715 123.427 24.275C123.427 12.9 129.342 6.79003 136.817 6.79003C142.927 6.79003 147.542 10.17 148.972 16.54H156.902C155.017 6.01003 147.542 0.0300293 137.077 0.0300293C123.427 0.0300293 114.912 9.45503 114.912 24.275C114.912 39.03 122.907 48.845 136.687 48.845C147.542 48.845 155.082 42.865 157.032 32.335Z" fill="#1C1C1C"/>
<path d="M171.305 17.905V0.875031H163.57V48H171.305V29.41C171.305 23.105 173.515 18.555 179.43 18.555C185.345 18.555 186.06 23.17 186.06 27.915V48H193.795V26.03C193.795 17.71 190.35 12.25 181.9 12.25C177.025 12.25 173.32 14.265 171.305 17.905Z" fill="#1C1C1C"/>
<path d="M207.371 32.725H233.436C234.086 20.96 227.391 12.25 216.666 12.25C206.721 12.25 199.506 19.725 199.506 30.255C199.506 40.265 205.941 48.845 217.186 48.845C226.221 48.845 231.421 43.125 233.046 37.535H225.441C224.076 40.785 220.891 42.41 216.861 42.41C212.441 42.41 207.891 39.225 207.371 32.725ZM207.371 27.07C208.021 20.44 213.026 18.295 216.666 18.295C221.216 18.295 225.376 21.61 225.571 27.07H207.371Z" fill="#1C1C1C"/>
<path d="M247.54 48V29.41C247.54 23.105 249.49 18.555 255.21 18.555C260.93 18.555 261.385 23.17 261.385 27.915V48H269.12V29.41C269.12 23.105 271.07 18.555 276.79 18.555C282.51 18.555 282.965 23.17 282.965 27.915V48H290.7V26.03C290.7 17.71 287.515 12.25 279.26 12.25C274.97 12.25 270.875 14.005 267.885 18.425C266.26 14.525 263.075 12.25 257.68 12.25C253 12.25 249.555 14.265 247.54 17.905V13.03H239.805V48H247.54Z" fill="#1C1C1C"/>
<path d="M296.775 59.375H300.285C308.15 59.375 310.49 56.97 313.74 47.935L326.025 13.03H318.095L310.165 38.12L302.235 13.03H293.785L306.46 47.805L306.07 48.65C304.51 53.2 303.08 53.46 299.7 53.46H296.775V59.375Z" fill="#1C1C1C"/>
</svg>
