<svg width="42" height="41" viewBox="0 0 42 41" fill="none" xmlns="http://www.w3.org/2000/svg">
<g clip-path="url(#clip0_2416_1208)">
<path d="M17.4341 16.8623C12.8275 6.10485 6.67662 12.2558 17.4341 16.8623V16.8623Z" fill="white"/>
<path d="M17.4341 24.0977C6.67662 28.7042 12.8275 34.8589 17.4341 24.0977V24.0977Z" fill="white"/>
<path d="M24.6692 24.0977C29.2757 34.8589 35.4304 28.7042 24.6692 24.0977V24.0977Z" fill="white"/>
<path d="M41.5357 20.4802C34.0458 20.4802 28.2829 19.8298 23.9046 18.8636C24.1518 18.1408 24.4105 17.4752 24.6654 16.8627C24.0567 17.1163 23.3898 17.3699 22.6645 17.6235C21.7059 13.249 21.0517 7.48609 21.0517 0C21.0517 7.48609 20.4012 13.249 19.435 17.6311C18.7122 17.3775 18.0453 17.1239 17.4341 16.8703C17.6877 17.4815 17.9413 18.1484 18.1949 18.8712C13.8204 19.8298 8.0575 20.4802 0.571411 20.4802C8.0575 20.4802 13.8204 21.1345 18.2025 22.0969C17.9489 22.8222 17.6953 23.4891 17.4417 24.0978C18.0542 23.8391 18.7199 23.5804 19.4426 23.337C20.4088 27.7153 21.0593 33.4782 21.0593 40.9681C21.0593 33.4782 21.7135 27.7153 22.6759 23.337C23.4025 23.5842 24.0682 23.8429 24.6768 24.0978C24.4181 23.4891 24.1594 22.8234 23.916 22.0969C28.2829 21.1345 34.0458 20.4802 41.5357 20.4802Z" fill="white"/>
<path d="M24.6692 16.8623C35.4304 12.2558 29.2757 6.10485 24.6692 16.8623V16.8623Z" fill="white"/>
</g>
<defs>
<clipPath id="clip0_2416_1208">
<rect width="40.9643" height="40.9643" fill="white" transform="translate(0.571411)"/>
</clipPath>
</defs>
</svg>
