<svg width="81" height="34" viewBox="0 0 81 34" fill="none" xmlns="http://www.w3.org/2000/svg">
<g filter="url(#filter0_d_2502_1089)">
<path d="M4.04297 13C4.04297 5.8203 9.86327 0 17.043 0H63.043C70.2227 0 76.043 5.8203 76.043 13V13C76.043 20.1797 70.2227 26 63.043 26H17.043C9.86327 26 4.04297 20.1797 4.04297 13V13Z" fill="#83B069"/>
</g>
<path d="M33.2129 9.03809H38.9082V10.4912H34.9707V12.5537H38.6152V14.0068H34.9707V16.0693H38.9199V17.5225H33.2129V9.03809ZM47.3574 17.5225H45.834L42.1074 12.1318H42.0371V17.5225H40.2793V9.03809H41.8262L45.5293 14.4287H45.6113V9.03809H47.3574V17.5225ZM48.7871 9.03809H54.377V10.4912H50.5449V12.5537H54.0137V14.0068H50.5449V17.5225H48.7871V9.03809ZM59.873 9.03809V14.9561C59.873 15.499 59.752 15.9736 59.5098 16.3799C59.2715 16.7822 58.9355 17.0928 58.502 17.3115C58.0684 17.5303 57.5684 17.6396 57.002 17.6396C56.4785 17.6396 56.0098 17.5479 55.5957 17.3643C55.1855 17.1768 54.8613 16.8975 54.623 16.5264C54.3887 16.1514 54.2715 15.6943 54.2715 15.1553H56.0293C56.0332 15.4912 56.1289 15.7529 56.3164 15.9404C56.5078 16.1279 56.7637 16.2217 57.084 16.2217C57.4238 16.2217 57.6816 16.1143 57.8574 15.8994C58.0371 15.6846 58.127 15.3701 58.127 14.9561V9.03809H59.873Z" fill="white"/>
<path d="M19.543 4.15039C19.543 8.39794 15.2898 12.6504 11.043 12.6504C15.2905 12.6504 19.543 16.9036 19.543 21.1504C19.543 16.9032 23.7962 12.6508 28.043 12.6508C23.7954 12.6504 19.543 8.39794 19.543 4.15039Z" fill="white"/>
<defs>
<filter id="filter0_d_2502_1089" x="0.0429688" y="0" width="80" height="34" filterUnits="userSpaceOnUse" color-interpolation-filters="sRGB">
<feFlood flood-opacity="0" result="BackgroundImageFix"/>
<feColorMatrix in="SourceAlpha" type="matrix" values="0 0 0 0 0 0 0 0 0 0 0 0 0 0 0 0 0 0 127 0" result="hardAlpha"/>
<feOffset dy="4"/>
<feGaussianBlur stdDeviation="2"/>
<feComposite in2="hardAlpha" operator="out"/>
<feColorMatrix type="matrix" values="0 0 0 0 0 0 0 0 0 0 0 0 0 0 0 0 0 0 0.25 0"/>
<feBlend mode="normal" in2="BackgroundImageFix" result="effect1_dropShadow_2502_1089"/>
<feBlend mode="normal" in="SourceGraphic" in2="effect1_dropShadow_2502_1089" result="shape"/>
</filter>
</defs>
</svg>
