<svg width="81" height="35" viewBox="0 0 81 35" fill="none" xmlns="http://www.w3.org/2000/svg">
<g filter="url(#filter0_d_2472_1024)">
<path d="M4.17188 13.2988C4.17188 6.11913 9.99217 0.298828 17.1719 0.298828H63.1719C70.3516 0.298828 76.1719 6.11913 76.1719 13.2988C76.1719 20.4785 70.3516 26.2988 63.1719 26.2988H17.1719C9.99218 26.2988 4.17188 20.4785 4.17188 13.2988Z" fill="#83B069"/>
</g>
<path d="M33.3418 9.33691H39.0371V10.79H35.0996V12.8525H38.7441V14.3057H35.0996V16.3682H39.0488V17.8213H33.3418V9.33691ZM47.4863 17.8213H45.9629L42.2363 12.4307H42.166V17.8213H40.4082V9.33691H41.9551L45.6582 14.7275H45.7402V9.33691H47.4863V17.8213ZM48.916 9.33691H54.5059V10.79H50.6738V12.8525H54.1426V14.3057H50.6738V17.8213H48.916V9.33691ZM60.002 9.33691V15.2549C60.002 15.7979 59.8809 16.2725 59.6387 16.6787C59.4004 17.0811 59.0645 17.3916 58.6309 17.6104C58.1973 17.8291 57.6973 17.9385 57.1309 17.9385C56.6074 17.9385 56.1387 17.8467 55.7246 17.6631C55.3145 17.4756 54.9902 17.1963 54.752 16.8252C54.5176 16.4502 54.4004 15.9932 54.4004 15.4541H56.1582C56.1621 15.79 56.2578 16.0518 56.4453 16.2393C56.6367 16.4268 56.8926 16.5205 57.2129 16.5205C57.5527 16.5205 57.8105 16.4131 57.9863 16.1982C58.166 15.9834 58.2559 15.6689 58.2559 15.2549V9.33691H60.002Z" fill="white"/>
<path d="M19.6719 4.44922C19.6719 8.69677 15.4187 12.9492 11.1719 12.9492C15.4194 12.9492 19.6719 17.2024 19.6719 21.4492C19.6719 17.202 23.9251 12.9496 28.1719 12.9496C23.9243 12.9492 19.6719 8.69677 19.6719 4.44922Z" fill="white"/>
<defs>
<filter id="filter0_d_2472_1024" x="0.171875" y="0.298828" width="80" height="34" filterUnits="userSpaceOnUse" color-interpolation-filters="sRGB">
<feFlood flood-opacity="0" result="BackgroundImageFix"/>
<feColorMatrix in="SourceAlpha" type="matrix" values="0 0 0 0 0 0 0 0 0 0 0 0 0 0 0 0 0 0 127 0" result="hardAlpha"/>
<feOffset dy="4"/>
<feGaussianBlur stdDeviation="2"/>
<feComposite in2="hardAlpha" operator="out"/>
<feColorMatrix type="matrix" values="0 0 0 0 0 0 0 0 0 0 0 0 0 0 0 0 0 0 0.25 0"/>
<feBlend mode="normal" in2="BackgroundImageFix" result="effect1_dropShadow_2472_1024"/>
<feBlend mode="normal" in="SourceGraphic" in2="effect1_dropShadow_2472_1024" result="shape"/>
</filter>
</defs>
</svg>
