<svg width="81" height="35" viewBox="0 0 81 35" fill="none" xmlns="http://www.w3.org/2000/svg">
<g filter="url(#filter0_d_2472_1025)">
<path d="M4.69531 13.2988C4.69531 6.11913 10.5156 0.298828 17.6953 0.298828H63.6953C70.875 0.298828 76.6953 6.11913 76.6953 13.2988C76.6953 20.4785 70.875 26.2988 63.6953 26.2988H17.6953C10.5156 26.2988 4.69531 20.4785 4.69531 13.2988Z" fill="#3C840D"/>
</g>
<path d="M32.5098 17.8213H38.2168V16.3682H34.2676V14.3057H37.9121V12.8525H34.2676V10.79H38.2051V9.33691H32.5098V17.8213ZM46.6543 9.33691H44.9082V14.7275H44.8262L41.123 9.33691H39.5762V17.8213H41.334V12.4307H41.4043L45.1309 17.8213H46.6543V9.33691ZM48.084 17.8213H49.8418V14.3057H53.3105V12.8525H49.8418V10.79H53.6738V9.33691H48.084V17.8213ZM54.834 17.8213H56.5918V15.0557H58.1152C60.0723 15.0557 61.1973 13.8896 61.1973 12.1963C61.1973 10.5264 60.0898 9.33691 58.1621 9.33691H54.834V17.8213ZM56.5918 13.6377V10.7783H57.834C58.877 10.7842 59.3867 11.3525 59.3809 12.1963C59.3867 13.0518 58.877 13.6377 57.834 13.6377H56.5918Z" fill="white"/>
<path d="M20.1953 4.44922C20.1953 8.69677 15.9421 12.9492 11.6953 12.9492C15.9429 12.9492 20.1953 17.2024 20.1953 21.4492C20.1953 17.202 24.4485 12.9496 28.6953 12.9496C24.4478 12.9492 20.1953 8.69677 20.1953 4.44922Z" fill="white"/>
<defs>
<filter id="filter0_d_2472_1025" x="0.695312" y="0.298828" width="80" height="34" filterUnits="userSpaceOnUse" color-interpolation-filters="sRGB">
<feFlood flood-opacity="0" result="BackgroundImageFix"/>
<feColorMatrix in="SourceAlpha" type="matrix" values="0 0 0 0 0 0 0 0 0 0 0 0 0 0 0 0 0 0 127 0" result="hardAlpha"/>
<feOffset dy="4"/>
<feGaussianBlur stdDeviation="2"/>
<feComposite in2="hardAlpha" operator="out"/>
<feColorMatrix type="matrix" values="0 0 0 0 0 0 0 0 0 0 0 0 0 0 0 0 0 0 0.25 0"/>
<feBlend mode="normal" in2="BackgroundImageFix" result="effect1_dropShadow_2472_1025"/>
<feBlend mode="normal" in="SourceGraphic" in2="effect1_dropShadow_2472_1025" result="shape"/>
</filter>
</defs>
</svg>
