<svg width="81" height="34" viewBox="0 0 81 34" fill="none" xmlns="http://www.w3.org/2000/svg">
<g filter="url(#filter0_d_2502_1093)">
<path d="M4.56641 13C4.56641 5.8203 10.3867 0 17.5664 0H63.5664C70.7461 0 76.5664 5.8203 76.5664 13V13C76.5664 20.1797 70.7461 26 63.5664 26H17.5664C10.3867 26 4.56641 20.1797 4.56641 13V13Z" fill="#3C840D"/>
</g>
<path d="M32.3809 17.5225H38.0879V16.0693H34.1387V14.0068H37.7832V12.5537H34.1387V10.4912H38.0762V9.03809H32.3809V17.5225ZM46.5254 9.03809H44.7793V14.4287H44.6973L40.9941 9.03809H39.4473V17.5225H41.2051V12.1318H41.2754L45.002 17.5225H46.5254V9.03809ZM47.9551 17.5225H49.7129V14.0068H53.1816V12.5537H49.7129V10.4912H53.5449V9.03809H47.9551V17.5225ZM54.7051 17.5225H56.4629V14.7568H57.9863C59.9434 14.7568 61.0684 13.5908 61.0684 11.8975C61.0684 10.2275 59.9609 9.03809 58.0332 9.03809H54.7051V17.5225ZM56.4629 13.3389V10.4795H57.7051C58.748 10.4854 59.2578 11.0537 59.252 11.8975C59.2578 12.7529 58.748 13.3389 57.7051 13.3389H56.4629Z" fill="white"/>
<path d="M20.0664 4.15039C20.0664 8.39794 15.8132 12.6504 11.5664 12.6504C15.814 12.6504 20.0664 16.9036 20.0664 21.1504C20.0664 16.9032 24.3196 12.6508 28.5664 12.6508C24.3189 12.6504 20.0664 8.39794 20.0664 4.15039Z" fill="white"/>
<defs>
<filter id="filter0_d_2502_1093" x="0.566406" y="0" width="80" height="34" filterUnits="userSpaceOnUse" color-interpolation-filters="sRGB">
<feFlood flood-opacity="0" result="BackgroundImageFix"/>
<feColorMatrix in="SourceAlpha" type="matrix" values="0 0 0 0 0 0 0 0 0 0 0 0 0 0 0 0 0 0 127 0" result="hardAlpha"/>
<feOffset dy="4"/>
<feGaussianBlur stdDeviation="2"/>
<feComposite in2="hardAlpha" operator="out"/>
<feColorMatrix type="matrix" values="0 0 0 0 0 0 0 0 0 0 0 0 0 0 0 0 0 0 0.25 0"/>
<feBlend mode="normal" in2="BackgroundImageFix" result="effect1_dropShadow_2502_1093"/>
<feBlend mode="normal" in="SourceGraphic" in2="effect1_dropShadow_2502_1093" result="shape"/>
</filter>
</defs>
</svg>
