<svg width="81" height="34" viewBox="0 0 81 34" fill="none" xmlns="http://www.w3.org/2000/svg">
<g filter="url(#filter0_d_2502_1113)">
<path d="M4.17188 13C4.17188 5.8203 9.99217 0 17.1719 0H63.1719C70.3516 0 76.1719 5.8203 76.1719 13V13C76.1719 20.1797 70.3516 26 63.1719 26H17.1719C9.99218 26 4.17188 20.1797 4.17188 13V13Z" fill="#DB45FF"/>
</g>
<path d="M32.9961 17.5225H38.7031V16.0693H34.7539V14.0068H38.3984V12.5537H34.7539V10.4912H38.6914V9.03809H32.9961V17.5225ZM47.1406 9.03809H45.3945V14.4287H45.3125L41.6094 9.03809H40.0625V17.5225H41.8203V12.1318H41.8906L45.6172 17.5225H47.1406V9.03809ZM48.2422 10.4912H50.8438V17.5225H52.5898V10.4912H55.1914V9.03809H48.2422V10.4912ZM58.6016 9.03809V14.9561C58.6016 15.7881 58.2324 16.2217 57.5586 16.2217C56.9258 16.2217 56.5156 15.8291 56.5039 15.1553H54.7461C54.7402 16.8311 55.9414 17.6396 57.4766 17.6396C59.1816 17.6396 60.3477 16.6025 60.3477 14.9561V9.03809H58.6016Z" fill="white"/>
<path d="M19.6719 4.15039C19.6719 8.39794 15.4187 12.6504 11.1719 12.6504C15.4194 12.6504 19.6719 16.9036 19.6719 21.1504C19.6719 16.9032 23.9251 12.6508 28.1719 12.6508C23.9243 12.6504 19.6719 8.39794 19.6719 4.15039Z" fill="white"/>
<defs>
<filter id="filter0_d_2502_1113" x="0.171875" y="0" width="80" height="34" filterUnits="userSpaceOnUse" color-interpolation-filters="sRGB">
<feFlood flood-opacity="0" result="BackgroundImageFix"/>
<feColorMatrix in="SourceAlpha" type="matrix" values="0 0 0 0 0 0 0 0 0 0 0 0 0 0 0 0 0 0 127 0" result="hardAlpha"/>
<feOffset dy="4"/>
<feGaussianBlur stdDeviation="2"/>
<feComposite in2="hardAlpha" operator="out"/>
<feColorMatrix type="matrix" values="0 0 0 0 0 0 0 0 0 0 0 0 0 0 0 0 0 0 0.25 0"/>
<feBlend mode="normal" in2="BackgroundImageFix" result="effect1_dropShadow_2502_1113"/>
<feBlend mode="normal" in="SourceGraphic" in2="effect1_dropShadow_2502_1113" result="shape"/>
</filter>
</defs>
</svg>
