<svg width="81" height="35" viewBox="0 0 81 35" fill="none" xmlns="http://www.w3.org/2000/svg">
<g filter="url(#filter0_d_2472_1022)">
<path d="M4.12891 13.2988C4.12891 6.11913 9.9492 0.298828 17.1289 0.298828H63.1289C70.3086 0.298828 76.1289 6.11913 76.1289 13.2988C76.1289 20.4785 70.3086 26.2988 63.1289 26.2988H17.1289C9.94921 26.2988 4.12891 20.4785 4.12891 13.2988Z" fill="#B0D169"/>
</g>
<path d="M32.9531 17.8213H38.6602V16.3682H34.7109V14.3057H38.3555V12.8525H34.7109V10.79H38.6484V9.33691H32.9531V17.8213ZM47.0977 9.33691H45.3516V14.7275H45.2695L41.5664 9.33691H40.0195V17.8213H41.7773V12.4307H41.8477L45.5742 17.8213H47.0977V9.33691ZM48.1992 10.79H50.8008V17.8213H52.5469V10.79H55.1484V9.33691H48.1992V10.79ZM58.5586 9.33691V15.2549C58.5586 16.0869 58.1895 16.5205 57.5156 16.5205C56.8828 16.5205 56.4727 16.1279 56.4609 15.4541H54.7031C54.6973 17.1299 55.8984 17.9385 57.4336 17.9385C59.1387 17.9385 60.3047 16.9014 60.3047 15.2549V9.33691H58.5586Z" fill="#3F3F41"/>
<path d="M19.6289 4.44922C19.6289 8.69677 15.3757 12.9492 11.1289 12.9492C15.3765 12.9492 19.6289 17.2024 19.6289 21.4492C19.6289 17.202 23.8821 12.9496 28.1289 12.9496C23.8814 12.9492 19.6289 8.69677 19.6289 4.44922Z" fill="#3F3F41"/>
<defs>
<filter id="filter0_d_2472_1022" x="0.128906" y="0.298828" width="80" height="34" filterUnits="userSpaceOnUse" color-interpolation-filters="sRGB">
<feFlood flood-opacity="0" result="BackgroundImageFix"/>
<feColorMatrix in="SourceAlpha" type="matrix" values="0 0 0 0 0 0 0 0 0 0 0 0 0 0 0 0 0 0 127 0" result="hardAlpha"/>
<feOffset dy="4"/>
<feGaussianBlur stdDeviation="2"/>
<feComposite in2="hardAlpha" operator="out"/>
<feColorMatrix type="matrix" values="0 0 0 0 0 0 0 0 0 0 0 0 0 0 0 0 0 0 0.25 0"/>
<feBlend mode="normal" in2="BackgroundImageFix" result="effect1_dropShadow_2472_1022"/>
<feBlend mode="normal" in="SourceGraphic" in2="effect1_dropShadow_2472_1022" result="shape"/>
</filter>
</defs>
</svg>
