<svg width="31" height="31" viewBox="0 0 31 31" fill="none" xmlns="http://www.w3.org/2000/svg">
<path d="M21.201 1.14063C16.2934 2.99172 15.0665 11.562 15.0665 15.6157C26.5282 14.5933 28.8959 11.2571 29.7569 8.78189C31.0296 5.12283 27.3354 -1.17323 21.201 1.14063Z" fill="white"/>
<path d="M0.605233 9.46518C2.45632 14.3727 11.0266 15.5996 15.0803 15.5996C14.0579 4.13791 10.7217 1.77025 8.24648 0.909261C4.58743 -0.363509 -1.70863 3.33075 0.605233 9.46518Z" fill="white"/>
<path d="M8.92984 30.0371C13.8374 28.186 15.0643 19.6157 15.0643 15.562C3.60257 16.5844 1.23491 19.9206 0.373922 22.3959C-0.898849 26.0549 2.79541 32.351 8.92984 30.0371Z" fill="white"/>
<path d="M29.5254 21.7126C27.6744 16.805 19.1041 15.5781 15.0503 15.5781C16.0728 27.0398 19.409 29.4075 21.8842 30.2685C25.5432 31.5412 31.8393 27.847 29.5254 21.7126Z" fill="white"/>
</svg>
