<svg width="81" height="35" viewBox="0 0 81 35" fill="none" xmlns="http://www.w3.org/2000/svg">
<g filter="url(#filter0_d_2472_1030)">
<path d="M4.30078 13.2988C4.30078 6.11913 10.1211 0.298828 17.3008 0.298828H63.3008C70.4805 0.298828 76.3008 6.11913 76.3008 13.2988C76.3008 20.4785 70.4805 26.2988 63.3008 26.2988H17.3008C10.1211 26.2988 4.30078 20.4785 4.30078 13.2988Z" fill="#DB45FF"/>
</g>
<path d="M33.125 17.8213H38.832V16.3682H34.8828V14.3057H38.5273V12.8525H34.8828V10.79H38.8203V9.33691H33.125V17.8213ZM47.2695 9.33691H45.5234V14.7275H45.4414L41.7383 9.33691H40.1914V17.8213H41.9492V12.4307H42.0195L45.7461 17.8213H47.2695V9.33691ZM48.3711 10.79H50.9727V17.8213H52.7188V10.79H55.3203V9.33691H48.3711V10.79ZM58.7305 9.33691V15.2549C58.7305 16.0869 58.3613 16.5205 57.6875 16.5205C57.0547 16.5205 56.6445 16.1279 56.6328 15.4541H54.875C54.8691 17.1299 56.0703 17.9385 57.6055 17.9385C59.3105 17.9385 60.4766 16.9014 60.4766 15.2549V9.33691H58.7305Z" fill="white"/>
<path d="M19.8008 4.44922C19.8008 8.69677 15.5476 12.9492 11.3008 12.9492C15.5483 12.9492 19.8008 17.2024 19.8008 21.4492C19.8008 17.202 24.054 12.9496 28.3008 12.9496C24.0532 12.9492 19.8008 8.69677 19.8008 4.44922Z" fill="white"/>
<defs>
<filter id="filter0_d_2472_1030" x="0.300781" y="0.298828" width="80" height="34" filterUnits="userSpaceOnUse" color-interpolation-filters="sRGB">
<feFlood flood-opacity="0" result="BackgroundImageFix"/>
<feColorMatrix in="SourceAlpha" type="matrix" values="0 0 0 0 0 0 0 0 0 0 0 0 0 0 0 0 0 0 127 0" result="hardAlpha"/>
<feOffset dy="4"/>
<feGaussianBlur stdDeviation="2"/>
<feComposite in2="hardAlpha" operator="out"/>
<feColorMatrix type="matrix" values="0 0 0 0 0 0 0 0 0 0 0 0 0 0 0 0 0 0 0.25 0"/>
<feBlend mode="normal" in2="BackgroundImageFix" result="effect1_dropShadow_2472_1030"/>
<feBlend mode="normal" in="SourceGraphic" in2="effect1_dropShadow_2472_1030" result="shape"/>
</filter>
</defs>
</svg>
