<svg width="81" height="35" viewBox="0 0 81 35" fill="none" xmlns="http://www.w3.org/2000/svg">
<g filter="url(#filter0_d_2472_1023)">
<path d="M4.65234 13.2988C4.65234 6.11913 10.4726 0.298828 17.6523 0.298828H63.6523C70.832 0.298828 76.6523 6.11913 76.6523 13.2988C76.6523 20.4785 70.832 26.2988 63.6523 26.2988H17.6523C10.4726 26.2988 4.65234 20.4785 4.65234 13.2988Z" fill="#5ECC17"/>
</g>
<path d="M33.4766 9.33691H39.1719V10.79H35.2344V12.8525H38.8789V14.3057H35.2344V16.3682H39.1836V17.8213H33.4766V9.33691ZM47.6211 17.8213H46.0977L42.3711 12.4307H42.3008V17.8213H40.543V9.33691H42.0898L45.793 14.7275H45.875V9.33691H47.6211V17.8213ZM48.7227 9.33691H55.6719V10.79H53.0703V17.8213H51.3242V10.79H48.7227V9.33691ZM60.8281 9.33691V15.2549C60.8281 15.7979 60.707 16.2725 60.4648 16.6787C60.2266 17.0811 59.8906 17.3916 59.457 17.6104C59.0234 17.8291 58.5234 17.9385 57.957 17.9385C57.4336 17.9385 56.9648 17.8467 56.5508 17.6631C56.1406 17.4756 55.8164 17.1963 55.5781 16.8252C55.3438 16.4502 55.2266 15.9932 55.2266 15.4541H56.9844C56.9883 15.79 57.084 16.0518 57.2715 16.2393C57.4629 16.4268 57.7188 16.5205 58.0391 16.5205C58.3789 16.5205 58.6367 16.4131 58.8125 16.1982C58.9922 15.9834 59.082 15.6689 59.082 15.2549V9.33691H60.8281Z" fill="white"/>
<path d="M20.1523 4.44922C20.1523 8.69677 15.8991 12.9492 11.6523 12.9492C15.8999 12.9492 20.1523 17.2024 20.1523 21.4492C20.1523 17.202 24.4055 12.9496 28.6523 12.9496C24.4048 12.9492 20.1523 8.69677 20.1523 4.44922Z" fill="white"/>
<defs>
<filter id="filter0_d_2472_1023" x="0.652344" y="0.298828" width="80" height="34" filterUnits="userSpaceOnUse" color-interpolation-filters="sRGB">
<feFlood flood-opacity="0" result="BackgroundImageFix"/>
<feColorMatrix in="SourceAlpha" type="matrix" values="0 0 0 0 0 0 0 0 0 0 0 0 0 0 0 0 0 0 127 0" result="hardAlpha"/>
<feOffset dy="4"/>
<feGaussianBlur stdDeviation="2"/>
<feComposite in2="hardAlpha" operator="out"/>
<feColorMatrix type="matrix" values="0 0 0 0 0 0 0 0 0 0 0 0 0 0 0 0 0 0 0.25 0"/>
<feBlend mode="normal" in2="BackgroundImageFix" result="effect1_dropShadow_2472_1023"/>
<feBlend mode="normal" in="SourceGraphic" in2="effect1_dropShadow_2472_1023" result="shape"/>
</filter>
</defs>
</svg>
