<svg width="81" height="35" viewBox="0 0 81 35" fill="none" xmlns="http://www.w3.org/2000/svg">
<g filter="url(#filter0_d_2475_1210)">
<path d="M4.86719 13.2988C4.86719 6.11913 10.6875 0.298828 17.8672 0.298828H63.8672C71.0469 0.298828 76.8672 6.11913 76.8672 13.2988C76.8672 20.4785 71.0469 26.2988 63.8672 26.2988H17.8672C10.6875 26.2988 4.86719 20.4785 4.86719 13.2988Z" fill="#9B00FF"/>
</g>
<path d="M32.7012 17.8213H38.4082V16.3682H34.459V14.3057H38.1035V12.8525H34.459V10.79H38.3965V9.33691H32.7012V17.8213ZM46.8457 9.33691H45.0996V14.7275H45.0176L41.3145 9.33691H39.7676V17.8213H41.5254V12.4307H41.5957L45.3223 17.8213H46.8457V9.33691ZM47.9473 10.79H50.5488V17.8213H52.2949V10.79H54.8965V9.33691H47.9473V10.79ZM55.9863 17.8213H57.7441V15.0557H59.2676C61.2246 15.0557 62.3496 13.8896 62.3496 12.1963C62.3496 10.5264 61.2422 9.33691 59.3145 9.33691H55.9863V17.8213ZM57.7441 13.6377V10.7783H58.9863C60.0293 10.7842 60.5391 11.3525 60.5332 12.1963C60.5391 13.0518 60.0293 13.6377 58.9863 13.6377H57.7441Z" fill="white"/>
<path d="M20.3672 4.44922C20.3672 8.69677 16.114 12.9492 11.8672 12.9492C16.1147 12.9492 20.3672 17.2024 20.3672 21.4492C20.3672 17.202 24.6204 12.9496 28.8672 12.9496C24.6196 12.9492 20.3672 8.69677 20.3672 4.44922Z" fill="white"/>
<defs>
<filter id="filter0_d_2475_1210" x="0.867188" y="0.298828" width="80" height="34" filterUnits="userSpaceOnUse" color-interpolation-filters="sRGB">
<feFlood flood-opacity="0" result="BackgroundImageFix"/>
<feColorMatrix in="SourceAlpha" type="matrix" values="0 0 0 0 0 0 0 0 0 0 0 0 0 0 0 0 0 0 127 0" result="hardAlpha"/>
<feOffset dy="4"/>
<feGaussianBlur stdDeviation="2"/>
<feComposite in2="hardAlpha" operator="out"/>
<feColorMatrix type="matrix" values="0 0 0 0 0 0 0 0 0 0 0 0 0 0 0 0 0 0 0.25 0"/>
<feBlend mode="normal" in2="BackgroundImageFix" result="effect1_dropShadow_2475_1210"/>
<feBlend mode="normal" in="SourceGraphic" in2="effect1_dropShadow_2475_1210" result="shape"/>
</filter>
</defs>
</svg>
