<svg width="81" height="34" viewBox="0 0 81 34" fill="none" xmlns="http://www.w3.org/2000/svg">
<g filter="url(#filter0_d_2502_1125)">
<path d="M4.73828 13C4.73828 5.8203 10.5586 0 17.7383 0H63.7383C70.918 0 76.7383 5.8203 76.7383 13V13C76.7383 20.1797 70.918 26 63.7383 26H17.7383C10.5586 26 4.73828 20.1797 4.73828 13V13Z" fill="#9B00FF"/>
</g>
<path d="M32.5723 17.5225H38.2793V16.0693H34.3301V14.0068H37.9746V12.5537H34.3301V10.4912H38.2676V9.03809H32.5723V17.5225ZM46.7168 9.03809H44.9707V14.4287H44.8887L41.1855 9.03809H39.6387V17.5225H41.3965V12.1318H41.4668L45.1934 17.5225H46.7168V9.03809ZM47.8184 10.4912H50.4199V17.5225H52.166V10.4912H54.7676V9.03809H47.8184V10.4912ZM55.8574 17.5225H57.6152V14.7568H59.1387C61.0957 14.7568 62.2207 13.5908 62.2207 11.8975C62.2207 10.2275 61.1133 9.03809 59.1855 9.03809H55.8574V17.5225ZM57.6152 13.3389V10.4795H58.8574C59.9004 10.4854 60.4102 11.0537 60.4043 11.8975C60.4102 12.7529 59.9004 13.3389 58.8574 13.3389H57.6152Z" fill="white"/>
<path d="M20.2383 4.15039C20.2383 8.39794 15.9851 12.6504 11.7383 12.6504C15.9858 12.6504 20.2383 16.9036 20.2383 21.1504C20.2383 16.9032 24.4915 12.6508 28.7383 12.6508C24.4907 12.6504 20.2383 8.39794 20.2383 4.15039Z" fill="white"/>
<defs>
<filter id="filter0_d_2502_1125" x="0.738281" y="0" width="80" height="34" filterUnits="userSpaceOnUse" color-interpolation-filters="sRGB">
<feFlood flood-opacity="0" result="BackgroundImageFix"/>
<feColorMatrix in="SourceAlpha" type="matrix" values="0 0 0 0 0 0 0 0 0 0 0 0 0 0 0 0 0 0 127 0" result="hardAlpha"/>
<feOffset dy="4"/>
<feGaussianBlur stdDeviation="2"/>
<feComposite in2="hardAlpha" operator="out"/>
<feColorMatrix type="matrix" values="0 0 0 0 0 0 0 0 0 0 0 0 0 0 0 0 0 0 0.25 0"/>
<feBlend mode="normal" in2="BackgroundImageFix" result="effect1_dropShadow_2502_1125"/>
<feBlend mode="normal" in="SourceGraphic" in2="effect1_dropShadow_2502_1125" result="shape"/>
</filter>
</defs>
</svg>
