<svg width="81" height="35" viewBox="0 0 81 35" fill="none" xmlns="http://www.w3.org/2000/svg">
<g filter="url(#filter0_d_2472_1029)">
<path d="M4.78125 13.2988C4.78125 6.11913 10.6015 0.298828 17.7812 0.298828H63.7812C70.961 0.298828 76.7812 6.11913 76.7812 13.2988C76.7812 20.4785 70.961 26.2988 63.7812 26.2988H17.7813C10.6016 26.2988 4.78125 20.4785 4.78125 13.2988Z" fill="#528AB3"/>
</g>
<path d="M33.9258 17.8213H39.6328V16.3682H35.6836V14.3057H39.3281V12.8525H35.6836V10.79H39.6211V9.33691H33.9258V17.8213ZM45.5977 11.7627H47.2852C47.2617 10.2627 46.0254 9.21973 44.1445 9.21973C42.2871 9.21973 40.9277 10.2451 40.9336 11.7861C40.9336 13.0283 41.8125 13.7432 43.2422 14.0947L44.168 14.3174C45.0938 14.5459 45.6211 14.8154 45.6211 15.3955C45.6211 16.0283 45.0234 16.4619 44.0977 16.4619C43.1602 16.4619 42.4805 16.0283 42.4219 15.1729H40.7109C40.7637 16.9951 42.0703 17.9443 44.1211 17.9385C46.1895 17.9443 47.3965 16.9482 47.4023 15.3955C47.3965 13.9834 46.3125 13.2451 44.8594 12.9111L44.0977 12.7236C43.3652 12.5596 42.7324 12.2842 42.7383 11.6689C42.7441 11.1064 43.2422 10.6963 44.1328 10.6963C44.9941 10.6963 45.5273 11.0889 45.5977 11.7627ZM48.5508 17.8213H50.3086V14.3057H53.7773V12.8525H50.3086V10.79H54.1406V9.33691H48.5508V17.8213ZM57.8906 9.33691V15.2549C57.8906 16.0869 57.5215 16.5205 56.8477 16.5205C56.2148 16.5205 55.8047 16.1279 55.793 15.4541H54.0352C54.0293 17.1299 55.2305 17.9385 56.7656 17.9385C58.4707 17.9385 59.6367 16.9014 59.6367 15.2549V9.33691H57.8906Z" fill="white"/>
<path d="M20.2812 4.44922C20.2812 8.69677 16.0281 12.9492 11.7812 12.9492C16.0288 12.9492 20.2812 17.2024 20.2812 21.4492C20.2812 17.202 24.5344 12.9496 28.7812 12.9496C24.5337 12.9492 20.2812 8.69677 20.2812 4.44922Z" fill="white"/>
<defs>
<filter id="filter0_d_2472_1029" x="0.78125" y="0.298828" width="80" height="34" filterUnits="userSpaceOnUse" color-interpolation-filters="sRGB">
<feFlood flood-opacity="0" result="BackgroundImageFix"/>
<feColorMatrix in="SourceAlpha" type="matrix" values="0 0 0 0 0 0 0 0 0 0 0 0 0 0 0 0 0 0 127 0" result="hardAlpha"/>
<feOffset dy="4"/>
<feGaussianBlur stdDeviation="2"/>
<feComposite in2="hardAlpha" operator="out"/>
<feColorMatrix type="matrix" values="0 0 0 0 0 0 0 0 0 0 0 0 0 0 0 0 0 0 0.25 0"/>
<feBlend mode="normal" in2="BackgroundImageFix" result="effect1_dropShadow_2472_1029"/>
<feBlend mode="normal" in="SourceGraphic" in2="effect1_dropShadow_2472_1029" result="shape"/>
</filter>
</defs>
</svg>
