<svg width="81" height="34" viewBox="0 0 81 34" fill="none" xmlns="http://www.w3.org/2000/svg">
<g filter="url(#filter0_d_2502_1109)">
<path d="M4.65234 13C4.65234 5.8203 10.4726 0 17.6523 0H63.6523C70.832 0 76.6523 5.8203 76.6523 13V13C76.6523 20.1797 70.832 26 63.6523 26H17.6523C10.4726 26 4.65234 20.1797 4.65234 13V13Z" fill="#528AB3"/>
</g>
<path d="M33.7969 17.5225H39.5039V16.0693H35.5547V14.0068H39.1992V12.5537H35.5547V10.4912H39.4922V9.03809H33.7969V17.5225ZM45.4688 11.4639H47.1562C47.1328 9.96387 45.8965 8.9209 44.0156 8.9209C42.1582 8.9209 40.7988 9.94629 40.8047 11.4873C40.8047 12.7295 41.6836 13.4443 43.1133 13.7959L44.0391 14.0186C44.9648 14.2471 45.4922 14.5166 45.4922 15.0967C45.4922 15.7295 44.8945 16.1631 43.9688 16.1631C43.0312 16.1631 42.3516 15.7295 42.293 14.874H40.582C40.6348 16.6963 41.9414 17.6455 43.9922 17.6396C46.0605 17.6455 47.2676 16.6494 47.2734 15.0967C47.2676 13.6846 46.1836 12.9463 44.7305 12.6123L43.9688 12.4248C43.2363 12.2607 42.6035 11.9854 42.6094 11.3701C42.6152 10.8076 43.1133 10.3975 44.0039 10.3975C44.8652 10.3975 45.3984 10.79 45.4688 11.4639ZM48.4219 17.5225H50.1797V14.0068H53.6484V12.5537H50.1797V10.4912H54.0117V9.03809H48.4219V17.5225ZM57.7617 9.03809V14.9561C57.7617 15.7881 57.3926 16.2217 56.7188 16.2217C56.0859 16.2217 55.6758 15.8291 55.6641 15.1553H53.9062C53.9004 16.8311 55.1016 17.6396 56.6367 17.6396C58.3418 17.6396 59.5078 16.6025 59.5078 14.9561V9.03809H57.7617Z" fill="white"/>
<path d="M20.1523 4.15039C20.1523 8.39794 15.8991 12.6504 11.6523 12.6504C15.8999 12.6504 20.1523 16.9036 20.1523 21.1504C20.1523 16.9032 24.4055 12.6508 28.6523 12.6508C24.4048 12.6504 20.1523 8.39794 20.1523 4.15039Z" fill="white"/>
<defs>
<filter id="filter0_d_2502_1109" x="0.652344" y="0" width="80" height="34" filterUnits="userSpaceOnUse" color-interpolation-filters="sRGB">
<feFlood flood-opacity="0" result="BackgroundImageFix"/>
<feColorMatrix in="SourceAlpha" type="matrix" values="0 0 0 0 0 0 0 0 0 0 0 0 0 0 0 0 0 0 127 0" result="hardAlpha"/>
<feOffset dy="4"/>
<feGaussianBlur stdDeviation="2"/>
<feComposite in2="hardAlpha" operator="out"/>
<feColorMatrix type="matrix" values="0 0 0 0 0 0 0 0 0 0 0 0 0 0 0 0 0 0 0.25 0"/>
<feBlend mode="normal" in2="BackgroundImageFix" result="effect1_dropShadow_2502_1109"/>
<feBlend mode="normal" in="SourceGraphic" in2="effect1_dropShadow_2502_1109" result="shape"/>
</filter>
</defs>
</svg>
