<svg width="81" height="34" viewBox="0 0 81 34" fill="none" xmlns="http://www.w3.org/2000/svg">
<g filter="url(#filter0_d_2502_1141)">
<path d="M4.82422 13C4.82422 5.8203 10.6445 0 17.8242 0H63.8242C71.0039 0 76.8242 5.8203 76.8242 13V13C76.8242 20.1797 71.0039 26 63.8242 26H17.8242C10.6445 26 4.82422 20.1797 4.82422 13V13Z" fill="#FFFF56"/>
</g>
<path d="M33.6133 17.5225H39.3203V16.0693H35.3711V14.0068H39.0156V12.5537H35.3711V10.4912H39.3086V9.03809H33.6133V17.5225ZM45.2852 11.4639H46.9727C46.9492 9.96387 45.7129 8.9209 43.832 8.9209C41.9746 8.9209 40.6152 9.94629 40.6211 11.4873C40.6211 12.7295 41.5 13.4443 42.9297 13.7959L43.8555 14.0186C44.7812 14.2471 45.3086 14.5166 45.3086 15.0967C45.3086 15.7295 44.7109 16.1631 43.7852 16.1631C42.8477 16.1631 42.168 15.7295 42.1094 14.874H40.3984C40.4512 16.6963 41.7578 17.6455 43.8086 17.6396C45.877 17.6455 47.084 16.6494 47.0898 15.0967C47.084 13.6846 46 12.9463 44.5469 12.6123L43.7852 12.4248C43.0527 12.2607 42.4199 11.9854 42.4258 11.3701C42.4316 10.8076 42.9297 10.3975 43.8203 10.3975C44.6816 10.3975 45.2148 10.79 45.2852 11.4639ZM48.2383 17.5225H49.9961V14.0068H53.4648V12.5537H49.9961V10.4912H53.8281V9.03809H48.2383V17.5225ZM54.9883 17.5225H56.7461V14.7568H58.2695C60.2266 14.7568 61.3516 13.5908 61.3516 11.8975C61.3516 10.2275 60.2441 9.03809 58.3164 9.03809H54.9883V17.5225ZM56.7461 13.3389V10.4795H57.9883C59.0312 10.4854 59.541 11.0537 59.5352 11.8975C59.541 12.7529 59.0312 13.3389 57.9883 13.3389H56.7461Z" fill="#3F3F41"/>
<path d="M20.3242 4.15039C20.3242 8.39794 16.071 12.6504 11.8242 12.6504C16.0718 12.6504 20.3242 16.9036 20.3242 21.1504C20.3242 16.9032 24.5774 12.6508 28.8242 12.6508C24.5767 12.6504 20.3242 8.39794 20.3242 4.15039Z" fill="#3F3F41"/>
<defs>
<filter id="filter0_d_2502_1141" x="0.824219" y="0" width="80" height="34" filterUnits="userSpaceOnUse" color-interpolation-filters="sRGB">
<feFlood flood-opacity="0" result="BackgroundImageFix"/>
<feColorMatrix in="SourceAlpha" type="matrix" values="0 0 0 0 0 0 0 0 0 0 0 0 0 0 0 0 0 0 127 0" result="hardAlpha"/>
<feOffset dy="4"/>
<feGaussianBlur stdDeviation="2"/>
<feComposite in2="hardAlpha" operator="out"/>
<feColorMatrix type="matrix" values="0 0 0 0 0 0 0 0 0 0 0 0 0 0 0 0 0 0 0.25 0"/>
<feBlend mode="normal" in2="BackgroundImageFix" result="effect1_dropShadow_2502_1141"/>
<feBlend mode="normal" in="SourceGraphic" in2="effect1_dropShadow_2502_1141" result="shape"/>
</filter>
</defs>
</svg>
