<svg width="34" height="33" viewBox="0 0 34 33" fill="none" xmlns="http://www.w3.org/2000/svg">
<path d="M33.2143 16.4106C33.2143 18.0787 30.7209 19.3325 30.2319 20.8377C29.7253 22.3969 30.9883 24.8747 30.0429 26.1696C29.0884 27.4813 26.3368 27.041 25.025 27.9977C23.7261 28.9422 23.3003 31.7004 21.7401 32.2069C20.2348 32.6959 18.2755 30.7307 16.6071 30.7307C14.9388 30.7307 12.9795 32.6959 11.4742 32.2069C9.91401 31.7004 9.48816 28.9422 8.1893 27.9977C6.87749 27.0433 4.12588 27.4836 3.17135 26.1696C2.22597 24.8747 3.48902 22.3946 2.98243 20.8377C2.49336 19.3325 0 18.0787 0 16.4106C0 14.7425 2.49336 13.4887 2.98243 11.9836C3.48902 10.4243 2.22597 7.94651 3.17135 6.6516C4.12588 5.33994 6.87749 5.78021 8.1893 4.8235C9.48816 3.87899 9.91401 1.12084 11.4742 0.614305C12.9795 0.125288 14.9388 2.09049 16.6071 2.09049C18.2755 2.09049 20.2348 0.125288 21.7401 0.614305C23.3003 1.12084 23.7261 3.87899 25.025 4.8235C26.3368 5.77792 29.0884 5.33766 30.0429 6.6516C30.9883 7.94651 29.7253 10.4266 30.2319 11.9836C30.7209 13.4887 33.2143 14.7425 33.2143 16.4106Z" fill="white"/>
</svg>
