<svg width="81" height="35" viewBox="0 0 81 35" fill="none" xmlns="http://www.w3.org/2000/svg">
<g filter="url(#filter0_d_2475_1214)">
<path d="M4.95312 13.2988C4.95312 6.11913 10.7734 0.298828 17.9531 0.298828H63.9531C71.1328 0.298828 76.9531 6.11913 76.9531 13.2988C76.9531 20.4785 71.1328 26.2988 63.9531 26.2988H17.9531C10.7734 26.2988 4.95312 20.4785 4.95312 13.2988Z" fill="#FFFF56"/>
</g>
<path d="M33.7422 17.8213H39.4492V16.3682H35.5V14.3057H39.1445V12.8525H35.5V10.79H39.4375V9.33691H33.7422V17.8213ZM45.4141 11.7627H47.1016C47.0781 10.2627 45.8418 9.21973 43.9609 9.21973C42.1035 9.21973 40.7441 10.2451 40.75 11.7861C40.75 13.0283 41.6289 13.7432 43.0586 14.0947L43.9844 14.3174C44.9102 14.5459 45.4375 14.8154 45.4375 15.3955C45.4375 16.0283 44.8398 16.4619 43.9141 16.4619C42.9766 16.4619 42.2969 16.0283 42.2383 15.1729H40.5273C40.5801 16.9951 41.8867 17.9443 43.9375 17.9385C46.0059 17.9443 47.2129 16.9482 47.2188 15.3955C47.2129 13.9834 46.1289 13.2451 44.6758 12.9111L43.9141 12.7236C43.1816 12.5596 42.5488 12.2842 42.5547 11.6689C42.5605 11.1064 43.0586 10.6963 43.9492 10.6963C44.8105 10.6963 45.3438 11.0889 45.4141 11.7627ZM48.3672 17.8213H50.125V14.3057H53.5938V12.8525H50.125V10.79H53.957V9.33691H48.3672V17.8213ZM55.1172 17.8213H56.875V15.0557H58.3984C60.3555 15.0557 61.4805 13.8896 61.4805 12.1963C61.4805 10.5264 60.373 9.33691 58.4453 9.33691H55.1172V17.8213ZM56.875 13.6377V10.7783H58.1172C59.1602 10.7842 59.6699 11.3525 59.6641 12.1963C59.6699 13.0518 59.1602 13.6377 58.1172 13.6377H56.875Z" fill="#3F3F41"/>
<path d="M20.4531 4.44922C20.4531 8.69677 16.1999 12.9492 11.9531 12.9492C16.2007 12.9492 20.4531 17.2024 20.4531 21.4492C20.4531 17.202 24.7063 12.9496 28.9531 12.9496C24.7056 12.9492 20.4531 8.69677 20.4531 4.44922Z" fill="#3F3F41"/>
<defs>
<filter id="filter0_d_2475_1214" x="0.953125" y="0.298828" width="80" height="34" filterUnits="userSpaceOnUse" color-interpolation-filters="sRGB">
<feFlood flood-opacity="0" result="BackgroundImageFix"/>
<feColorMatrix in="SourceAlpha" type="matrix" values="0 0 0 0 0 0 0 0 0 0 0 0 0 0 0 0 0 0 127 0" result="hardAlpha"/>
<feOffset dy="4"/>
<feGaussianBlur stdDeviation="2"/>
<feComposite in2="hardAlpha" operator="out"/>
<feColorMatrix type="matrix" values="0 0 0 0 0 0 0 0 0 0 0 0 0 0 0 0 0 0 0.25 0"/>
<feBlend mode="normal" in2="BackgroundImageFix" result="effect1_dropShadow_2475_1214"/>
<feBlend mode="normal" in="SourceGraphic" in2="effect1_dropShadow_2475_1214" result="shape"/>
</filter>
</defs>
</svg>
