<svg width="81" height="35" viewBox="0 0 81 35" fill="none" xmlns="http://www.w3.org/2000/svg">
<g filter="url(#filter0_d_2472_1028)">
<path d="M4.25781 13.2988C4.25781 6.11913 10.0781 0.298828 17.2578 0.298828H63.2578C70.4375 0.298828 76.2578 6.11913 76.2578 13.2988C76.2578 20.4785 70.4375 26.2988 63.2578 26.2988H17.2578C10.0781 26.2988 4.25781 20.4785 4.25781 13.2988Z" fill="#0085FF"/>
</g>
<path d="M33.0566 17.8213H38.7637V16.3682H34.8145V14.3057H38.459V12.8525H34.8145V10.79H38.752V9.33691H33.0566V17.8213ZM44.7285 11.7627H46.416C46.3926 10.2627 45.1562 9.21973 43.2754 9.21973C41.418 9.21973 40.0586 10.2451 40.0645 11.7861C40.0645 13.0283 40.9434 13.7432 42.373 14.0947L43.2988 14.3174C44.2246 14.5459 44.752 14.8154 44.752 15.3955C44.752 16.0283 44.1543 16.4619 43.2285 16.4619C42.291 16.4619 41.6113 16.0283 41.5527 15.1729H39.8418C39.8945 16.9951 41.2012 17.9443 43.252 17.9385C45.3203 17.9443 46.5273 16.9482 46.5332 15.3955C46.5273 13.9834 45.4434 13.2451 43.9902 12.9111L43.2285 12.7236C42.4961 12.5596 41.8633 12.2842 41.8691 11.6689C41.875 11.1064 42.373 10.6963 43.2637 10.6963C44.125 10.6963 44.6582 11.0889 44.7285 11.7627ZM47.3535 10.79H49.9551V17.8213H51.7012V10.79H54.3027V9.33691H47.3535V10.79ZM57.7129 9.33691V15.2549C57.7129 16.0869 57.3438 16.5205 56.6699 16.5205C56.0371 16.5205 55.627 16.1279 55.6152 15.4541H53.8574C53.8516 17.1299 55.0527 17.9385 56.5879 17.9385C58.293 17.9385 59.459 16.9014 59.459 15.2549V9.33691H57.7129Z" fill="white"/>
<path d="M19.7578 4.44922C19.7578 8.69677 15.5046 12.9492 11.2578 12.9492C15.5054 12.9492 19.7578 17.2024 19.7578 21.4492C19.7578 17.202 24.011 12.9496 28.2578 12.9496C24.0103 12.9492 19.7578 8.69677 19.7578 4.44922Z" fill="white"/>
<defs>
<filter id="filter0_d_2472_1028" x="0.257812" y="0.298828" width="80" height="34" filterUnits="userSpaceOnUse" color-interpolation-filters="sRGB">
<feFlood flood-opacity="0" result="BackgroundImageFix"/>
<feColorMatrix in="SourceAlpha" type="matrix" values="0 0 0 0 0 0 0 0 0 0 0 0 0 0 0 0 0 0 127 0" result="hardAlpha"/>
<feOffset dy="4"/>
<feGaussianBlur stdDeviation="2"/>
<feComposite in2="hardAlpha" operator="out"/>
<feColorMatrix type="matrix" values="0 0 0 0 0 0 0 0 0 0 0 0 0 0 0 0 0 0 0.25 0"/>
<feBlend mode="normal" in2="BackgroundImageFix" result="effect1_dropShadow_2472_1028"/>
<feBlend mode="normal" in="SourceGraphic" in2="effect1_dropShadow_2472_1028" result="shape"/>
</filter>
</defs>
</svg>
