<svg width="81" height="34" viewBox="0 0 81 34" fill="none" xmlns="http://www.w3.org/2000/svg">
<g filter="url(#filter0_d_2502_1105)">
<path d="M4.12891 13C4.12891 5.8203 9.9492 0 17.1289 0H63.1289C70.3086 0 76.1289 5.8203 76.1289 13V13C76.1289 20.1797 70.3086 26 63.1289 26H17.1289C9.94921 26 4.12891 20.1797 4.12891 13V13Z" fill="#0085FF"/>
</g>
<path d="M32.9277 17.5225H38.6348V16.0693H34.6855V14.0068H38.3301V12.5537H34.6855V10.4912H38.623V9.03809H32.9277V17.5225ZM44.5996 11.4639H46.2871C46.2637 9.96387 45.0273 8.9209 43.1465 8.9209C41.2891 8.9209 39.9297 9.94629 39.9355 11.4873C39.9355 12.7295 40.8145 13.4443 42.2441 13.7959L43.1699 14.0186C44.0957 14.2471 44.623 14.5166 44.623 15.0967C44.623 15.7295 44.0254 16.1631 43.0996 16.1631C42.1621 16.1631 41.4824 15.7295 41.4238 14.874H39.7129C39.7656 16.6963 41.0723 17.6455 43.123 17.6396C45.1914 17.6455 46.3984 16.6494 46.4043 15.0967C46.3984 13.6846 45.3145 12.9463 43.8613 12.6123L43.0996 12.4248C42.3672 12.2607 41.7344 11.9854 41.7402 11.3701C41.7461 10.8076 42.2441 10.3975 43.1348 10.3975C43.9961 10.3975 44.5293 10.79 44.5996 11.4639ZM47.2246 10.4912H49.8262V17.5225H51.5723V10.4912H54.1738V9.03809H47.2246V10.4912ZM57.584 9.03809V14.9561C57.584 15.7881 57.2148 16.2217 56.541 16.2217C55.9082 16.2217 55.498 15.8291 55.4863 15.1553H53.7285C53.7227 16.8311 54.9238 17.6396 56.459 17.6396C58.1641 17.6396 59.3301 16.6025 59.3301 14.9561V9.03809H57.584Z" fill="white"/>
<path d="M19.6289 4.15039C19.6289 8.39794 15.3757 12.6504 11.1289 12.6504C15.3765 12.6504 19.6289 16.9036 19.6289 21.1504C19.6289 16.9032 23.8821 12.6508 28.1289 12.6508C23.8814 12.6504 19.6289 8.39794 19.6289 4.15039Z" fill="white"/>
<defs>
<filter id="filter0_d_2502_1105" x="0.128906" y="0" width="80" height="34" filterUnits="userSpaceOnUse" color-interpolation-filters="sRGB">
<feFlood flood-opacity="0" result="BackgroundImageFix"/>
<feColorMatrix in="SourceAlpha" type="matrix" values="0 0 0 0 0 0 0 0 0 0 0 0 0 0 0 0 0 0 127 0" result="hardAlpha"/>
<feOffset dy="4"/>
<feGaussianBlur stdDeviation="2"/>
<feComposite in2="hardAlpha" operator="out"/>
<feColorMatrix type="matrix" values="0 0 0 0 0 0 0 0 0 0 0 0 0 0 0 0 0 0 0.25 0"/>
<feBlend mode="normal" in2="BackgroundImageFix" result="effect1_dropShadow_2502_1105"/>
<feBlend mode="normal" in="SourceGraphic" in2="effect1_dropShadow_2502_1105" result="shape"/>
</filter>
</defs>
</svg>
