<svg width="81" height="34" viewBox="0 0 81 34" fill="none" xmlns="http://www.w3.org/2000/svg">
<g filter="url(#filter0_d_2502_1129)">
<path d="M4.25781 13C4.25781 5.8203 10.0781 0 17.2578 0H63.2578C70.4375 0 76.2578 5.8203 76.2578 13V13C76.2578 20.1797 70.4375 26 63.2578 26H17.2578C10.0781 26 4.25781 20.1797 4.25781 13V13Z" fill="#F7CB16"/>
</g>
<path d="M32.0664 17.5225H37.7734V16.0693H33.8242V14.0068H37.4688V12.5537H33.8242V10.4912H37.7617V9.03809H32.0664V17.5225ZM43.7383 11.4639H45.4258C45.4023 9.96387 44.166 8.9209 42.2852 8.9209C40.4277 8.9209 39.0684 9.94629 39.0742 11.4873C39.0742 12.7295 39.9531 13.4443 41.3828 13.7959L42.3086 14.0186C43.2344 14.2471 43.7617 14.5166 43.7617 15.0967C43.7617 15.7295 43.1641 16.1631 42.2383 16.1631C41.3008 16.1631 40.6211 15.7295 40.5625 14.874H38.8516C38.9043 16.6963 40.2109 17.6455 42.2617 17.6396C44.3301 17.6455 45.5371 16.6494 45.543 15.0967C45.5371 13.6846 44.4531 12.9463 43 12.6123L42.2383 12.4248C41.5059 12.2607 40.873 11.9854 40.8789 11.3701C40.8848 10.8076 41.3828 10.3975 42.2734 10.3975C43.1348 10.3975 43.668 10.79 43.7383 11.4639ZM46.3633 10.4912H48.9648V17.5225H50.7109V10.4912H53.3125V9.03809H46.3633V10.4912ZM54.4023 17.5225H56.1602V14.7568H57.6836C59.6406 14.7568 60.7656 13.5908 60.7656 11.8975C60.7656 10.2275 59.6582 9.03809 57.7305 9.03809H54.4023V17.5225ZM56.1602 13.3389V10.4795H57.4023C58.4453 10.4854 58.9551 11.0537 58.9492 11.8975C58.9551 12.7529 58.4453 13.3389 57.4023 13.3389H56.1602Z" fill="#3F3F41"/>
<path d="M19.7578 4.15039C19.7578 8.39794 15.5046 12.6504 11.2578 12.6504C15.5054 12.6504 19.7578 16.9036 19.7578 21.1504C19.7578 16.9032 24.011 12.6508 28.2578 12.6508C24.0103 12.6504 19.7578 8.39794 19.7578 4.15039Z" fill="#3F3F41"/>
<defs>
<filter id="filter0_d_2502_1129" x="0.257812" y="0" width="80" height="34" filterUnits="userSpaceOnUse" color-interpolation-filters="sRGB">
<feFlood flood-opacity="0" result="BackgroundImageFix"/>
<feColorMatrix in="SourceAlpha" type="matrix" values="0 0 0 0 0 0 0 0 0 0 0 0 0 0 0 0 0 0 127 0" result="hardAlpha"/>
<feOffset dy="4"/>
<feGaussianBlur stdDeviation="2"/>
<feComposite in2="hardAlpha" operator="out"/>
<feColorMatrix type="matrix" values="0 0 0 0 0 0 0 0 0 0 0 0 0 0 0 0 0 0 0.25 0"/>
<feBlend mode="normal" in2="BackgroundImageFix" result="effect1_dropShadow_2502_1129"/>
<feBlend mode="normal" in="SourceGraphic" in2="effect1_dropShadow_2502_1129" result="shape"/>
</filter>
</defs>
</svg>
