<svg width="81" height="35" viewBox="0 0 81 35" fill="none" xmlns="http://www.w3.org/2000/svg">
<g filter="url(#filter0_d_2475_1211)">
<path d="M4.38672 13.2988C4.38672 6.11913 10.207 0.298828 17.3867 0.298828H63.3867C70.5664 0.298828 76.3867 6.11913 76.3867 13.2988C76.3867 20.4785 70.5664 26.2988 63.3867 26.2988H17.3867C10.207 26.2988 4.38672 20.4785 4.38672 13.2988Z" fill="#F7CB16"/>
</g>
<path d="M32.1953 17.8213H37.9023V16.3682H33.9531V14.3057H37.5977V12.8525H33.9531V10.79H37.8906V9.33691H32.1953V17.8213ZM43.8672 11.7627H45.5547C45.5312 10.2627 44.2949 9.21973 42.4141 9.21973C40.5566 9.21973 39.1973 10.2451 39.2031 11.7861C39.2031 13.0283 40.082 13.7432 41.5117 14.0947L42.4375 14.3174C43.3633 14.5459 43.8906 14.8154 43.8906 15.3955C43.8906 16.0283 43.293 16.4619 42.3672 16.4619C41.4297 16.4619 40.75 16.0283 40.6914 15.1729H38.9805C39.0332 16.9951 40.3398 17.9443 42.3906 17.9385C44.459 17.9443 45.666 16.9482 45.6719 15.3955C45.666 13.9834 44.582 13.2451 43.1289 12.9111L42.3672 12.7236C41.6348 12.5596 41.002 12.2842 41.0078 11.6689C41.0137 11.1064 41.5117 10.6963 42.4023 10.6963C43.2637 10.6963 43.7969 11.0889 43.8672 11.7627ZM46.4922 10.79H49.0938V17.8213H50.8398V10.79H53.4414V9.33691H46.4922V10.79ZM54.5312 17.8213H56.2891V15.0557H57.8125C59.7695 15.0557 60.8945 13.8896 60.8945 12.1963C60.8945 10.5264 59.7871 9.33691 57.8594 9.33691H54.5312V17.8213ZM56.2891 13.6377V10.7783H57.5312C58.5742 10.7842 59.084 11.3525 59.0781 12.1963C59.084 13.0518 58.5742 13.6377 57.5312 13.6377H56.2891Z" fill="#3F3F41"/>
<path d="M19.8867 4.44922C19.8867 8.69677 15.6335 12.9492 11.3867 12.9492C15.6343 12.9492 19.8867 17.2024 19.8867 21.4492C19.8867 17.202 24.1399 12.9496 28.3867 12.9496C24.1392 12.9492 19.8867 8.69677 19.8867 4.44922Z" fill="#3F3F41"/>
<defs>
<filter id="filter0_d_2475_1211" x="0.386719" y="0.298828" width="80" height="34" filterUnits="userSpaceOnUse" color-interpolation-filters="sRGB">
<feFlood flood-opacity="0" result="BackgroundImageFix"/>
<feColorMatrix in="SourceAlpha" type="matrix" values="0 0 0 0 0 0 0 0 0 0 0 0 0 0 0 0 0 0 127 0" result="hardAlpha"/>
<feOffset dy="4"/>
<feGaussianBlur stdDeviation="2"/>
<feComposite in2="hardAlpha" operator="out"/>
<feColorMatrix type="matrix" values="0 0 0 0 0 0 0 0 0 0 0 0 0 0 0 0 0 0 0.25 0"/>
<feBlend mode="normal" in2="BackgroundImageFix" result="effect1_dropShadow_2475_1211"/>
<feBlend mode="normal" in="SourceGraphic" in2="effect1_dropShadow_2475_1211" result="shape"/>
</filter>
</defs>
</svg>
