<svg width="81" height="34" viewBox="0 0 81 34" fill="none" xmlns="http://www.w3.org/2000/svg">
<g filter="url(#filter0_d_2502_1121)">
<path d="M4.21484 13C4.21484 5.8203 10.0351 0 17.2148 0H63.2148C70.3945 0 76.2148 5.8203 76.2148 13V13C76.2148 20.1797 70.3945 26 63.2148 26H17.2148C10.0351 26 4.21484 20.1797 4.21484 13V13Z" fill="#FC94FF"/>
</g>
<path d="M36.7363 9.03809H34.9785V17.5225H36.7363V9.03809ZM45.2441 9.03809H43.498V14.4287H43.416L39.7129 9.03809H38.166V17.5225H39.9238V12.1318H39.9941L43.7207 17.5225H45.2441V9.03809ZM46.3457 10.4912H48.9473V17.5225H50.6934V10.4912H53.2949V9.03809H46.3457V10.4912ZM56.7051 9.03809V14.9561C56.7051 15.7881 56.3359 16.2217 55.6621 16.2217C55.0293 16.2217 54.6191 15.8291 54.6074 15.1553H52.8496C52.8438 16.8311 54.0449 17.6396 55.5801 17.6396C57.2852 17.6396 58.4512 16.6025 58.4512 14.9561V9.03809H56.7051Z" fill="white"/>
<path d="M19.7148 4.15039C19.7148 8.39794 15.4616 12.6504 11.2148 12.6504C15.4624 12.6504 19.7148 16.9036 19.7148 21.1504C19.7148 16.9032 23.968 12.6508 28.2148 12.6508C23.9673 12.6504 19.7148 8.39794 19.7148 4.15039Z" fill="white"/>
<defs>
<filter id="filter0_d_2502_1121" x="0.214844" y="0" width="80" height="34" filterUnits="userSpaceOnUse" color-interpolation-filters="sRGB">
<feFlood flood-opacity="0" result="BackgroundImageFix"/>
<feColorMatrix in="SourceAlpha" type="matrix" values="0 0 0 0 0 0 0 0 0 0 0 0 0 0 0 0 0 0 127 0" result="hardAlpha"/>
<feOffset dy="4"/>
<feGaussianBlur stdDeviation="2"/>
<feComposite in2="hardAlpha" operator="out"/>
<feColorMatrix type="matrix" values="0 0 0 0 0 0 0 0 0 0 0 0 0 0 0 0 0 0 0.25 0"/>
<feBlend mode="normal" in2="BackgroundImageFix" result="effect1_dropShadow_2502_1121"/>
<feBlend mode="normal" in="SourceGraphic" in2="effect1_dropShadow_2502_1121" result="shape"/>
</filter>
</defs>
</svg>
