<svg width="81" height="35" viewBox="0 0 81 35" fill="none" xmlns="http://www.w3.org/2000/svg">
<g filter="url(#filter0_d_2475_1209)">
<path d="M4.34375 13.2988C4.34375 6.11913 10.164 0.298828 17.3438 0.298828H63.3438C70.5235 0.298828 76.3438 6.11913 76.3438 13.2988C76.3438 20.4785 70.5235 26.2988 63.3438 26.2988H17.3438C10.1641 26.2988 4.34375 20.4785 4.34375 13.2988Z" fill="#FC94FF"/>
</g>
<path d="M36.8652 9.33691H35.1074V17.8213H36.8652V9.33691ZM45.373 9.33691H43.627V14.7275H43.5449L39.8418 9.33691H38.2949V17.8213H40.0527V12.4307H40.123L43.8496 17.8213H45.373V9.33691ZM46.4746 10.79H49.0762V17.8213H50.8223V10.79H53.4238V9.33691H46.4746V10.79ZM56.834 9.33691V15.2549C56.834 16.0869 56.4648 16.5205 55.791 16.5205C55.1582 16.5205 54.748 16.1279 54.7363 15.4541H52.9785C52.9727 17.1299 54.1738 17.9385 55.709 17.9385C57.4141 17.9385 58.5801 16.9014 58.5801 15.2549V9.33691H56.834Z" fill="white"/>
<path d="M19.8438 4.44922C19.8438 8.69677 15.5906 12.9492 11.3438 12.9492C15.5913 12.9492 19.8438 17.2024 19.8438 21.4492C19.8438 17.202 24.0969 12.9496 28.3438 12.9496C24.0962 12.9492 19.8438 8.69677 19.8438 4.44922Z" fill="white"/>
<defs>
<filter id="filter0_d_2475_1209" x="0.34375" y="0.298828" width="80" height="34" filterUnits="userSpaceOnUse" color-interpolation-filters="sRGB">
<feFlood flood-opacity="0" result="BackgroundImageFix"/>
<feColorMatrix in="SourceAlpha" type="matrix" values="0 0 0 0 0 0 0 0 0 0 0 0 0 0 0 0 0 0 127 0" result="hardAlpha"/>
<feOffset dy="4"/>
<feGaussianBlur stdDeviation="2"/>
<feComposite in2="hardAlpha" operator="out"/>
<feColorMatrix type="matrix" values="0 0 0 0 0 0 0 0 0 0 0 0 0 0 0 0 0 0 0.25 0"/>
<feBlend mode="normal" in2="BackgroundImageFix" result="effect1_dropShadow_2475_1209"/>
<feBlend mode="normal" in="SourceGraphic" in2="effect1_dropShadow_2475_1209" result="shape"/>
</filter>
</defs>
</svg>
