<svg width="81" height="34" viewBox="0 0 81 34" fill="none" xmlns="http://www.w3.org/2000/svg">
<g filter="url(#filter0_d_2502_1117)">
<path d="M4.69531 13C4.69531 5.8203 10.5156 0 17.6953 0H63.6953C70.875 0 76.6953 5.8203 76.6953 13V13C76.6953 20.1797 70.875 26 63.6953 26H17.6953C10.5156 26 4.69531 20.1797 4.69531 13V13Z" fill="#FF83CA"/>
</g>
<path d="M36.2266 9.03809H34.4688V17.5225H36.2266V9.03809ZM44.7344 9.03809H42.9883V14.4287H42.9062L39.2031 9.03809H37.6562V17.5225H39.4141V12.1318H39.4844L43.2109 17.5225H44.7344V9.03809ZM45.8359 10.4912H48.4375V17.5225H50.1836V10.4912H52.7852V9.03809H45.8359V10.4912ZM53.875 17.5225H55.6328V14.7568H57.1562C59.1133 14.7568 60.2383 13.5908 60.2383 11.8975C60.2383 10.2275 59.1309 9.03809 57.2031 9.03809H53.875V17.5225ZM55.6328 13.3389V10.4795H56.875C57.918 10.4854 58.4277 11.0537 58.4219 11.8975C58.4277 12.7529 57.918 13.3389 56.875 13.3389H55.6328Z" fill="white"/>
<path d="M20.1953 4.15039C20.1953 8.39794 15.9421 12.6504 11.6953 12.6504C15.9429 12.6504 20.1953 16.9036 20.1953 21.1504C20.1953 16.9032 24.4485 12.6508 28.6953 12.6508C24.4478 12.6504 20.1953 8.39794 20.1953 4.15039Z" fill="white"/>
<defs>
<filter id="filter0_d_2502_1117" x="0.695312" y="0" width="80" height="34" filterUnits="userSpaceOnUse" color-interpolation-filters="sRGB">
<feFlood flood-opacity="0" result="BackgroundImageFix"/>
<feColorMatrix in="SourceAlpha" type="matrix" values="0 0 0 0 0 0 0 0 0 0 0 0 0 0 0 0 0 0 127 0" result="hardAlpha"/>
<feOffset dy="4"/>
<feGaussianBlur stdDeviation="2"/>
<feComposite in2="hardAlpha" operator="out"/>
<feColorMatrix type="matrix" values="0 0 0 0 0 0 0 0 0 0 0 0 0 0 0 0 0 0 0.25 0"/>
<feBlend mode="normal" in2="BackgroundImageFix" result="effect1_dropShadow_2502_1117"/>
<feBlend mode="normal" in="SourceGraphic" in2="effect1_dropShadow_2502_1117" result="shape"/>
</filter>
</defs>
</svg>
