<svg width="81" height="35" viewBox="0 0 81 35" fill="none" xmlns="http://www.w3.org/2000/svg">
<g filter="url(#filter0_d_2475_1208)">
<path d="M4.82422 13.2988C4.82422 6.11913 10.6445 0.298828 17.8242 0.298828H63.8242C71.0039 0.298828 76.8242 6.11913 76.8242 13.2988C76.8242 20.4785 71.0039 26.2988 63.8242 26.2988H17.8242C10.6445 26.2988 4.82422 20.4785 4.82422 13.2988Z" fill="#FF83CA"/>
</g>
<path d="M36.3555 9.33691H34.5977V17.8213H36.3555V9.33691ZM44.8633 9.33691H43.1172V14.7275H43.0352L39.332 9.33691H37.7852V17.8213H39.543V12.4307H39.6133L43.3398 17.8213H44.8633V9.33691ZM45.9648 10.79H48.5664V17.8213H50.3125V10.79H52.9141V9.33691H45.9648V10.79ZM54.0039 17.8213H55.7617V15.0557H57.2852C59.2422 15.0557 60.3672 13.8896 60.3672 12.1963C60.3672 10.5264 59.2598 9.33691 57.332 9.33691H54.0039V17.8213ZM55.7617 13.6377V10.7783H57.0039C58.0469 10.7842 58.5566 11.3525 58.5508 12.1963C58.5566 13.0518 58.0469 13.6377 57.0039 13.6377H55.7617Z" fill="white"/>
<path d="M20.3242 4.44922C20.3242 8.69677 16.071 12.9492 11.8242 12.9492C16.0718 12.9492 20.3242 17.2024 20.3242 21.4492C20.3242 17.202 24.5774 12.9496 28.8242 12.9496C24.5767 12.9492 20.3242 8.69677 20.3242 4.44922Z" fill="white"/>
<defs>
<filter id="filter0_d_2475_1208" x="0.824219" y="0.298828" width="80" height="34" filterUnits="userSpaceOnUse" color-interpolation-filters="sRGB">
<feFlood flood-opacity="0" result="BackgroundImageFix"/>
<feColorMatrix in="SourceAlpha" type="matrix" values="0 0 0 0 0 0 0 0 0 0 0 0 0 0 0 0 0 0 127 0" result="hardAlpha"/>
<feOffset dy="4"/>
<feGaussianBlur stdDeviation="2"/>
<feComposite in2="hardAlpha" operator="out"/>
<feColorMatrix type="matrix" values="0 0 0 0 0 0 0 0 0 0 0 0 0 0 0 0 0 0 0.25 0"/>
<feBlend mode="normal" in2="BackgroundImageFix" result="effect1_dropShadow_2475_1208"/>
<feBlend mode="normal" in="SourceGraphic" in2="effect1_dropShadow_2475_1208" result="shape"/>
</filter>
</defs>
</svg>
