<svg width="81" height="34" viewBox="0 0 81 34" fill="none" xmlns="http://www.w3.org/2000/svg">
<g filter="url(#filter0_d_2502_1101)">
<path d="M4.60938 13C4.60938 5.8203 10.4297 0 17.6094 0H63.6094C70.7891 0 76.6094 5.8203 76.6094 13V13C76.6094 20.1797 70.7891 26 63.6094 26H17.6094C10.4297 26 4.60938 20.1797 4.60938 13V13Z" fill="#53B5FF"/>
</g>
<path d="M37.4512 9.03809H35.6934V17.5225H37.4512V9.03809ZM43.4863 11.4639H45.1738C45.1504 9.96387 43.9141 8.9209 42.0332 8.9209C40.1758 8.9209 38.8164 9.94629 38.8223 11.4873C38.8223 12.7295 39.7012 13.4443 41.1309 13.7959L42.0566 14.0186C42.9824 14.2471 43.5098 14.5166 43.5098 15.0967C43.5098 15.7295 42.9121 16.1631 41.9863 16.1631C41.0488 16.1631 40.3691 15.7295 40.3105 14.874H38.5996C38.6523 16.6963 39.959 17.6455 42.0098 17.6396C44.0781 17.6455 45.2852 16.6494 45.291 15.0967C45.2852 13.6846 44.2012 12.9463 42.748 12.6123L41.9863 12.4248C41.2539 12.2607 40.6211 11.9854 40.627 11.3701C40.6328 10.8076 41.1309 10.3975 42.0215 10.3975C42.8828 10.3975 43.416 10.79 43.4863 11.4639ZM46.4395 17.5225H48.1973V14.0068H51.666V12.5537H48.1973V10.4912H52.0293V9.03809H46.4395V17.5225ZM55.7793 9.03809V14.9561C55.7793 15.7881 55.4102 16.2217 54.7363 16.2217C54.1035 16.2217 53.6934 15.8291 53.6816 15.1553H51.9238C51.918 16.8311 53.1191 17.6396 54.6543 17.6396C56.3594 17.6396 57.5254 16.6025 57.5254 14.9561V9.03809H55.7793Z" fill="#3F3F41"/>
<path d="M20.1094 4.15039C20.1094 8.39794 15.8562 12.6504 11.6094 12.6504C15.8569 12.6504 20.1094 16.9036 20.1094 21.1504C20.1094 16.9032 24.3626 12.6508 28.6094 12.6508C24.3618 12.6504 20.1094 8.39794 20.1094 4.15039Z" fill="#3F3F41"/>
<defs>
<filter id="filter0_d_2502_1101" x="0.609375" y="0" width="80" height="34" filterUnits="userSpaceOnUse" color-interpolation-filters="sRGB">
<feFlood flood-opacity="0" result="BackgroundImageFix"/>
<feColorMatrix in="SourceAlpha" type="matrix" values="0 0 0 0 0 0 0 0 0 0 0 0 0 0 0 0 0 0 127 0" result="hardAlpha"/>
<feOffset dy="4"/>
<feGaussianBlur stdDeviation="2"/>
<feComposite in2="hardAlpha" operator="out"/>
<feColorMatrix type="matrix" values="0 0 0 0 0 0 0 0 0 0 0 0 0 0 0 0 0 0 0.25 0"/>
<feBlend mode="normal" in2="BackgroundImageFix" result="effect1_dropShadow_2502_1101"/>
<feBlend mode="normal" in="SourceGraphic" in2="effect1_dropShadow_2502_1101" result="shape"/>
</filter>
</defs>
</svg>
