<svg width="81" height="35" viewBox="0 0 81 35" fill="none" xmlns="http://www.w3.org/2000/svg">
<g filter="url(#filter0_d_2472_1027)">
<path d="M4.73828 13.2988C4.73828 6.11913 10.5586 0.298828 17.7383 0.298828H63.7383C70.918 0.298828 76.7383 6.11913 76.7383 13.2988C76.7383 20.4785 70.918 26.2988 63.7383 26.2988H17.7383C10.5586 26.2988 4.73828 20.4785 4.73828 13.2988Z" fill="#53B5FF"/>
</g>
<path d="M37.5801 9.33691H35.8223V17.8213H37.5801V9.33691ZM43.6152 11.7627H45.3027C45.2793 10.2627 44.043 9.21973 42.1621 9.21973C40.3047 9.21973 38.9453 10.2451 38.9512 11.7861C38.9512 13.0283 39.8301 13.7432 41.2598 14.0947L42.1855 14.3174C43.1113 14.5459 43.6387 14.8154 43.6387 15.3955C43.6387 16.0283 43.041 16.4619 42.1152 16.4619C41.1777 16.4619 40.498 16.0283 40.4395 15.1729H38.7285C38.7812 16.9951 40.0879 17.9443 42.1387 17.9385C44.207 17.9443 45.4141 16.9482 45.4199 15.3955C45.4141 13.9834 44.3301 13.2451 42.877 12.9111L42.1152 12.7236C41.3828 12.5596 40.75 12.2842 40.7559 11.6689C40.7617 11.1064 41.2598 10.6963 42.1504 10.6963C43.0117 10.6963 43.5449 11.0889 43.6152 11.7627ZM46.5684 17.8213H48.3262V14.3057H51.7949V12.8525H48.3262V10.79H52.1582V9.33691H46.5684V17.8213ZM55.9082 9.33691V15.2549C55.9082 16.0869 55.5391 16.5205 54.8652 16.5205C54.2324 16.5205 53.8223 16.1279 53.8105 15.4541H52.0527C52.0469 17.1299 53.248 17.9385 54.7832 17.9385C56.4883 17.9385 57.6543 16.9014 57.6543 15.2549V9.33691H55.9082Z" fill="#3F3F41"/>
<path d="M20.2383 4.44922C20.2383 8.69677 15.9851 12.9492 11.7383 12.9492C15.9858 12.9492 20.2383 17.2024 20.2383 21.4492C20.2383 17.202 24.4915 12.9496 28.7383 12.9496C24.4907 12.9492 20.2383 8.69677 20.2383 4.44922Z" fill="#3F3F41"/>
<defs>
<filter id="filter0_d_2472_1027" x="0.738281" y="0.298828" width="80" height="34" filterUnits="userSpaceOnUse" color-interpolation-filters="sRGB">
<feFlood flood-opacity="0" result="BackgroundImageFix"/>
<feColorMatrix in="SourceAlpha" type="matrix" values="0 0 0 0 0 0 0 0 0 0 0 0 0 0 0 0 0 0 127 0" result="hardAlpha"/>
<feOffset dy="4"/>
<feGaussianBlur stdDeviation="2"/>
<feComposite in2="hardAlpha" operator="out"/>
<feColorMatrix type="matrix" values="0 0 0 0 0 0 0 0 0 0 0 0 0 0 0 0 0 0 0.25 0"/>
<feBlend mode="normal" in2="BackgroundImageFix" result="effect1_dropShadow_2472_1027"/>
<feBlend mode="normal" in="SourceGraphic" in2="effect1_dropShadow_2472_1027" result="shape"/>
</filter>
</defs>
</svg>
