<svg width="81" height="35" viewBox="0 0 81 35" fill="none" xmlns="http://www.w3.org/2000/svg">
<g filter="url(#filter0_d_2475_1212)">
<path d="M4.91016 13.2988C4.91016 6.11913 10.7305 0.298828 17.9102 0.298828H63.9102C71.0899 0.298828 76.9102 6.11913 76.9102 13.2988C76.9102 20.4785 71.0899 26.2988 63.9102 26.2988H17.9102C10.7305 26.2988 4.91016 20.4785 4.91016 13.2988Z" fill="#F1E685"/>
</g>
<path d="M37.3965 9.33691H35.6387V17.8213H37.3965V9.33691ZM43.4316 11.7627H45.1191C45.0957 10.2627 43.8594 9.21973 41.9785 9.21973C40.1211 9.21973 38.7617 10.2451 38.7676 11.7861C38.7676 13.0283 39.6465 13.7432 41.0762 14.0947L42.002 14.3174C42.9277 14.5459 43.4551 14.8154 43.4551 15.3955C43.4551 16.0283 42.8574 16.4619 41.9316 16.4619C40.9941 16.4619 40.3145 16.0283 40.2559 15.1729H38.5449C38.5977 16.9951 39.9043 17.9443 41.9551 17.9385C44.0234 17.9443 45.2305 16.9482 45.2363 15.3955C45.2305 13.9834 44.1465 13.2451 42.6934 12.9111L41.9316 12.7236C41.1992 12.5596 40.5664 12.2842 40.5723 11.6689C40.5781 11.1064 41.0762 10.6963 41.9668 10.6963C42.8281 10.6963 43.3613 11.0889 43.4316 11.7627ZM46.3848 17.8213H48.1426V14.3057H51.6113V12.8525H48.1426V10.79H51.9746V9.33691H46.3848V17.8213ZM53.1348 17.8213H54.8926V15.0557H56.416C58.373 15.0557 59.498 13.8896 59.498 12.1963C59.498 10.5264 58.3906 9.33691 56.4629 9.33691H53.1348V17.8213ZM54.8926 13.6377V10.7783H56.1348C57.1777 10.7842 57.6875 11.3525 57.6816 12.1963C57.6875 13.0518 57.1777 13.6377 56.1348 13.6377H54.8926Z" fill="#3F3F41"/>
<path d="M20.4102 4.44922C20.4102 8.69677 16.157 12.9492 11.9102 12.9492C16.1577 12.9492 20.4102 17.2024 20.4102 21.4492C20.4102 17.202 24.6634 12.9496 28.9102 12.9496C24.6626 12.9492 20.4102 8.69677 20.4102 4.44922Z" fill="#3F3F41"/>
<defs>
<filter id="filter0_d_2475_1212" x="0.910156" y="0.298828" width="80" height="34" filterUnits="userSpaceOnUse" color-interpolation-filters="sRGB">
<feFlood flood-opacity="0" result="BackgroundImageFix"/>
<feColorMatrix in="SourceAlpha" type="matrix" values="0 0 0 0 0 0 0 0 0 0 0 0 0 0 0 0 0 0 127 0" result="hardAlpha"/>
<feOffset dy="4"/>
<feGaussianBlur stdDeviation="2"/>
<feComposite in2="hardAlpha" operator="out"/>
<feColorMatrix type="matrix" values="0 0 0 0 0 0 0 0 0 0 0 0 0 0 0 0 0 0 0.25 0"/>
<feBlend mode="normal" in2="BackgroundImageFix" result="effect1_dropShadow_2475_1212"/>
<feBlend mode="normal" in="SourceGraphic" in2="effect1_dropShadow_2475_1212" result="shape"/>
</filter>
</defs>
</svg>
