<svg width="81" height="34" viewBox="0 0 81 34" fill="none" xmlns="http://www.w3.org/2000/svg">
<g filter="url(#filter0_d_2502_1133)">
<path d="M4.78125 13C4.78125 5.8203 10.6015 0 17.7812 0H63.7812C70.9609 0 76.7812 5.8203 76.7812 13V13C76.7812 20.1797 70.961 26 63.7813 26H17.7813C10.6016 26 4.78125 20.1797 4.78125 13V13Z" fill="#F1E685"/>
</g>
<path d="M37.2676 9.03809H35.5098V17.5225H37.2676V9.03809ZM43.3027 11.4639H44.9902C44.9668 9.96387 43.7305 8.9209 41.8496 8.9209C39.9922 8.9209 38.6328 9.94629 38.6387 11.4873C38.6387 12.7295 39.5176 13.4443 40.9473 13.7959L41.873 14.0186C42.7988 14.2471 43.3262 14.5166 43.3262 15.0967C43.3262 15.7295 42.7285 16.1631 41.8027 16.1631C40.8652 16.1631 40.1855 15.7295 40.127 14.874H38.416C38.4688 16.6963 39.7754 17.6455 41.8262 17.6396C43.8945 17.6455 45.1016 16.6494 45.1074 15.0967C45.1016 13.6846 44.0176 12.9463 42.5645 12.6123L41.8027 12.4248C41.0703 12.2607 40.4375 11.9854 40.4434 11.3701C40.4492 10.8076 40.9473 10.3975 41.8379 10.3975C42.6992 10.3975 43.2324 10.79 43.3027 11.4639ZM46.2559 17.5225H48.0137V14.0068H51.4824V12.5537H48.0137V10.4912H51.8457V9.03809H46.2559V17.5225ZM53.0059 17.5225H54.7637V14.7568H56.2871C58.2441 14.7568 59.3691 13.5908 59.3691 11.8975C59.3691 10.2275 58.2617 9.03809 56.334 9.03809H53.0059V17.5225ZM54.7637 13.3389V10.4795H56.0059C57.0488 10.4854 57.5586 11.0537 57.5527 11.8975C57.5586 12.7529 57.0488 13.3389 56.0059 13.3389H54.7637Z" fill="#3F3F41"/>
<path d="M20.2813 4.15039C20.2813 8.39794 16.0281 12.6504 11.7812 12.6504C16.0288 12.6504 20.2813 16.9036 20.2813 21.1504C20.2813 16.9032 24.5344 12.6508 28.7813 12.6508C24.5337 12.6504 20.2813 8.39794 20.2813 4.15039Z" fill="#3F3F41"/>
<defs>
<filter id="filter0_d_2502_1133" x="0.78125" y="0" width="80" height="34" filterUnits="userSpaceOnUse" color-interpolation-filters="sRGB">
<feFlood flood-opacity="0" result="BackgroundImageFix"/>
<feColorMatrix in="SourceAlpha" type="matrix" values="0 0 0 0 0 0 0 0 0 0 0 0 0 0 0 0 0 0 127 0" result="hardAlpha"/>
<feOffset dy="4"/>
<feGaussianBlur stdDeviation="2"/>
<feComposite in2="hardAlpha" operator="out"/>
<feColorMatrix type="matrix" values="0 0 0 0 0 0 0 0 0 0 0 0 0 0 0 0 0 0 0.25 0"/>
<feBlend mode="normal" in2="BackgroundImageFix" result="effect1_dropShadow_2502_1133"/>
<feBlend mode="normal" in="SourceGraphic" in2="effect1_dropShadow_2502_1133" result="shape"/>
</filter>
</defs>
</svg>
