<svg width="37" height="32" viewBox="0 0 37 32" fill="none" xmlns="http://www.w3.org/2000/svg">
<path d="M23.1549 1.81059C20.6001 3.38826 19.4201 3.67608 18.7706 3.67608C18.0669 3.67608 16.8004 3.6441 13.8991 1.81059C10.2726 -0.481292 8.37819 0.797897 8.37819 4.10248C8.37819 7.40706 9.08185 10.3385 4.21041 12.5238C-0.661027 14.7091 0.259134 17.6939 4.21041 19.5061C8.16169 21.3183 8.48644 22.7573 8.37819 26.968C8.26993 31.1787 9.94787 32.5112 14.0615 30.0594C18.1752 27.6076 19.5825 28.0873 22.9925 30.0594C26.4025 32.0315 28.7841 31.8716 28.7841 26.968C28.7841 22.0645 29.0006 21.6381 33.006 19.5061C37.0114 17.3741 37.8233 14.9223 33.006 12.5238C28.1887 10.1253 28.8382 7.99335 28.73 4.10248C28.6217 0.211603 26.3484 -0.161494 23.1549 1.81059Z" fill="white"/>
</svg>
