<svg width="81" height="35" viewBox="0 0 81 35" fill="none" xmlns="http://www.w3.org/2000/svg">
<g filter="url(#filter0_d_2472_1026)">
<path d="M4.21484 13.2988C4.21484 6.11913 10.0351 0.298828 17.2148 0.298828H63.2148C70.3945 0.298828 76.2148 6.11913 76.2148 13.2988C76.2148 20.4785 70.3945 26.2988 63.2148 26.2988H17.2148C10.0351 26.2988 4.21484 20.4785 4.21484 13.2988Z" fill="#A6DDFF"/>
</g>
<path d="M36.7109 9.33691H34.9531V17.8213H36.7109V9.33691ZM42.7461 11.7627H44.4336C44.4102 10.2627 43.1738 9.21973 41.293 9.21973C39.4355 9.21973 38.0762 10.2451 38.082 11.7861C38.082 13.0283 38.9609 13.7432 40.3906 14.0947L41.3164 14.3174C42.2422 14.5459 42.7695 14.8154 42.7695 15.3955C42.7695 16.0283 42.1719 16.4619 41.2461 16.4619C40.3086 16.4619 39.6289 16.0283 39.5703 15.1729H37.8594C37.9121 16.9951 39.2188 17.9443 41.2695 17.9385C43.3379 17.9443 44.5449 16.9482 44.5508 15.3955C44.5449 13.9834 43.4609 13.2451 42.0078 12.9111L41.2461 12.7236C40.5137 12.5596 39.8809 12.2842 39.8867 11.6689C39.8926 11.1064 40.3906 10.6963 41.2812 10.6963C42.1426 10.6963 42.6758 11.0889 42.7461 11.7627ZM45.3711 10.79H47.9727V17.8213H49.7188V10.79H52.3203V9.33691H45.3711V10.79ZM55.7305 9.33691V15.2549C55.7305 16.0869 55.3613 16.5205 54.6875 16.5205C54.0547 16.5205 53.6445 16.1279 53.6328 15.4541H51.875C51.8691 17.1299 53.0703 17.9385 54.6055 17.9385C56.3105 17.9385 57.4766 16.9014 57.4766 15.2549V9.33691H55.7305Z" fill="#3F3F41"/>
<path d="M19.7148 4.44922C19.7148 8.69677 15.4616 12.9492 11.2148 12.9492C15.4624 12.9492 19.7148 17.2024 19.7148 21.4492C19.7148 17.202 23.968 12.9496 28.2148 12.9496C23.9673 12.9492 19.7148 8.69677 19.7148 4.44922Z" fill="#3F3F41"/>
<defs>
<filter id="filter0_d_2472_1026" x="0.214844" y="0.298828" width="80" height="34" filterUnits="userSpaceOnUse" color-interpolation-filters="sRGB">
<feFlood flood-opacity="0" result="BackgroundImageFix"/>
<feColorMatrix in="SourceAlpha" type="matrix" values="0 0 0 0 0 0 0 0 0 0 0 0 0 0 0 0 0 0 127 0" result="hardAlpha"/>
<feOffset dy="4"/>
<feGaussianBlur stdDeviation="2"/>
<feComposite in2="hardAlpha" operator="out"/>
<feColorMatrix type="matrix" values="0 0 0 0 0 0 0 0 0 0 0 0 0 0 0 0 0 0 0.25 0"/>
<feBlend mode="normal" in2="BackgroundImageFix" result="effect1_dropShadow_2472_1026"/>
<feBlend mode="normal" in="SourceGraphic" in2="effect1_dropShadow_2472_1026" result="shape"/>
</filter>
</defs>
</svg>
