<svg width="81" height="34" viewBox="0 0 81 34" fill="none" xmlns="http://www.w3.org/2000/svg">
<g filter="url(#filter0_d_2502_1097)">
<path d="M4.08594 13C4.08594 5.8203 9.90624 0 17.0859 0H63.0859C70.2656 0 76.0859 5.8203 76.0859 13V13C76.0859 20.1797 70.2656 26 63.0859 26H17.0859C9.90624 26 4.08594 20.1797 4.08594 13V13Z" fill="#A6DDFF"/>
</g>
<path d="M36.582 9.03809H34.8242V17.5225H36.582V9.03809ZM42.6172 11.4639H44.3047C44.2812 9.96387 43.0449 8.9209 41.1641 8.9209C39.3066 8.9209 37.9473 9.94629 37.9531 11.4873C37.9531 12.7295 38.832 13.4443 40.2617 13.7959L41.1875 14.0186C42.1133 14.2471 42.6406 14.5166 42.6406 15.0967C42.6406 15.7295 42.043 16.1631 41.1172 16.1631C40.1797 16.1631 39.5 15.7295 39.4414 14.874H37.7305C37.7832 16.6963 39.0898 17.6455 41.1406 17.6396C43.209 17.6455 44.416 16.6494 44.4219 15.0967C44.416 13.6846 43.332 12.9463 41.8789 12.6123L41.1172 12.4248C40.3848 12.2607 39.752 11.9854 39.7578 11.3701C39.7637 10.8076 40.2617 10.3975 41.1523 10.3975C42.0137 10.3975 42.5469 10.79 42.6172 11.4639ZM45.2422 10.4912H47.8438V17.5225H49.5898V10.4912H52.1914V9.03809H45.2422V10.4912ZM55.6016 9.03809V14.9561C55.6016 15.7881 55.2324 16.2217 54.5586 16.2217C53.9258 16.2217 53.5156 15.8291 53.5039 15.1553H51.7461C51.7402 16.8311 52.9414 17.6396 54.4766 17.6396C56.1816 17.6396 57.3477 16.6025 57.3477 14.9561V9.03809H55.6016Z" fill="#3F3F41"/>
<path d="M19.5859 4.15039C19.5859 8.39794 15.3327 12.6504 11.0859 12.6504C15.3335 12.6504 19.5859 16.9036 19.5859 21.1504C19.5859 16.9032 23.8391 12.6508 28.0859 12.6508C23.8384 12.6504 19.5859 8.39794 19.5859 4.15039Z" fill="#3F3F41"/>
<defs>
<filter id="filter0_d_2502_1097" x="0.0859375" y="0" width="80" height="34" filterUnits="userSpaceOnUse" color-interpolation-filters="sRGB">
<feFlood flood-opacity="0" result="BackgroundImageFix"/>
<feColorMatrix in="SourceAlpha" type="matrix" values="0 0 0 0 0 0 0 0 0 0 0 0 0 0 0 0 0 0 127 0" result="hardAlpha"/>
<feOffset dy="4"/>
<feGaussianBlur stdDeviation="2"/>
<feComposite in2="hardAlpha" operator="out"/>
<feColorMatrix type="matrix" values="0 0 0 0 0 0 0 0 0 0 0 0 0 0 0 0 0 0 0.25 0"/>
<feBlend mode="normal" in2="BackgroundImageFix" result="effect1_dropShadow_2502_1097"/>
<feBlend mode="normal" in="SourceGraphic" in2="effect1_dropShadow_2502_1097" result="shape"/>
</filter>
</defs>
</svg>
