<svg width="81" height="34" viewBox="0 0 81 34" fill="none" xmlns="http://www.w3.org/2000/svg">
<g filter="url(#filter0_d_2502_1137)">
<path d="M4.30078 13C4.30078 5.8203 10.1211 0 17.3008 0H63.3008C70.4805 0 76.3008 5.8203 76.3008 13V13C76.3008 20.1797 70.4805 26 63.3008 26H17.3008C10.1211 26 4.30078 20.1797 4.30078 13V13Z" fill="#FFEB0F"/>
</g>
<path d="M35.8066 9.03809H34.0488V17.5225H35.8066V9.03809ZM41.8418 11.4639H43.5293C43.5059 9.96387 42.2695 8.9209 40.3887 8.9209C38.5312 8.9209 37.1719 9.94629 37.1777 11.4873C37.1777 12.7295 38.0566 13.4443 39.4863 13.7959L40.4121 14.0186C41.3379 14.2471 41.8652 14.5166 41.8652 15.0967C41.8652 15.7295 41.2676 16.1631 40.3418 16.1631C39.4043 16.1631 38.7246 15.7295 38.666 14.874H36.9551C37.0078 16.6963 38.3145 17.6455 40.3652 17.6396C42.4336 17.6455 43.6406 16.6494 43.6465 15.0967C43.6406 13.6846 42.5566 12.9463 41.1035 12.6123L40.3418 12.4248C39.6094 12.2607 38.9766 11.9854 38.9824 11.3701C38.9883 10.8076 39.4863 10.3975 40.377 10.3975C41.2383 10.3975 41.7715 10.79 41.8418 11.4639ZM44.4668 10.4912H47.0684V17.5225H48.8145V10.4912H51.416V9.03809H44.4668V10.4912ZM52.5059 17.5225H54.2637V14.7568H55.7871C57.7441 14.7568 58.8691 13.5908 58.8691 11.8975C58.8691 10.2275 57.7617 9.03809 55.834 9.03809H52.5059V17.5225ZM54.2637 13.3389V10.4795H55.5059C56.5488 10.4854 57.0586 11.0537 57.0527 11.8975C57.0586 12.7529 56.5488 13.3389 55.5059 13.3389H54.2637Z" fill="#3F3F41"/>
<path d="M19.8008 4.15039C19.8008 8.39794 15.5476 12.6504 11.3008 12.6504C15.5483 12.6504 19.8008 16.9036 19.8008 21.1504C19.8008 16.9032 24.054 12.6508 28.3008 12.6508C24.0532 12.6504 19.8008 8.39794 19.8008 4.15039Z" fill="#3F3F41"/>
<defs>
<filter id="filter0_d_2502_1137" x="0.300781" y="0" width="80" height="34" filterUnits="userSpaceOnUse" color-interpolation-filters="sRGB">
<feFlood flood-opacity="0" result="BackgroundImageFix"/>
<feColorMatrix in="SourceAlpha" type="matrix" values="0 0 0 0 0 0 0 0 0 0 0 0 0 0 0 0 0 0 127 0" result="hardAlpha"/>
<feOffset dy="4"/>
<feGaussianBlur stdDeviation="2"/>
<feComposite in2="hardAlpha" operator="out"/>
<feColorMatrix type="matrix" values="0 0 0 0 0 0 0 0 0 0 0 0 0 0 0 0 0 0 0.25 0"/>
<feBlend mode="normal" in2="BackgroundImageFix" result="effect1_dropShadow_2502_1137"/>
<feBlend mode="normal" in="SourceGraphic" in2="effect1_dropShadow_2502_1137" result="shape"/>
</filter>
</defs>
</svg>
