<svg width="81" height="35" viewBox="0 0 81 35" fill="none" xmlns="http://www.w3.org/2000/svg">
<g filter="url(#filter0_d_2475_1213)">
<path d="M4.42969 13.2988C4.42969 6.11913 10.25 0.298828 17.4297 0.298828H63.4297C70.6094 0.298828 76.4297 6.11913 76.4297 13.2988C76.4297 20.4785 70.6094 26.2988 63.4297 26.2988H17.4297C10.25 26.2988 4.42969 20.4785 4.42969 13.2988Z" fill="#FFEB0F"/>
</g>
<path d="M35.9355 9.33691H34.1777V17.8213H35.9355V9.33691ZM41.9707 11.7627H43.6582C43.6348 10.2627 42.3984 9.21973 40.5176 9.21973C38.6602 9.21973 37.3008 10.2451 37.3066 11.7861C37.3066 13.0283 38.1855 13.7432 39.6152 14.0947L40.541 14.3174C41.4668 14.5459 41.9941 14.8154 41.9941 15.3955C41.9941 16.0283 41.3965 16.4619 40.4707 16.4619C39.5332 16.4619 38.8535 16.0283 38.7949 15.1729H37.084C37.1367 16.9951 38.4434 17.9443 40.4941 17.9385C42.5625 17.9443 43.7695 16.9482 43.7754 15.3955C43.7695 13.9834 42.6855 13.2451 41.2324 12.9111L40.4707 12.7236C39.7383 12.5596 39.1055 12.2842 39.1113 11.6689C39.1172 11.1064 39.6152 10.6963 40.5059 10.6963C41.3672 10.6963 41.9004 11.0889 41.9707 11.7627ZM44.5957 10.79H47.1973V17.8213H48.9434V10.79H51.5449V9.33691H44.5957V10.79ZM52.6348 17.8213H54.3926V15.0557H55.916C57.873 15.0557 58.998 13.8896 58.998 12.1963C58.998 10.5264 57.8906 9.33691 55.9629 9.33691H52.6348V17.8213ZM54.3926 13.6377V10.7783H55.6348C56.6777 10.7842 57.1875 11.3525 57.1816 12.1963C57.1875 13.0518 56.6777 13.6377 55.6348 13.6377H54.3926Z" fill="#3F3F41"/>
<path d="M19.9297 4.44922C19.9297 8.69677 15.6765 12.9492 11.4297 12.9492C15.6772 12.9492 19.9297 17.2024 19.9297 21.4492C19.9297 17.202 24.1829 12.9496 28.4297 12.9496C24.1821 12.9492 19.9297 8.69677 19.9297 4.44922Z" fill="#3F3F41"/>
<defs>
<filter id="filter0_d_2475_1213" x="0.429688" y="0.298828" width="80" height="34" filterUnits="userSpaceOnUse" color-interpolation-filters="sRGB">
<feFlood flood-opacity="0" result="BackgroundImageFix"/>
<feColorMatrix in="SourceAlpha" type="matrix" values="0 0 0 0 0 0 0 0 0 0 0 0 0 0 0 0 0 0 127 0" result="hardAlpha"/>
<feOffset dy="4"/>
<feGaussianBlur stdDeviation="2"/>
<feComposite in2="hardAlpha" operator="out"/>
<feColorMatrix type="matrix" values="0 0 0 0 0 0 0 0 0 0 0 0 0 0 0 0 0 0 0.25 0"/>
<feBlend mode="normal" in2="BackgroundImageFix" result="effect1_dropShadow_2475_1213"/>
<feBlend mode="normal" in="SourceGraphic" in2="effect1_dropShadow_2475_1213" result="shape"/>
</filter>
</defs>
</svg>
