<svg width="31" height="31" viewBox="0 0 31 31" fill="none" xmlns="http://www.w3.org/2000/svg">
<g clip-path="url(#clip0_526_1006)">
<path d="M12.761 12.7611C9.27494 4.62031 4.62019 9.27506 12.761 12.7611V12.7611Z" fill="#83B069"/>
<path d="M12.761 18.2363C4.62019 21.7224 9.27494 26.38 12.761 18.2363V18.2363Z" fill="#83B069"/>
<path d="M18.2361 18.2363C21.7221 26.38 26.3797 21.7224 18.2361 18.2363V18.2363Z" fill="#83B069"/>
<path d="M31 15.4986C25.332 15.4986 20.9708 15.0063 17.6575 14.2751C17.8446 13.7282 18.0404 13.2244 18.2333 12.761C17.7727 12.9529 17.268 13.1448 16.7191 13.3367C15.9937 10.0263 15.4986 5.66515 15.4986 0C15.4986 5.66515 15.0063 10.0263 14.2751 13.3425C13.7282 13.1506 13.2235 12.9586 12.761 12.7667C12.9529 13.2292 13.1448 13.734 13.3367 14.2809C10.0263 15.0063 5.66515 15.4986 0 15.4986C5.66515 15.4986 10.0263 15.9937 13.3425 16.722C13.1506 17.2708 12.9586 17.7756 12.7667 18.2361C13.2302 18.0404 13.734 17.8446 14.2809 17.6604C15.0121 20.9737 15.5043 25.3348 15.5043 31.0029C15.5043 25.3348 15.9994 20.9737 16.7277 17.6604C17.2776 17.8475 17.7813 18.0433 18.2419 18.2361C18.0462 17.7756 17.8504 17.2718 17.6662 16.722C20.9708 15.9937 25.332 15.4986 31 15.4986Z" fill="#83B069"/>
<path d="M18.2361 12.7611C26.3797 9.27506 21.7221 4.62031 18.2361 12.7611V12.7611Z" fill="#83B069"/>
</g>
<defs>
<clipPath id="clip0_526_1006">
<rect width="31" height="31" fill="white"/>
</clipPath>
</defs>
</svg>
