<svg width="31" height="31" viewBox="0 0 31 31" fill="none" xmlns="http://www.w3.org/2000/svg">
<path d="M21.5938 1.46192C16.6862 3.31301 15.4594 11.8833 15.4594 15.937C26.9211 14.9146 29.2887 11.5784 30.1497 9.10317C31.4225 5.44412 27.7282 -0.851942 21.5938 1.46192Z" fill="#DB45FF"/>
<path d="M0.998055 9.78647C2.84915 14.694 11.4194 15.9209 15.4732 15.9209C14.4507 4.4592 11.1145 2.09154 8.63931 1.23055C4.98025 -0.0422203 -1.31581 3.65204 0.998055 9.78647Z" fill="#DB45FF"/>
<path d="M9.32266 30.3584C14.2302 28.5073 15.4571 19.937 15.4571 15.8833C3.99539 16.9057 1.62773 20.2419 0.766744 22.7171C-0.506027 26.3762 3.18823 32.6723 9.32266 30.3584Z" fill="#DB45FF"/>
<path d="M29.9183 22.0338C28.0672 17.1263 19.4969 15.8994 15.4432 15.8994C16.4656 27.3611 19.8018 29.7288 22.277 30.5898C25.9361 31.8625 32.2321 28.1683 29.9183 22.0338Z" fill="#DB45FF"/>
</svg>
