<svg width="30" height="29" viewBox="0 0 30 29" fill="none" xmlns="http://www.w3.org/2000/svg">
<path d="M30 14.3382C30 15.8449 27.7479 16.9774 27.3062 18.3369C26.8486 19.7452 27.9895 21.9832 27.1356 23.1528C26.2734 24.3375 23.7881 23.9399 22.6032 24.804C21.43 25.6571 21.0454 28.1483 19.6362 28.6059C18.2766 29.0476 16.5069 27.2725 15 27.2725C13.4931 27.2725 11.7234 29.0476 10.3638 28.6059C8.95459 28.1483 8.56995 25.6571 7.39679 24.804C6.21193 23.9419 3.72661 24.3396 2.86445 23.1528C2.01055 21.9832 3.15138 19.7431 2.69381 18.3369C2.25206 16.9774 0 15.8449 0 14.3382C0 12.8315 2.25206 11.6991 2.69381 10.3396C3.15138 8.93129 2.01055 6.69324 2.86445 5.52365C3.72661 4.33892 6.21193 4.73659 7.39679 3.87246C8.56995 3.01935 8.95459 0.528123 10.3638 0.0706069C11.7234 -0.371086 13.4931 1.40394 15 1.40394C16.5069 1.40394 18.2766 -0.371086 19.6362 0.0706069C21.0454 0.528123 21.43 3.01935 22.6032 3.87246C23.7881 4.73452 26.2734 4.33686 27.1356 5.52365C27.9895 6.69324 26.8486 8.93335 27.3062 10.3396C27.7479 11.6991 30 12.8315 30 14.3382Z" fill="#FFFF56"/>
</svg>
