<svg width="32" height="28" viewBox="0 0 32 28" fill="none" xmlns="http://www.w3.org/2000/svg">
<path d="M20.1076 1.05498C17.8 2.47997 16.7342 2.73993 16.1476 2.73993C15.512 2.73993 14.368 2.71105 11.7475 1.05498C8.47198 -1.01511 6.76086 0.140288 6.76086 3.12507C6.76086 6.10985 7.39643 8.75764 2.99642 10.7314C-1.40359 12.7052 -0.572474 15.4012 2.99642 17.038C6.56532 18.6748 6.85864 19.9746 6.76086 23.7778C6.66309 27.581 8.17865 28.7845 11.8942 26.57C15.6098 24.3555 16.8809 24.7888 19.9609 26.57C23.0409 28.3513 25.192 28.2068 25.192 23.7778C25.192 19.3488 25.3876 18.9637 29.0054 17.038C32.6231 15.1123 33.3565 12.8978 29.0054 10.7314C24.6542 8.56507 25.2409 6.63941 25.1431 3.12507C25.0454 -0.389267 22.992 -0.726259 20.1076 1.05498Z" fill="#F1E685"/>
</svg>
