<svg width="9" height="11" viewBox="0 0 9 11" fill="none" xmlns="http://www.w3.org/2000/svg">
<path d="M4.49984 5.49967C3.904 5.49967 3.4165 5.01217 3.4165 4.41634C3.4165 3.82051 3.904 3.33301 4.49984 3.33301C5.09567 3.33301 5.58317 3.82051 5.58317 4.41634C5.58317 5.01217 5.09567 5.49967 4.49984 5.49967ZM7.74984 4.52467C7.74984 2.55842 6.31442 1.16634 4.49984 1.16634C2.68525 1.16634 1.24984 2.55842 1.24984 4.52467C1.24984 5.79217 2.30609 7.47134 4.49984 9.47551C6.69359 7.47134 7.74984 5.79217 7.74984 4.52467ZM4.49984 0.0830078C6.77484 0.0830078 8.83317 1.82717 8.83317 4.52467C8.83317 6.32301 7.38692 8.45176 4.49984 10.9163C1.61275 8.45176 0.166504 6.32301 0.166504 4.52467C0.166504 1.82717 2.22484 0.0830078 4.49984 0.0830078Z" fill="#9B9B9B"/>
</svg>
