<svg width="42" height="42" viewBox="0 0 42 42" fill="none" xmlns="http://www.w3.org/2000/svg">
<path d="M24.71 8.75L27.9125 12.25H35V33.25H7V12.25H14.0875L17.29 8.75H24.71ZM26.25 5.25H15.75L12.5475 8.75H7C5.075 8.75 3.5 10.325 3.5 12.25V33.25C3.5 35.175 5.075 36.75 7 36.75H35C36.925 36.75 38.5 35.175 38.5 33.25V12.25C38.5 10.325 36.925 8.75 35 8.75H29.4525L26.25 5.25ZM21 17.5C23.8875 17.5 26.25 19.8625 26.25 22.75C26.25 25.6375 23.8875 28 21 28C18.1125 28 15.75 25.6375 15.75 22.75C15.75 19.8625 18.1125 17.5 21 17.5ZM21 14C16.17 14 12.25 17.92 12.25 22.75C12.25 27.58 16.17 31.5 21 31.5C25.83 31.5 29.75 27.58 29.75 22.75C29.75 17.92 25.83 14 21 14Z" fill="#C4C4C4"/>
</svg>
