<svg width="64" height="63" viewBox="0 0 64 63" fill="none" xmlns="http://www.w3.org/2000/svg">
<g clip-path="url(#clip0_1933_779)">
<g filter="url(#filter0_d_1933_779)">
<path d="M31.625 5.25C21.4663 5.25 13.25 13.4663 13.25 23.625C13.25 37.4062 31.625 57.75 31.625 57.75C31.625 57.75 50 37.4062 50 23.625C50 13.4663 41.7838 5.25 31.625 5.25ZM31.625 30.1875C28.0025 30.1875 25.0625 27.2475 25.0625 23.625C25.0625 20.0025 28.0025 17.0625 31.625 17.0625C35.2475 17.0625 38.1875 20.0025 38.1875 23.625C38.1875 27.2475 35.2475 30.1875 31.625 30.1875Z" fill="#3F3F41"/>
</g>
</g>
<defs>
<filter id="filter0_d_1933_779" x="11.25" y="5.25" width="44.75" height="60.5" filterUnits="userSpaceOnUse" color-interpolation-filters="sRGB">
<feFlood flood-opacity="0" result="BackgroundImageFix"/>
<feColorMatrix in="SourceAlpha" type="matrix" values="0 0 0 0 0 0 0 0 0 0 0 0 0 0 0 0 0 0 127 0" result="hardAlpha"/>
<feOffset dx="2" dy="4"/>
<feGaussianBlur stdDeviation="2"/>
<feComposite in2="hardAlpha" operator="out"/>
<feColorMatrix type="matrix" values="0 0 0 0 0 0 0 0 0 0 0 0 0 0 0 0 0 0 0.25 0"/>
<feBlend mode="normal" in2="BackgroundImageFix" result="effect1_dropShadow_1933_779"/>
<feBlend mode="normal" in="SourceGraphic" in2="effect1_dropShadow_1933_779" result="shape"/>
</filter>
<clipPath id="clip0_1933_779">
<rect width="63" height="63" fill="white" transform="translate(0.125)"/>
</clipPath>
</defs>
</svg>
