<svg width="19" height="19" viewBox="0 0 19 19" fill="none" xmlns="http://www.w3.org/2000/svg">
<path d="M13.0625 2.23633C11.685 2.23633 10.363 2.87758 9.50004 3.89091C8.63712 2.87758 7.31504 2.23633 5.93754 2.23633C3.49921 2.23633 1.58337 4.15216 1.58337 6.5905C1.58337 9.58299 4.27504 12.0213 8.35212 15.7263L9.50004 16.7634L10.648 15.7184C14.725 12.0213 17.4167 9.58299 17.4167 6.5905C17.4167 4.15216 15.5009 2.23633 13.0625 2.23633ZM9.57921 14.5467L9.50004 14.6259L9.42087 14.5467C5.65254 11.1347 3.16671 8.87841 3.16671 6.5905C3.16671 5.00716 4.35421 3.81966 5.93754 3.81966C7.15671 3.81966 8.34421 4.60341 8.76379 5.68799H10.2442C10.6559 4.60341 11.8434 3.81966 13.0625 3.81966C14.6459 3.81966 15.8334 5.00716 15.8334 6.5905C15.8334 8.87841 13.3475 11.1347 9.57921 14.5467Z" fill="#3F3F41"/>
</svg>
