<svg width="26" height="26" viewBox="0 0 26 26" fill="none" xmlns="http://www.w3.org/2000/svg">
<rect width="24.2299" height="24.2299" transform="translate(0.885057 0.884766)" fill="#3F3F41"/>
<path d="M17.8561 8.90101L14.0702 5.11509L4.92337 14.2619V18.0478H8.70929L17.8561 8.90101ZM6.94253 16.0286V15.0998L14.0702 7.97219L14.999 8.90101L7.87134 16.0286H6.94253Z" fill="white"/>
<path d="M20.7838 5.97323C21.1776 5.57949 21.1776 4.94346 20.7838 4.54972L18.4214 2.18731C18.2195 1.98539 17.9671 1.89453 17.7046 1.89453C17.4522 1.89453 17.1897 1.99549 16.9979 2.18731L15.1504 4.03484L18.9363 7.82076L20.7838 5.97323Z" fill="white"/>
<path d="M23.0958 20.0669H2.90421V24.1053H23.0958V20.0669Z" fill="white"/>
</svg>
