<svg width="64" height="64" viewBox="0 0 64 64" fill="none" xmlns="http://www.w3.org/2000/svg">
<g clip-path="url(#clip0_1933_781)">
<g filter="url(#filter0_d_1933_781)">
<path d="M32 5.75C21.8413 5.75 13.625 13.9663 13.625 24.125C13.625 37.9062 32 58.25 32 58.25C32 58.25 50.375 37.9062 50.375 24.125C50.375 13.9663 42.1588 5.75 32 5.75ZM32 30.6875C28.3775 30.6875 25.4375 27.7475 25.4375 24.125C25.4375 20.5025 28.3775 17.5625 32 17.5625C35.6225 17.5625 38.5625 20.5025 38.5625 24.125C38.5625 27.7475 35.6225 30.6875 32 30.6875Z" fill="#DB45FF"/>
</g>
</g>
<defs>
<filter id="filter0_d_1933_781" x="11.625" y="5.75" width="44.75" height="60.5" filterUnits="userSpaceOnUse" color-interpolation-filters="sRGB">
<feFlood flood-opacity="0" result="BackgroundImageFix"/>
<feColorMatrix in="SourceAlpha" type="matrix" values="0 0 0 0 0 0 0 0 0 0 0 0 0 0 0 0 0 0 127 0" result="hardAlpha"/>
<feOffset dx="2" dy="4"/>
<feGaussianBlur stdDeviation="2"/>
<feComposite in2="hardAlpha" operator="out"/>
<feColorMatrix type="matrix" values="0 0 0 0 0 0 0 0 0 0 0 0 0 0 0 0 0 0 0.25 0"/>
<feBlend mode="normal" in2="BackgroundImageFix" result="effect1_dropShadow_1933_781"/>
<feBlend mode="normal" in="SourceGraphic" in2="effect1_dropShadow_1933_781" result="shape"/>
</filter>
<clipPath id="clip0_1933_781">
<rect width="63" height="63" fill="white" transform="translate(0.5 0.5)"/>
</clipPath>
</defs>
</svg>
