<svg width="31" height="31" viewBox="0 0 31 31" fill="none" xmlns="http://www.w3.org/2000/svg">
<path d="M20.3502 18.4124H19.3298L18.9681 18.0637C20.2339 16.5912 20.996 14.6795 20.996 12.5999C20.996 7.96285 17.2373 4.2041 12.6002 4.2041C7.9631 4.2041 4.20435 7.96285 4.20435 12.5999C4.20435 17.237 7.9631 20.9958 12.6002 20.9958C14.6798 20.9958 16.5914 20.2337 18.0639 18.9679L18.4127 19.3295V20.3499L24.871 26.7954L26.7956 24.8708L20.3502 18.4124ZM12.6002 18.4124C9.38393 18.4124 6.78768 15.8162 6.78768 12.5999C6.78768 9.38369 9.38393 6.78744 12.6002 6.78744C15.8164 6.78744 18.4127 9.38369 18.4127 12.5999C18.4127 15.8162 15.8164 18.4124 12.6002 18.4124Z" fill="#3F3F41"/>
</svg>
