<svg width="65" height="91" viewBox="0 0 65 91" fill="none" xmlns="http://www.w3.org/2000/svg">
<path fill-rule="evenodd" clip-rule="evenodd" d="M9 0C4.02944 0 0 4.02944 0 9V18C0 22.9706 4.02944 27 9 27H12.375L18.5 34V27H54C58.9706 27 63 22.9706 63 18V9C63 4.02944 58.9706 0 54 0H9Z" fill="#2D2D2D" fill-opacity="0.8"/>
<g clip-path="url(#clip0_2278_878)">
<g filter="url(#filter0_d_2278_878)">
<path d="M32.625 33.25C22.4663 33.25 14.25 41.4663 14.25 51.625C14.25 65.4063 32.625 85.75 32.625 85.75C32.625 85.75 51 65.4063 51 51.625C51 41.4663 42.7837 33.25 32.625 33.25ZM32.625 58.1875C29.0025 58.1875 26.0625 55.2475 26.0625 51.625C26.0625 48.0025 29.0025 45.0625 32.625 45.0625C36.2475 45.0625 39.1875 48.0025 39.1875 51.625C39.1875 55.2475 36.2475 58.1875 32.625 58.1875Z" fill="#3F3F41"/>
</g>
</g>
<g filter="url(#filter1_d_2278_878)">
<path d="M23.7363 12.0942C23.666 11.6294 23.4648 11.2622 23.1328 10.9927C22.8008 10.7231 22.3848 10.5864 21.8848 10.5825C21.4434 10.5864 21.0566 10.6978 20.7246 10.9165C20.3965 11.1353 20.1426 11.4556 19.9629 11.8774C19.7832 12.2954 19.6934 12.7974 19.6934 13.3833C19.6934 13.981 19.7832 14.4888 19.9629 14.9067C20.1465 15.3247 20.4004 15.6411 20.7246 15.856C21.0527 16.0708 21.4355 16.1802 21.873 16.1841C22.3613 16.1802 22.7734 16.0513 23.1094 15.7974C23.4453 15.5396 23.6543 15.1841 23.7363 14.731L25.5176 14.7427C25.4512 15.2778 25.2617 15.7739 24.9492 16.231C24.6367 16.688 24.2148 17.0552 23.6836 17.3325C23.1523 17.606 22.541 17.7427 21.8496 17.7427C21.0879 17.7427 20.4082 17.5708 19.8105 17.2271C19.2168 16.8794 18.75 16.3774 18.4102 15.7212C18.0703 15.061 17.9004 14.2817 17.9004 13.3833C17.9004 12.481 18.0703 11.7017 18.4102 11.0454C18.7539 10.3892 19.2246 9.88916 19.8223 9.54541C20.4199 9.19775 21.0957 9.02393 21.8496 9.02393C22.502 9.02393 23.0918 9.14502 23.6191 9.38721C24.1465 9.62939 24.5742 9.98096 24.9023 10.4419C25.2344 10.9028 25.4395 11.4536 25.5176 12.0942H23.7363ZM28.4473 17.6255H26.7129V9.14111H28.4473V17.6255ZM29.7949 11.2622H31.5293V17.6255H29.7949V11.2622ZM30.6621 10.4302C30.4902 10.4302 30.332 10.3911 30.1875 10.313C30.043 10.231 29.9277 10.1235 29.8418 9.99072C29.7559 9.854 29.7129 9.70752 29.7129 9.55127C29.7129 9.39111 29.7559 9.24268 29.8418 9.10596C29.9277 8.96924 30.043 8.86182 30.1875 8.78369C30.332 8.70166 30.4902 8.66064 30.6621 8.66064C30.8301 8.66064 30.9863 8.70166 31.1309 8.78369C31.2754 8.86182 31.3887 8.96924 31.4707 9.10596C31.5566 9.24268 31.5996 9.39111 31.5996 9.55127C31.5996 9.70752 31.5566 9.854 31.4707 9.99072C31.3887 10.1235 31.2754 10.231 31.1309 10.313C30.9863 10.3911 30.8301 10.4302 30.6621 10.4302ZM35.7363 17.7544C35.0957 17.7544 34.5391 17.6157 34.0664 17.3384C33.5977 17.061 33.2383 16.6743 32.9883 16.1782C32.7422 15.6782 32.6191 15.106 32.6191 14.4614C32.6191 13.8169 32.7441 13.2466 32.9941 12.7505C33.248 12.2544 33.6094 11.8696 34.0781 11.5962C34.5508 11.3188 35.1035 11.1802 35.7363 11.1802C36.2793 11.1802 36.7598 11.2798 37.1777 11.479C37.5957 11.6782 37.9238 11.9614 38.1621 12.3286C38.4043 12.6919 38.5371 13.1138 38.5605 13.5942H36.9316C36.877 13.27 36.748 13.0122 36.5449 12.8208C36.3418 12.6294 36.0801 12.5317 35.7598 12.5278C35.4824 12.5317 35.2383 12.6099 35.0273 12.7622C34.8203 12.9106 34.6602 13.1294 34.5469 13.4185C34.4336 13.7036 34.377 14.0435 34.377 14.438C34.377 14.8442 34.4336 15.1919 34.5469 15.481C34.6602 15.77 34.8203 15.9907 35.0273 16.1431C35.2344 16.2954 35.4785 16.3716 35.7598 16.3716C36.0684 16.3716 36.3262 16.2798 36.5332 16.0962C36.7441 15.9087 36.877 15.6489 36.9316 15.3169H38.5605C38.5371 15.7974 38.4062 16.2212 38.168 16.5884C37.9336 16.9556 37.6074 17.2427 37.1895 17.4497C36.7754 17.6528 36.291 17.7544 35.7363 17.7544ZM39.6387 9.14111H41.373V13.6997H41.4668L43.5293 11.2622H45.5215L43.1484 14.0161L45.6504 17.6255H43.6113L41.8594 15.0356L41.373 15.5864V17.6255H39.6387V9.14111Z" fill="white"/>
</g>
<defs>
<filter id="filter0_d_2278_878" x="12.25" y="33.25" width="44.75" height="60.5" filterUnits="userSpaceOnUse" color-interpolation-filters="sRGB">
<feFlood flood-opacity="0" result="BackgroundImageFix"/>
<feColorMatrix in="SourceAlpha" type="matrix" values="0 0 0 0 0 0 0 0 0 0 0 0 0 0 0 0 0 0 127 0" result="hardAlpha"/>
<feOffset dx="2" dy="4"/>
<feGaussianBlur stdDeviation="2"/>
<feComposite in2="hardAlpha" operator="out"/>
<feColorMatrix type="matrix" values="0 0 0 0 0 0 0 0 0 0 0 0 0 0 0 0 0 0 0.25 0"/>
<feBlend mode="normal" in2="BackgroundImageFix" result="effect1_dropShadow_2278_878"/>
<feBlend mode="normal" in="SourceGraphic" in2="effect1_dropShadow_2278_878" result="shape"/>
</filter>
<filter id="filter1_d_2278_878" x="14.9004" y="5.66064" width="35.75" height="17.0938" filterUnits="userSpaceOnUse" color-interpolation-filters="sRGB">
<feFlood flood-opacity="0" result="BackgroundImageFix"/>
<feColorMatrix in="SourceAlpha" type="matrix" values="0 0 0 0 0 0 0 0 0 0 0 0 0 0 0 0 0 0 127 0" result="hardAlpha"/>
<feOffset dx="1" dy="1"/>
<feGaussianBlur stdDeviation="2"/>
<feComposite in2="hardAlpha" operator="out"/>
<feColorMatrix type="matrix" values="0 0 0 0 0 0 0 0 0 0 0 0 0 0 0 0 0 0 0.25 0"/>
<feBlend mode="normal" in2="BackgroundImageFix" result="effect1_dropShadow_2278_878"/>
<feBlend mode="normal" in="SourceGraphic" in2="effect1_dropShadow_2278_878" result="shape"/>
</filter>
<clipPath id="clip0_2278_878">
<rect width="63" height="63" fill="white" transform="translate(1.125 28)"/>
</clipPath>
</defs>
</svg>
