<svg width="12" height="17" viewBox="0 0 12 17" fill="none" xmlns="http://www.w3.org/2000/svg">
<path d="M6 8.60407C5.175 8.60407 4.5 7.91571 4.5 7.07437C4.5 6.23304 5.175 5.54467 6 5.54467C6.825 5.54467 7.5 6.23304 7.5 7.07437C7.5 7.91571 6.825 8.60407 6 8.60407ZM10.5 7.22734C10.5 4.45093 8.5125 2.48527 6 2.48527C3.4875 2.48527 1.5 4.45093 1.5 7.22734C1.5 9.01709 2.9625 11.3881 6 14.2181C9.0375 11.3881 10.5 9.01709 10.5 7.22734ZM6 0.955566C9.15 0.955566 12 3.41839 12 7.22734C12 9.76665 9.9975 12.7725 6 16.2526C2.0025 12.7725 0 9.76665 0 7.22734C0 3.41839 2.85 0.955566 6 0.955566Z" fill="#E0E0E0"/>
</svg>
