<svg width="13" height="13" viewBox="0 0 13 13" fill="none" xmlns="http://www.w3.org/2000/svg">
<path d="M6.50008 6.50016C5.90425 6.50016 5.41675 6.01266 5.41675 5.41683C5.41675 4.821 5.90425 4.3335 6.50008 4.3335C7.09591 4.3335 7.58341 4.821 7.58341 5.41683C7.58341 6.01266 7.09591 6.50016 6.50008 6.50016ZM9.75008 5.52516C9.75008 3.55891 8.31466 2.16683 6.50008 2.16683C4.6855 2.16683 3.25008 3.55891 3.25008 5.52516C3.25008 6.79266 4.30633 8.47183 6.50008 10.476C8.69383 8.47183 9.75008 6.79266 9.75008 5.52516ZM6.50008 1.0835C8.77508 1.0835 10.8334 2.82766 10.8334 5.52516C10.8334 7.3235 9.38716 9.45225 6.50008 11.9168C3.613 9.45225 2.16675 7.3235 2.16675 5.52516C2.16675 2.82766 4.22508 1.0835 6.50008 1.0835Z" fill="#9B9B9B"/>
</svg>
