<svg width="31" height="31" viewBox="0 0 31 31" fill="none" xmlns="http://www.w3.org/2000/svg">
<path d="M15.5 3.875L1.29167 14.725L2.85459 16.7787L5.16667 15.0092V27.125H25.8333V15.0092L28.1454 16.7658L29.7083 14.725L15.5 3.875ZM10.3333 19.375C9.62292 19.375 9.04167 18.7937 9.04167 18.0833C9.04167 17.3729 9.62292 16.7917 10.3333 16.7917C11.0438 16.7917 11.625 17.3729 11.625 18.0833C11.625 18.7937 11.0438 19.375 10.3333 19.375ZM15.5 19.375C14.7896 19.375 14.2083 18.7937 14.2083 18.0833C14.2083 17.3729 14.7896 16.7917 15.5 16.7917C16.2104 16.7917 16.7917 17.3729 16.7917 18.0833C16.7917 18.7937 16.2104 19.375 15.5 19.375ZM20.6667 19.375C19.9563 19.375 19.375 18.7937 19.375 18.0833C19.375 17.3729 19.9563 16.7917 20.6667 16.7917C21.3771 16.7917 21.9583 17.3729 21.9583 18.0833C21.9583 18.7937 21.3771 19.375 20.6667 19.375Z" fill="white"/>
</svg>
