<svg width="31" height="31" viewBox="0 0 31 31" fill="none" xmlns="http://www.w3.org/2000/svg">
<path d="M28.4167 7.583C28.4167 4.82158 26.1781 2.58301 23.4167 2.58301H7.58334C4.82192 2.58301 2.58334 4.82158 2.58334 7.58301V26.0021C2.58334 26.893 3.66048 27.3392 4.29044 26.7092L6.28554 24.7141C7.22322 23.7765 8.49499 23.2497 9.82107 23.2497H23.4167C26.1781 23.2497 28.4167 21.0111 28.4167 18.2497V7.583ZM11.625 12.9163C11.625 13.6297 11.0467 14.208 10.3333 14.208C9.61997 14.208 9.04167 13.6297 9.04167 12.9163C9.04167 12.203 9.61997 11.6247 10.3333 11.6247C11.0467 11.6247 11.625 12.203 11.625 12.9163ZM16.7917 12.9163C16.7917 13.6297 16.2134 14.208 15.5 14.208C14.7866 14.208 14.2083 13.6297 14.2083 12.9163C14.2083 12.203 14.7866 11.6247 15.5 11.6247C16.2134 11.6247 16.7917 12.203 16.7917 12.9163ZM21.9583 12.9163C21.9583 13.6297 21.38 14.208 20.6667 14.208C19.9533 14.208 19.375 13.6297 19.375 12.9163C19.375 12.203 19.9533 11.6247 20.6667 11.6247C21.38 11.6247 21.9583 12.203 21.9583 12.9163Z" fill="white"/>
</svg>
