<svg width="375" height="642" viewBox="0 0 375 642" fill="none" xmlns="http://www.w3.org/2000/svg">
<path d="M133.066 259.008C143.529 265.651 146.724 269.514 147.895 271.926C149.163 274.538 151.327 279.299 149.747 293.376C147.773 310.973 155.937 315.702 168.208 309.746C180.478 303.791 190.095 295.895 206.989 310.045C223.883 324.195 233.308 315.399 232.916 297.461C232.524 279.524 237.282 275.724 253.113 268.537C268.943 261.351 270.867 252.719 254.349 241.863C237.831 231.006 237.076 224.916 238.253 208.7C239.43 192.483 234.544 183.928 216.336 192.766C198.128 201.603 196.155 201.568 181.02 190.537C165.884 179.506 155.317 180.91 155.093 203.12C154.869 225.331 145.782 226.761 131.529 234.176C117.276 241.59 119.988 250.704 133.066 259.008Z" fill="#FFF38A" fill-opacity="0.6"/>
<path d="M260.39 295.867C273.401 288.321 291.733 297.439 299.273 302.942C338.155 280.267 349.185 302.942 348.998 315.458C348.848 325.471 341.707 336.44 338.155 340.673C348.437 353.189 355.54 375.683 339.09 385.842C325.93 393.968 307.062 384.511 299.273 378.767C271.793 396.726 255.904 387.474 251.043 373.688C247.155 362.659 255.655 347.082 260.39 340.673C249.174 325.798 244.127 305.3 260.39 295.867Z" fill="#FEC9D3" fill-opacity="0.5"/>
<path d="M106.644 333.847C110.074 331.866 115.612 335.505 119.288 334.724C123.096 333.914 126.692 328.375 130.477 328.782C134.307 329.188 136.669 335.369 140.194 336.93C143.678 338.48 149.855 336.081 152.749 338.688C155.542 341.203 153.827 347.565 155.808 350.996C157.788 354.426 164.156 356.122 164.937 359.798C165.748 363.608 160.582 367.758 160.182 371.551C159.776 375.381 163.949 380.517 162.38 384.04C160.839 387.521 154.24 387.868 151.64 390.758C149.125 393.551 149.507 400.167 146.077 402.147C142.647 404.128 137.108 400.489 133.433 401.27C129.625 402.08 126.029 407.619 122.244 407.212C118.413 406.807 116.052 400.626 112.527 399.064C109.043 397.514 102.865 399.913 99.9715 397.306C97.1788 394.791 98.8937 388.429 96.913 384.998C94.9323 381.568 88.5649 379.872 87.7834 376.196C86.9727 372.386 92.1389 368.236 92.5391 364.444C92.9443 360.613 88.7721 355.477 90.3408 351.955C91.8812 348.473 98.4807 348.126 101.081 345.236C103.595 342.443 103.213 335.827 106.644 333.847Z" fill="#FEF7BC" fill-opacity="0.5"/>
<path d="M132 129.246C169.15 99.272 171.293 53.2595 167.721 34C197.348 72.6841 243.563 73.9326 262.967 69.7213C225.716 98.7583 223.632 145.317 227.246 164.967C196.945 127.679 151.123 125.616 132 129.246Z" fill="#CD87FA" fill-opacity="0.3"/>
<path d="M285.933 7.07876C278.143 8.33118 273.756 20.5947 272.537 26.57C289.739 28.5104 294.233 24.305 296.246 20.9154C299.223 15.9048 295.671 5.51324 285.933 7.07876Z" fill="#FD97FF" fill-opacity="0.3"/>
<path d="M253.072 13.154C254.324 20.9445 266.588 25.3307 272.563 26.55C274.503 9.34792 270.298 4.85453 266.908 2.84093C261.898 -0.135709 251.506 3.4159 253.072 13.154Z" fill="#FD97FF" fill-opacity="0.3"/>
<path d="M259.155 45.9813C266.945 44.7289 271.331 32.4653 272.551 26.4901C255.348 24.5497 250.855 28.7551 248.841 32.1446C245.865 37.1553 249.416 47.5468 259.155 45.9813Z" fill="#FD97FF" fill-opacity="0.3"/>
<path d="M292.016 39.9055C290.764 32.115 278.5 27.7288 272.525 26.5095C270.585 43.7116 274.79 48.205 278.18 50.2186C283.19 53.1953 293.582 49.6437 292.016 39.9055Z" fill="#FD97FF" fill-opacity="0.3"/>
<path fill-rule="evenodd" clip-rule="evenodd" d="M-8 641.343V356.404L13.399 391.334L60.0462 366.619L62.9939 419.769L115.734 422.564L91.3761 469.871L136.748 498.528L91.6121 526.803L117.499 574.467L63.991 575.994L62.3077 629.602L15.04 604.256L-8 641.343Z" fill="#F7CB16"/>
<path fill-rule="evenodd" clip-rule="evenodd" d="M388 21.5947V271.871C375.233 272.439 361.373 271.149 347.326 267.619C291.689 253.635 309.429 217.953 325.254 201.861C267.785 251.387 242.798 167.733 260.705 108.217C275.031 60.6049 309.707 77.5578 325.254 91.9858C282.758 50.6128 328.244 16.0049 388 21.5947Z" fill="#FF83CA"/>
<path d="M134.591 448.616C134.144 443.243 200.042 395.542 203.791 398.587C209.391 398.603 256.005 462.986 253.824 467.686C254.744 472.739 189.001 520.429 184.689 517.818C179.744 518.972 131.371 452.201 134.591 448.616Z" fill="#D0ED91" fill-opacity="0.5"/>
</svg>
