<svg width="207" height="164" viewBox="0 0 207 164" fill="none" xmlns="http://www.w3.org/2000/svg">
<path d="M8.88682 70.8959L23.5474 83.9339L11.9041 100.285L31.2248 104.055L28.7888 124.039L47.419 117.517L55.1743 136.014L68.2395 120.796L84.1087 132.933L87.7871 112.963L107.505 115.341L101.076 96.3256L119.235 88.2746L104.603 75.0592L116.218 58.8854L96.8975 55.1153L99.5349 34.9817L80.5299 41.6266L72.948 23.1569L59.8829 38.375L44.3326 26.4698L40.5366 46.0572L20.7909 43.8567L26.873 62.8176L8.88682 70.8959Z" fill="#F7CB16"/>
<path d="M75.6924 65.5679C77.1679 69.7982 81.9009 78.3682 89.0284 78.8054" stroke="#3F3F41" stroke-width="3" stroke-linecap="round"/>
<path d="M59.8084 63.0665C56.8331 67.4527 48.7747 75.4646 40.3439 72.4234" stroke="#3F3F41" stroke-width="3" stroke-linecap="round"/>
<ellipse cx="52.0946" cy="79.4145" rx="3.38511" ry="4.65453" transform="rotate(9.94774 52.0946 79.4145)" fill="#3F3F41"/>
<ellipse cx="77.6654" cy="82.8777" rx="3.38511" ry="4.65453" transform="rotate(-5.15159 77.6654 82.8777)" fill="#3F3F41"/>
<path d="M53.9353 100.362C57.299 95.3235 65.4357 88.8089 71.0728 103.061" stroke="#3F3F41" stroke-width="3" stroke-linecap="round"/>
<path d="M156.346 91.2128C151.84 61.1194 127.227 45.1062 115.484 40.8613C146.309 37.0406 161.896 12.0284 165.836 -0.000158956C169.794 29.8465 194.726 46.0036 206.697 50.3513C176.422 54.9926 160.515 79.5262 156.346 91.2128Z" fill="#9B00FF"/>
<path d="M108.448 130.124C106.966 127.427 130.231 87.2345 132.893 87.9504C135.816 86.6563 175.089 109.384 175.045 112.341C176.7 114.761 153.514 154.912 150.659 154.553C148.349 156.305 107.603 132.742 108.448 130.124Z" fill="#D0ED91"/>
<ellipse cx="166.17" cy="40.4475" rx="2.5" ry="3.5" transform="rotate(3.529 166.17 40.4475)" fill="white"/>
<ellipse cx="153.195" cy="39.6472" rx="2.5" ry="3.5" transform="rotate(3.529 153.195 39.6472)" fill="white"/>
<path d="M119.484 120L134.484 116" stroke="#3F3F41" stroke-width="3" stroke-linecap="round"/>
<path d="M123.484 119L125.984 129" stroke="#3F3F41" stroke-width="3" stroke-linecap="round"/>
<path d="M138.776 134.229C139.597 129.889 143.201 123.197 151.046 131.156" stroke="#3F3F41" stroke-width="3" stroke-linecap="round"/>
<path d="M131.484 117L133.984 127" stroke="#3F3F41" stroke-width="3" stroke-linecap="round"/>
<path d="M144.484 113L159.484 109" stroke="#3F3F41" stroke-width="3" stroke-linecap="round"/>
<path d="M148.484 112L150.984 122" stroke="#3F3F41" stroke-width="3" stroke-linecap="round"/>
<path d="M156.484 110L158.984 120" stroke="#3F3F41" stroke-width="3" stroke-linecap="round"/>
<path d="M151.484 51.5076C154.651 50.1743 161.984 48.5076 165.984 52.5076" stroke="white" stroke-width="3" stroke-linecap="round"/>
</svg>
