<svg width="208" height="124" viewBox="0 0 208 124" fill="none" xmlns="http://www.w3.org/2000/svg">
<path d="M31.3018 39.1934C32.2578 39.1934 33.085 38.3877 33.085 37.3887C33.085 36.4004 32.2578 35.5947 31.3018 35.6055C30.292 35.5947 29.4756 36.4004 29.4971 37.3887C29.4756 38.3877 30.292 39.1934 31.3018 39.1934ZM37.5107 39.1934C38.4668 39.1934 39.2939 38.3877 39.2939 37.3887C39.2939 36.4004 38.4668 35.5947 37.5107 35.6055C36.501 35.5947 35.6846 36.4004 35.7061 37.3887C35.6846 38.3877 36.501 39.1934 37.5107 39.1934ZM43.7197 39.1934C44.6758 39.1934 45.5029 38.3877 45.5029 37.3887C45.5029 36.4004 44.6758 35.5947 43.7197 35.6055C42.71 35.5947 41.8936 36.4004 41.915 37.3887C41.8936 38.3877 42.71 39.1934 43.7197 39.1934Z" fill="#3F3F41"/>
<path d="M87.807 43.0874C94.8553 19.5658 111.916 27.9409 119.565 35.0687C95.7978 11.8346 127.966 -7.08085 162.797 2.58276C190.618 10.3012 180.723 27.4061 172.263 35.0319C198.26 11.6634 214.016 44.3388 205.824 78.041C199.268 105.017 180.691 96.8199 172.222 89.3494C196.604 111.966 164.641 130.471 130.424 121.836C103.051 114.927 111.779 97.2997 119.565 89.3494C91.2902 113.817 78.9967 72.4894 87.807 43.0874Z" fill="#FF83CA"/>
<path d="M152 38C154.5 42.6667 161.6 51.8 170 51" stroke="#3F3F41" stroke-width="3" stroke-linecap="round"/>
<path d="M133 38C130.333 43.6667 122.4 54.5 112 52.5" stroke="#3F3F41" stroke-width="3" stroke-linecap="round"/>
<ellipse cx="127" cy="58.5005" rx="4" ry="5.5" transform="rotate(0.997817 127 58.5005)" fill="#3F3F41"/>
<ellipse cx="157.485" cy="57.8421" rx="4" ry="5.5" transform="rotate(-14.1015 157.485 57.8421)" fill="#3F3F41"/>
<path d="M74.5 37.5C74.5 44.1914 70.6126 50.4049 64.012 55.008C57.4166 59.6074 48.2246 62.5 38 62.5C27.7754 62.5 18.5834 59.6074 11.988 55.008C5.38739 50.4049 1.5 44.1914 1.5 37.5C1.5 30.8086 5.38739 24.5951 11.988 19.992C18.5834 15.3926 27.7754 12.5 38 12.5C48.2246 12.5 57.4166 15.3926 64.012 19.992C70.6126 24.5951 74.5 30.8086 74.5 37.5Z" stroke="#3F3F41" stroke-width="3"/>
<path d="M56.5 59.5C57.8333 64.8333 63.2 76 74 78" stroke="#3F3F41" stroke-width="3" stroke-linecap="round"/>
<path d="M153.031 79.421C153.465 77.2866 153.585 72.7119 150.588 71.4878C147.592 70.2636 145.383 72.0072 144.653 73.0321C143.867 71.6107 141.402 69.264 137.831 71.2478C134.259 73.2315 135.34 77.9596 136.327 80.0758" stroke="#3F3F41" stroke-width="3" stroke-linecap="round"/>
</svg>
