<svg width="28" height="27" viewBox="0 0 28 27" fill="none" xmlns="http://www.w3.org/2000/svg">
<path fill-rule="evenodd" clip-rule="evenodd" d="M16.1187 2.3792C16.249 2.58114 16.2767 2.8532 16.332 3.39733C16.436 4.42002 16.4879 4.93137 16.7431 5.18387C16.9274 5.36634 17.1755 5.47003 17.4349 5.47304C17.7938 5.47721 18.202 5.14869 19.0184 4.49166C19.4625 4.13428 19.6846 3.95558 19.9272 3.90817C20.0868 3.87698 20.2516 3.88519 20.4073 3.93208C20.644 4.00335 20.8437 4.19978 21.2431 4.59263L22.2213 5.55483C22.6024 5.9297 22.793 6.11714 22.8697 6.33795C22.9323 6.51831 22.9421 6.71284 22.8977 6.89854C22.8433 7.1259 22.6724 7.3314 22.3306 7.74238L22.3305 7.7424C21.6858 8.51747 21.3635 8.90501 21.3548 9.25244C21.3479 9.5326 21.4588 9.80282 21.6605 9.99731C21.9108 10.2385 22.4224 10.2888 23.4455 10.3895C24.0003 10.444 24.2778 10.4713 24.4802 10.6011C24.6294 10.6968 24.7505 10.8304 24.8311 10.9882C24.9405 11.2024 24.9405 11.4763 24.9405 12.0241V13.3565C24.9405 13.9043 24.9405 14.1782 24.8311 14.3924C24.7505 14.5502 24.6294 14.6838 24.4803 14.7794C24.2778 14.9093 24.0003 14.9366 23.4453 14.9912C22.4223 15.0918 21.9108 15.1421 21.6606 15.3831C21.4587 15.5777 21.3477 15.8481 21.3547 16.1284C21.3635 16.4757 21.6857 16.8631 22.3302 17.6379C22.6719 18.0487 22.8428 18.2541 22.8971 18.4814C22.9416 18.6672 22.9318 18.8619 22.8691 19.0423C22.7924 19.263 22.6019 19.4504 22.2209 19.8251L22.2209 19.8251L21.2424 20.7876C20.8432 21.1803 20.6435 21.3767 20.407 21.448C20.2511 21.4949 20.0862 21.5031 19.9265 21.4719C19.684 21.4245 19.4621 21.2459 19.0183 20.8887L19.0183 20.8887L19.0182 20.8887C18.202 20.2318 17.7938 19.9033 17.4348 19.9075C17.1755 19.9105 16.9275 20.0142 16.7431 20.1966C16.488 20.4491 16.436 20.9605 16.332 21.9833C16.2767 22.5275 16.249 22.7996 16.1187 23.0016C16.0231 23.1497 15.89 23.27 15.7329 23.3501C15.5188 23.4594 15.2453 23.4594 14.6983 23.4594H13.2863C12.7392 23.4594 12.4657 23.4594 12.2516 23.3501C12.0946 23.27 11.9615 23.1498 11.8659 23.0016C11.7356 22.7997 11.7079 22.5275 11.6526 21.9833C11.5486 20.9604 11.4966 20.4489 11.2414 20.1964C11.057 20.014 10.809 19.9104 10.5498 19.9073C10.1907 19.9031 9.7825 20.2317 8.966 20.8888C8.52196 21.2461 8.29993 21.4248 8.05734 21.4722C7.89773 21.5034 7.73293 21.4952 7.57721 21.4483C7.34052 21.3771 7.14082 21.1806 6.74142 20.7878L5.76315 19.8255L5.76314 19.8255C5.38209 19.4507 5.19156 19.2633 5.11485 19.0425C5.05216 18.8621 5.04244 18.6675 5.08684 18.4818C5.14117 18.2545 5.31208 18.049 5.65388 17.6381L5.65389 17.6381C6.29852 16.8631 6.62083 16.4756 6.62951 16.1282C6.63651 15.848 6.52557 15.5777 6.32373 15.3832C6.07352 15.1421 5.56199 15.0918 4.53891 14.9911C3.9841 14.9366 3.70669 14.9093 3.50422 14.7795C3.35501 14.6838 3.23391 14.5502 3.15332 14.3924C3.04395 14.1782 3.04395 13.9043 3.04395 13.3565V12.024C3.04395 11.4763 3.04395 11.2025 3.1533 10.9883C3.2339 10.8304 3.35502 10.6968 3.50424 10.6011C3.70671 10.4713 3.98404 10.444 4.53871 10.3895H4.53871C5.56194 10.2888 6.07356 10.2385 6.32381 9.99722C6.52547 9.80278 6.63633 9.53266 6.62941 9.25262C6.62081 8.9051 6.29838 8.51746 5.65351 7.74219C5.31157 7.33111 5.1406 7.12557 5.08628 6.89815C5.04194 6.71251 5.05165 6.51806 5.11427 6.33776C5.19098 6.11688 5.38158 5.9294 5.76278 5.55444L5.76279 5.55444L6.74074 4.5925C7.14029 4.19949 7.34007 4.00299 7.57687 3.93173C7.73247 3.88491 7.89715 3.87671 8.05664 3.90785C8.29934 3.95523 8.5215 4.13402 8.96581 4.49159L8.96581 4.4916C9.78243 5.14879 10.1907 5.47739 10.5497 5.4732C10.809 5.47018 11.0571 5.36651 11.2414 5.18407C11.4966 4.93156 11.5486 4.42017 11.6526 3.39738C11.7079 2.85321 11.7356 2.58112 11.8659 2.37916C11.9615 2.231 12.0946 2.11076 12.2517 2.03062C12.4658 1.92139 12.7392 1.92139 13.2862 1.92139H14.6984C15.2453 1.92139 15.5188 1.92139 15.7329 2.0306C15.89 2.11074 16.0231 2.23101 16.1187 2.3792ZM13.9916 16.9979C16.4102 16.9979 18.3709 15.0693 18.3709 12.6903C18.3709 10.3113 16.4102 8.38269 13.9916 8.38269C11.573 8.38269 9.61227 10.3113 9.61227 12.6903C9.61227 15.0693 11.573 16.9979 13.9916 16.9979Z" fill="white"/>
</svg>
