<svg width="2245" height="80" viewBox="0 0 2245 80" fill="none" xmlns="http://www.w3.org/2000/svg">
<path d="M719.612 10.8517C727.892 5.97807 739.557 11.867 744.355 15.4207C769.099 0.776309 776.117 15.4207 775.999 23.5043C775.903 29.9711 771.359 37.0551 769.099 39.7887C775.642 47.8724 780.162 62.3995 769.694 68.9602C761.319 74.2087 749.312 68.101 744.355 64.3912C726.869 75.9894 716.757 70.0146 713.664 61.1108C711.19 53.9878 716.598 43.9282 719.612 39.7887C712.474 30.1821 709.263 16.9437 719.612 10.8517Z" fill="#FC94FF"/>
<path d="M776 74C792.216 46.1145 782.757 16.381 776 5C803.624 22.5117 832.843 12.2966 844 5C827.501 32.3145 837.125 62.381 844 74C816.281 57.5352 787.117 67.1397 776 74Z" fill="#9B00FF"/>
<path d="M643.62 29.0185C647.689 15.3608 657.537 20.2237 661.952 24.3624C648.233 10.8717 666.801 -0.111463 686.907 5.49966C702.966 9.98135 697.255 19.9132 692.371 24.3411C707.378 10.7723 716.473 29.7451 711.744 49.3141C707.96 64.9775 697.236 60.218 692.348 55.8803C706.422 69.0127 687.972 79.7575 668.221 74.7433C652.42 70.7319 657.458 60.4966 661.952 55.8803C645.631 70.0872 638.535 46.0906 643.62 29.0185Z" fill="#FF83CA"/>
<path d="M622.269 8.09248C611.504 12.1528 608.813 30.9517 608.813 39.8436C633.954 37.6009 639.148 30.283 641.036 24.8535C643.828 16.8274 635.725 3.01703 622.269 8.09248Z" fill="#DB45FF"/>
<path d="M577.092 26.3518C581.153 37.1164 599.952 39.8076 608.844 39.8076C606.601 14.6664 599.283 9.47296 593.854 7.58438C585.827 4.79256 572.017 12.8959 577.092 26.3518Z" fill="#DB45FF"/>
<path d="M595.352 71.4769C606.117 67.4165 608.808 48.6176 608.808 39.7257C583.667 41.9685 578.473 49.2864 576.585 54.7158C573.793 62.7419 581.896 76.5523 595.352 71.4769Z" fill="#DB45FF"/>
<path d="M640.529 53.2166C636.468 42.4519 617.669 39.7607 608.778 39.7607C611.02 64.9019 618.338 70.0954 623.768 71.984C631.794 74.7758 645.604 66.6725 640.529 53.2166Z" fill="#DB45FF"/>
<path d="M876 4L869.321 14.4937L858 8.80031L857.547 21.3035L844.868 21.75L850.755 32.8019L840 39.5L850.755 46.1981L844.755 57.3616L857.547 57.6965L858 70.3113L869.208 64.3947L876 75L882.792 64.5063L894 70.1997L894.453 57.6965L907.245 57.3616L901.245 46.0865L912 39.5L901.245 32.8019L907.132 21.8616L894.566 21.4151L894 8.80031L882.792 14.4937L876 4Z" fill="#F7CB16"/>
<path d="M958.499 10.4396C953.163 13.7349 950.698 14.3361 949.341 14.3361C947.871 14.3361 945.226 14.2693 939.166 10.4396C931.591 5.65256 927.634 8.32442 927.634 15.2267C927.634 22.129 929.104 28.252 918.929 32.8165C908.754 37.3809 910.676 43.6152 918.929 47.4004C927.182 51.1855 927.861 54.1913 927.634 62.9862C927.408 71.7811 930.913 74.5643 939.505 69.4432C948.098 64.3221 951.037 65.3241 958.16 69.4432C965.282 73.5623 970.257 73.2283 970.257 62.9862C970.257 52.7441 970.709 51.8535 979.075 47.4004C987.441 42.9473 989.137 37.8262 979.075 32.8165C969.013 27.8067 970.37 23.3536 970.143 15.2267C969.917 7.09982 965.169 6.32053 958.499 10.4396Z" fill="#F1E685"/>
<path d="M1122 39.5C1122 42.9152 1116.9 45.4821 1115.89 48.5635C1114.86 51.7557 1117.44 56.8287 1115.51 59.4797C1113.55 62.1651 1107.92 61.2637 1105.23 63.2224C1102.57 65.1561 1101.7 70.8029 1098.51 71.84C1095.43 72.8411 1091.42 68.8177 1088 68.8177C1084.58 68.8177 1080.57 72.8411 1077.49 71.84C1074.3 70.8029 1073.43 65.1561 1070.77 63.2224C1068.08 61.2684 1062.45 62.1698 1060.49 59.4797C1058.56 56.8287 1061.14 51.7511 1060.11 48.5635C1059.1 45.4821 1054 42.9152 1054 39.5C1054 36.0848 1059.1 33.5179 1060.11 30.4365C1061.14 27.2443 1058.56 22.1713 1060.49 19.5203C1062.45 16.8349 1068.08 17.7363 1070.77 15.7776C1073.43 13.8439 1074.3 8.19708 1077.49 7.16004C1080.57 6.15887 1084.58 10.1823 1088 10.1823C1091.42 10.1823 1095.43 6.15887 1098.51 7.16004C1101.7 8.19708 1102.57 13.8439 1105.23 15.7776C1107.92 17.7316 1113.55 16.8302 1115.51 19.5203C1117.44 22.1713 1114.86 27.2489 1115.89 30.4365C1116.9 33.5179 1122 36.0848 1122 39.5Z" fill="#E7E740"/>
<path d="M1054 39.5C1054 41.4273 1049.19 42.9081 1048.88 44.747C1048.56 46.647 1052.58 49.7146 1051.96 51.478C1051.32 53.2736 1046.31 52.9653 1045.41 54.597C1044.5 56.2288 1047.24 60.5571 1046.05 62.0074C1044.87 63.4577 1040.26 61.4115 1038.85 62.6322C1037.44 63.8528 1038.61 68.8717 1037.01 69.8257C1035.41 70.7797 1031.78 67.2271 1030.04 67.8808C1028.32 68.5232 1027.74 73.6546 1025.91 73.9838C1024.12 74.305 1021.88 69.6924 1020 69.6924C1018.13 69.6924 1015.89 74.3066 1014.1 73.9838C1012.26 73.653 1011.69 68.5232 1009.97 67.8808C1008.23 67.2271 1004.58 70.7717 1003 69.8257C1001.41 68.8797 1002.56 63.8479 1001.16 62.6322C999.748 61.4164 995.14 63.4593 993.955 62.0058C992.77 60.5523 995.527 56.2448 994.602 54.597C993.677 52.9492 988.675 53.2736 988.043 51.478C987.419 49.7114 991.442 46.639 991.121 44.747C990.809 42.9081 986 41.4321 986 39.5C986 37.5679 990.807 36.0919 991.121 34.253C991.442 32.361 987.419 29.2854 988.043 27.522C988.678 25.7264 993.685 26.0348 994.602 24.403C995.52 22.7712 992.773 18.4429 993.955 16.9926C995.137 15.5423 999.744 17.5885 1001.16 16.3679C1002.57 15.1472 1001.4 10.1283 1003 9.17429C1004.6 8.22028 1008.23 11.7729 1009.97 11.1192C1011.69 10.4768 1012.26 5.34543 1014.1 5.01618C1015.89 4.69497 1018.13 9.30759 1020 9.30759C1021.88 9.30759 1024.12 4.69336 1025.91 5.01618C1027.74 5.34703 1028.32 10.4768 1030.04 11.1192C1031.78 11.7729 1035.42 8.22831 1037.01 9.17429C1038.6 10.1203 1037.45 15.1521 1038.85 16.3679C1040.26 17.5836 1044.87 15.5407 1046.05 16.9942C1047.24 18.4477 1044.48 22.7552 1045.41 24.403C1046.33 26.0508 1051.33 25.7264 1051.96 27.522C1052.58 29.2886 1048.56 32.361 1048.88 34.253C1049.19 36.0919 1054 37.5679 1054 39.5Z" fill="#FFEB0F"/>
<path d="M538.009 5.49739C538.009 -1.95198 492.457 76.8546 501.088 69.4052C492.488 76.8546 583.531 76.8546 574.93 69.4052C583.531 76.8546 538.009 -1.95198 538.009 5.49739Z" fill="#528AB2"/>
<path d="M459 4C459 13.7894 429.251 65.2106 418 75C429.305 65.2106 488.682 65.2106 500 75C488.682 65.2106 459 13.7894 459 4Z" fill="#0085FF"/>
<path d="M305.784 16.3808C301.984 -29.8686 238.464 81.7228 284.923 52.3655C241.722 81.7228 368.762 83.3558 326.646 52.3655C373.105 84.9889 312.299 -28.7799 305.784 16.3808Z" fill="#A6DDFF"/>
<path d="M380.077 7.12904C380.077 -7.70185 404.582 35.0038 396.053 35.0038C404.582 35.0038 429.164 77.7705 412.106 62.8938C429.164 77.7094 380 77.7094 380 62.8938C380 77.7094 330.821 77.7094 347.895 62.8938C330.821 77.7094 355.418 35.0038 363.948 35.0038C355.418 35.0038 380.077 -7.70185 380.077 7.12904Z" fill="#53B5FF"/>
<g clip-path="url(#clip0_1746_732)">
<path d="M156.932 32.9315C147.935 11.9231 135.923 23.9353 156.932 32.9315V32.9315Z" fill="#316811"/>
<path d="M156.932 47.061C135.923 56.0572 147.935 68.0769 156.932 47.061V47.061Z" fill="#316811"/>
<path d="M171.061 47.061C180.057 68.0769 192.077 56.0572 171.061 47.061V47.061Z" fill="#316811"/>
<path d="M204 39.9963C189.373 39.9963 178.118 38.726 169.568 36.8391C170.051 35.4276 170.556 34.1276 171.054 32.9316C169.865 33.4268 168.562 33.9221 167.146 34.4173C165.274 25.8743 163.996 14.6197 163.996 0C163.996 14.6197 162.726 25.8743 160.839 34.4322C159.428 33.9369 158.125 33.4417 156.932 32.9464C157.427 34.14 157.922 35.4425 158.417 36.8539C149.874 38.726 138.62 39.9963 124 39.9963C138.62 39.9963 149.874 41.274 158.432 43.1535C157.937 44.5699 157.442 45.8724 156.946 47.061C158.142 46.5559 159.442 46.0507 160.854 45.5753C162.741 54.1257 164.011 65.3803 164.011 80.0074C164.011 65.3803 165.289 54.1257 167.168 45.5753C168.587 46.0581 169.887 46.5633 171.076 47.061C170.571 45.8724 170.066 44.5724 169.59 43.1535C178.118 41.274 189.373 39.9963 204 39.9963Z" fill="#316811"/>
<path d="M171.061 32.9315C192.077 23.9353 180.057 11.9231 171.061 32.9315V32.9315Z" fill="#316811"/>
</g>
<path d="M233 5C233 22.4899 215.487 40 198 40C215.49 40 233 57.5132 233 75C233 57.5116 250.513 40.0016 268 40.0016C250.51 40 233 22.4899 233 5Z" fill="#3C840D"/>
<path d="M113.482 39.5C174.791 37.3577 106.642 -30.7908 104.5 30.518C102.358 -30.7908 34.2092 37.3577 95.518 39.5C34.2092 41.6423 102.358 109.791 104.5 48.482C106.642 109.791 174.791 41.6423 113.482 39.5Z" fill="#5ECC17"/>
<path d="M0.0509389 39.9501C-0.714331 36.831 33.5889 2.60357 36.0793 4.04421C39.3752 3.52932 72.821 37.0434 71.9779 40.0122C72.9922 42.8985 38.7788 77.1054 35.9978 75.9725C33.1971 77.1143 -1.50765 42.3602 0.0509389 39.9501Z" fill="#D0ED91"/>
<path d="M1842.61 10.8517C1850.89 5.97807 1862.56 11.867 1867.36 15.4207C1892.1 0.776309 1899.12 15.4207 1899 23.5043C1898.9 29.9711 1894.36 37.0551 1892.1 39.7887C1898.64 47.8724 1903.16 62.3995 1892.69 68.9602C1884.32 74.2087 1872.31 68.101 1867.36 64.3912C1849.87 75.9894 1839.76 70.0146 1836.66 61.1108C1834.19 53.9878 1839.6 43.9282 1842.61 39.7887C1835.47 30.1821 1832.26 16.9437 1842.61 10.8517Z" fill="#FC94FF"/>
<path d="M1899 74C1915.22 46.1145 1905.76 16.381 1899 5C1926.62 22.5117 1955.84 12.2966 1967 5C1950.5 32.3145 1960.13 62.381 1967 74C1939.28 57.5352 1910.12 67.1397 1899 74Z" fill="#9B00FF"/>
<path d="M1766.62 29.0185C1770.69 15.3608 1780.54 20.2237 1784.95 24.3624C1771.23 10.8717 1789.8 -0.111463 1809.91 5.49966C1825.97 9.98135 1820.25 19.9132 1815.37 24.3411C1830.38 10.7723 1839.47 29.7451 1834.74 49.3141C1830.96 64.9775 1820.24 60.218 1815.35 55.8803C1829.42 69.0127 1810.97 79.7575 1791.22 74.7433C1775.42 70.7319 1780.46 60.4966 1784.95 55.8803C1768.63 70.0872 1761.53 46.0906 1766.62 29.0185Z" fill="#FF83CA"/>
<path d="M1745.27 8.09248C1734.5 12.1528 1731.81 30.9517 1731.81 39.8436C1756.95 37.6009 1762.15 30.283 1764.04 24.8535C1766.83 16.8274 1758.72 3.01703 1745.27 8.09248Z" fill="#DB45FF"/>
<path d="M1700.09 26.3518C1704.15 37.1164 1722.95 39.8076 1731.84 39.8076C1729.6 14.6664 1722.28 9.47296 1716.85 7.58438C1708.83 4.79256 1695.02 12.8959 1700.09 26.3518Z" fill="#DB45FF"/>
<path d="M1718.35 71.4769C1729.12 67.4165 1731.81 48.6176 1731.81 39.7257C1706.67 41.9685 1701.47 49.2864 1699.58 54.7158C1696.79 62.7419 1704.9 76.5523 1718.35 71.4769Z" fill="#DB45FF"/>
<path d="M1763.53 53.2166C1759.47 42.4519 1740.67 39.7607 1731.78 39.7607C1734.02 64.9019 1741.34 70.0954 1746.77 71.984C1754.79 74.7758 1768.6 66.6725 1763.53 53.2166Z" fill="#DB45FF"/>
<path d="M1999 4L1992.32 14.4937L1981 8.80031L1980.55 21.3035L1967.87 21.75L1973.75 32.8019L1963 39.5L1973.75 46.1981L1967.75 57.3616L1980.55 57.6965L1981 70.3113L1992.21 64.3947L1999 75L2005.79 64.5063L2017 70.1997L2017.45 57.6965L2030.25 57.3616L2024.25 46.0865L2035 39.5L2024.25 32.8019L2030.13 21.8616L2017.57 21.4151L2017 8.80031L2005.79 14.4937L1999 4Z" fill="#F7CB16"/>
<path d="M2081.5 10.4396C2076.16 13.7349 2073.7 14.3361 2072.34 14.3361C2070.87 14.3361 2068.23 14.2693 2062.17 10.4396C2054.59 5.65256 2050.63 8.32442 2050.63 15.2267C2050.63 22.129 2052.1 28.252 2041.93 32.8165C2031.75 37.3809 2033.68 43.6152 2041.93 47.4004C2050.18 51.1855 2050.86 54.1913 2050.63 62.9862C2050.41 71.7811 2053.91 74.5643 2062.51 69.4432C2071.1 64.3221 2074.04 65.3241 2081.16 69.4432C2088.28 73.5623 2093.26 73.2283 2093.26 62.9862C2093.26 52.7441 2093.71 51.8535 2102.07 47.4004C2110.44 42.9473 2112.14 37.8262 2102.07 32.8165C2092.01 27.8067 2093.37 23.3536 2093.14 15.2267C2092.92 7.09982 2088.17 6.32053 2081.5 10.4396Z" fill="#F1E685"/>
<path d="M2245 39.5C2245 42.9152 2239.9 45.4821 2238.89 48.5635C2237.86 51.7557 2240.44 56.8287 2238.51 59.4797C2236.55 62.1651 2230.92 61.2637 2228.23 63.2224C2225.57 65.1561 2224.7 70.8029 2221.51 71.84C2218.43 72.8411 2214.42 68.8177 2211 68.8177C2207.58 68.8177 2203.57 72.8411 2200.49 71.84C2197.3 70.8029 2196.43 65.1561 2193.77 63.2224C2191.08 61.2684 2185.45 62.1698 2183.49 59.4797C2181.56 56.8287 2184.14 51.7511 2183.11 48.5635C2182.1 45.4821 2177 42.9152 2177 39.5C2177 36.0848 2182.1 33.5179 2183.11 30.4365C2184.14 27.2443 2181.56 22.1713 2183.49 19.5203C2185.45 16.8349 2191.08 17.7363 2193.77 15.7776C2196.43 13.8439 2197.3 8.19708 2200.49 7.16004C2203.57 6.15887 2207.58 10.1823 2211 10.1823C2214.42 10.1823 2218.43 6.15887 2221.51 7.16004C2224.7 8.19708 2225.57 13.8439 2228.23 15.7776C2230.92 17.7316 2236.55 16.8302 2238.51 19.5203C2240.44 22.1713 2237.86 27.2489 2238.89 30.4365C2239.9 33.5179 2245 36.0848 2245 39.5Z" fill="#E7E740"/>
<path d="M2177 39.5C2177 41.4273 2172.19 42.9081 2171.88 44.747C2171.56 46.647 2175.58 49.7146 2174.96 51.478C2174.32 53.2736 2169.31 52.9653 2168.41 54.597C2167.5 56.2288 2170.24 60.5571 2169.05 62.0074C2167.87 63.4577 2163.26 61.4115 2161.85 62.6322C2160.44 63.8528 2161.61 68.8717 2160.01 69.8257C2158.41 70.7797 2154.78 67.2271 2153.04 67.8808C2151.32 68.5232 2150.74 73.6546 2148.91 73.9838C2147.12 74.305 2144.88 69.6924 2143 69.6924C2141.13 69.6924 2138.89 74.3066 2137.1 73.9838C2135.26 73.653 2134.69 68.5232 2132.97 67.8808C2131.23 67.2271 2127.58 70.7717 2126 69.8257C2124.41 68.8797 2125.56 63.8479 2124.16 62.6322C2122.75 61.4164 2118.14 63.4593 2116.96 62.0058C2115.77 60.5523 2118.53 56.2448 2117.6 54.597C2116.68 52.9492 2111.68 53.2736 2111.04 51.478C2110.42 49.7114 2114.44 46.639 2114.12 44.747C2113.81 42.9081 2109 41.4321 2109 39.5C2109 37.5679 2113.81 36.0919 2114.12 34.253C2114.44 32.361 2110.42 29.2854 2111.04 27.522C2111.68 25.7264 2116.69 26.0348 2117.6 24.403C2118.52 22.7712 2115.77 18.4429 2116.96 16.9926C2118.14 15.5423 2122.74 17.5885 2124.16 16.3679C2125.57 15.1472 2124.4 10.1283 2126 9.17429C2127.6 8.22028 2131.23 11.7729 2132.97 11.1192C2134.69 10.4768 2135.26 5.34543 2137.1 5.01618C2138.89 4.69497 2141.13 9.30759 2143 9.30759C2144.88 9.30759 2147.12 4.69336 2148.91 5.01618C2150.74 5.34703 2151.32 10.4768 2153.04 11.1192C2154.78 11.7729 2158.42 8.22831 2160.01 9.17429C2161.6 10.1203 2160.45 15.1521 2161.85 16.3679C2163.26 17.5836 2167.87 15.5407 2169.05 16.9942C2170.24 18.4477 2167.48 22.7552 2168.41 24.403C2169.33 26.0508 2174.33 25.7264 2174.96 27.522C2175.58 29.2886 2171.56 32.361 2171.88 34.253C2172.19 36.0919 2177 37.5679 2177 39.5Z" fill="#FFEB0F"/>
<path d="M1661.01 5.49739C1661.01 -1.95198 1615.46 76.8546 1624.09 69.4052C1615.49 76.8546 1706.53 76.8546 1697.93 69.4052C1706.53 76.8546 1661.01 -1.95198 1661.01 5.49739Z" fill="#528AB2"/>
<path d="M1582 4C1582 13.7894 1552.25 65.2106 1541 75C1552.3 65.2106 1611.68 65.2106 1623 75C1611.68 65.2106 1582 13.7894 1582 4Z" fill="#0085FF"/>
<path d="M1428.78 16.3808C1424.98 -29.8686 1361.46 81.7228 1407.92 52.3655C1364.72 81.7228 1491.76 83.3558 1449.65 52.3655C1496.1 84.9889 1435.3 -28.7799 1428.78 16.3808Z" fill="#A6DDFF"/>
<path d="M1503.08 7.12904C1503.08 -7.70185 1527.58 35.0038 1519.05 35.0038C1527.58 35.0038 1552.16 77.7705 1535.11 62.8938C1552.16 77.7094 1503 77.7094 1503 62.8938C1503 77.7094 1453.82 77.7094 1470.89 62.8938C1453.82 77.7094 1478.42 35.0038 1486.95 35.0038C1478.42 35.0038 1503.08 -7.70185 1503.08 7.12904Z" fill="#53B5FF"/>
<g clip-path="url(#clip1_1746_732)">
<path d="M1279.93 32.9315C1270.94 11.9231 1258.92 23.9353 1279.93 32.9315V32.9315Z" fill="#316811"/>
<path d="M1279.93 47.061C1258.92 56.0572 1270.94 68.0769 1279.93 47.061V47.061Z" fill="#316811"/>
<path d="M1294.06 47.061C1303.06 68.0769 1315.08 56.0572 1294.06 47.061V47.061Z" fill="#316811"/>
<path d="M1327 39.9963C1312.37 39.9963 1301.12 38.726 1292.57 36.8391C1293.05 35.4276 1293.56 34.1276 1294.05 32.9316C1292.86 33.4268 1291.56 33.9221 1290.15 34.4173C1288.27 25.8743 1287 14.6197 1287 0C1287 14.6197 1285.73 25.8743 1283.84 34.4322C1282.43 33.9369 1281.13 33.4417 1279.93 32.9464C1280.43 34.14 1280.92 35.4425 1281.42 36.8539C1272.87 38.726 1261.62 39.9963 1247 39.9963C1261.62 39.9963 1272.87 41.274 1281.43 43.1535C1280.94 44.5699 1280.44 45.8724 1279.95 47.061C1281.14 46.5559 1282.44 46.0507 1283.85 45.5753C1285.74 54.1257 1287.01 65.3803 1287.01 80.0074C1287.01 65.3803 1288.29 54.1257 1290.17 45.5753C1291.59 46.0581 1292.89 46.5633 1294.08 47.061C1293.57 45.8724 1293.07 44.5724 1292.59 43.1535C1301.12 41.274 1312.37 39.9963 1327 39.9963Z" fill="#316811"/>
<path d="M1294.06 32.9315C1315.08 23.9353 1303.06 11.9231 1294.06 32.9315V32.9315Z" fill="#316811"/>
</g>
<path d="M1356 5C1356 22.4899 1338.49 40 1321 40C1338.49 40 1356 57.5132 1356 75C1356 57.5116 1373.51 40.0016 1391 40.0016C1373.51 40 1356 22.4899 1356 5Z" fill="#3C840D"/>
<path d="M1236.48 39.5C1297.79 37.3577 1229.64 -30.7908 1227.5 30.518C1225.36 -30.7908 1157.21 37.3577 1218.52 39.5C1157.21 41.6423 1225.36 109.791 1227.5 48.482C1229.64 109.791 1297.79 41.6423 1236.48 39.5Z" fill="#5ECC17"/>
<path d="M1123.05 39.9501C1122.29 36.831 1156.59 2.60357 1159.08 4.04421C1162.38 3.52932 1195.82 37.0434 1194.98 40.0122C1195.99 42.8985 1161.78 77.1054 1159 75.9725C1156.2 77.1143 1121.49 42.3602 1123.05 39.9501Z" fill="#D0ED91"/>
<defs>
<clipPath id="clip0_1746_732">
<rect width="80" height="80" fill="white" transform="translate(124)"/>
</clipPath>
<clipPath id="clip1_1746_732">
<rect width="80" height="80" fill="white" transform="translate(1247)"/>
</clipPath>
</defs>
</svg>
