<svg width="208" height="40" viewBox="0 0 208 37" fill="none" xmlns="http://www.w3.org/2000/svg">
<mask id="mask0_1371_2732" style="mask-type:alpha" maskUnits="userSpaceOnUse" x="0" y="0" width="208" height="40">
<path d="M0 0.526835V29.908H12.0675C18.205 29.908 23.3057 27.517 23.3057 21.195C23.3057 17.3045 21.2737 15.3998 18.7855 14.3056C20.5687 13.2519 22.1445 10.7798 22.1445 8.0241C22.1445 1.98576 16.795 0.526835 11.3211 0.526835H0ZM5.26659 12.8061V4.66046H11.8187C14.8045 4.66046 16.795 5.99781 16.795 8.59146C16.795 11.4688 14.8874 12.8061 11.8187 12.8061H5.26659ZM5.26659 25.7744V16.7371H11.9846C16.0071 16.7371 17.8732 18.1961 17.8732 21.195C17.8732 24.1128 16.0071 25.7744 12.2749 25.7744H5.26659Z" fill="#1C1C1C"/>
<path d="M32.9262 29.908V0.526835H27.6596V29.908H32.9262Z" fill="#1C1C1C"/>
<path d="M60.3555 4.70099V0.526835H38.4598V4.98467H53.9692L37.1327 25.7338V29.908H60.8531V25.4502H43.5605L60.3555 4.70099Z" fill="#1C1C1C"/>
<path d="M100.184 20.1413H95.1251C94.2128 24.1533 91.31 26.2202 87.246 26.2202C82.4355 26.2202 78.7448 22.2486 78.7448 15.1161C78.7448 8.0241 82.5185 4.21468 87.2874 4.21468C91.1855 4.21468 94.1299 6.32202 95.0422 10.2935H100.101C98.8988 3.72837 94.1299 0 87.4533 0C78.7448 0 73.3123 5.87623 73.3123 15.1161C73.3123 24.3154 78.413 30.4348 87.2045 30.4348C94.1299 30.4348 98.9403 26.7065 100.184 20.1413Z" fill="#1C1C1C"/>
<path d="M109.29 11.1446V0.526835H104.356V29.908H109.29V18.3176C109.29 14.3866 110.7 11.5498 114.474 11.5498C118.248 11.5498 118.704 14.4272 118.704 17.3855V29.908H123.639V16.2103C123.639 11.023 121.441 7.61884 116.05 7.61884C112.94 7.61884 110.576 8.87514 109.29 11.1446Z" fill="#1C1C1C"/>
<path d="M132.3 20.3844H148.929C149.344 13.0493 145.073 7.61884 138.23 7.61884C131.886 7.61884 127.283 12.2793 127.283 18.8445C127.283 25.0854 131.388 30.4348 138.562 30.4348C144.326 30.4348 147.644 26.8686 148.681 23.3834H143.829C142.958 25.4096 140.926 26.4228 138.355 26.4228C135.535 26.4228 132.632 24.437 132.3 20.3844ZM132.3 16.8587C132.715 12.7251 135.908 11.3877 138.23 11.3877C141.133 11.3877 143.787 13.4545 143.912 16.8587H132.3Z" fill="#1C1C1C"/>
<path d="M157.928 29.908V18.3176C157.928 14.3866 159.172 11.5498 162.821 11.5498C166.47 11.5498 166.761 14.4272 166.761 17.3855V29.908H171.695V18.3176C171.695 14.3866 172.939 11.5498 176.589 11.5498C180.238 11.5498 180.528 14.4272 180.528 17.3855V29.908H185.463V16.2103C185.463 11.023 183.431 7.61884 178.165 7.61884C175.428 7.61884 172.815 8.71304 170.907 11.4688C169.871 9.03724 167.839 7.61884 164.397 7.61884C161.411 7.61884 159.213 8.87514 157.928 11.1446V8.10515H152.993V29.908H157.928Z" fill="#1C1C1C"/>
<path d="M189.339 37H191.578C196.596 37 198.089 35.5006 200.162 29.8675L208 8.10515H202.941L197.882 23.7481L192.822 8.10515H187.431L195.518 29.7864L195.269 30.3133C194.274 33.1501 193.361 33.3122 191.205 33.3122H189.339V37Z" fill="#1C1C1C"/>
</mask>
<g mask="url(#mask0_1371_2732)">
<rect x="-0.224121" y="-14.2988" width="211.224" height="193.911" fill="#925DFB"/>
<g filter="url(#filter0_f_1371_2732)">
<path d="M13.4104 42.729C27.0448 42.729 38.4067 28.6595 42.3834 21.6247C43.709 16.6813 48.9735 1.66111 59.4265 -18.8729C72.4928 -44.5403 126.706 -43.2642 150.566 -13.0337C174.426 17.1969 146.021 73.0947 90.3474 73.0947C47.5171 73.0947 95.4603 124.287 64.2148 154.09C41.4909 175.765 22.5 136.843 -8.74548 106.042C-39.9909 75.2411 -3.63259 42.729 13.4104 42.729Z" fill="#F2C62A"/>
</g>
<g filter="url(#filter1_f_1371_2732)">
<path d="M97.0004 102.543C87.3937 75.8595 103.138 66.8304 112.211 65.6512C116.214 65.6512 147.756 80.5088 145.834 61.1028C143.433 36.8453 105.006 42.9099 107.408 12.0828C109.809 -18.7443 129.023 -16.7228 153.44 -0.0458994C177.857 16.6311 173.053 84.8549 153.44 108.607C133.826 132.359 109.009 135.896 97.0004 102.543Z" fill="#8DF8D0"/>
</g>
</g>
<defs>
<filter id="filter0_f_1371_2732" x="-61" y="-77" width="260.06" height="277.374" filterUnits="userSpaceOnUse" color-interpolation-filters="sRGB">
<feFlood flood-opacity="0" result="BackgroundImageFix"/>
<feBlend mode="normal" in="SourceGraphic" in2="BackgroundImageFix" result="shape"/>
<feGaussianBlur stdDeviation="20" result="effect1_foregroundBlur_1371_2732"/>
</filter>
<filter id="filter1_f_1371_2732" x="54" y="-52" width="156" height="219" filterUnits="userSpaceOnUse" color-interpolation-filters="sRGB">
<feFlood flood-opacity="0" result="BackgroundImageFix"/>
<feBlend mode="normal" in="SourceGraphic" in2="BackgroundImageFix" result="shape"/>
<feGaussianBlur stdDeviation="20" result="effect1_foregroundBlur_1371_2732"/>
</filter>
</defs>
</svg>
