<svg width="64" height="95" viewBox="0 0 64 95" fill="none" xmlns="http://www.w3.org/2000/svg">
<path fill-rule="evenodd" clip-rule="evenodd" d="M9.50391 0C4.53334 0 0.503906 4.02944 0.503906 9V18C0.503906 22.9706 4.53334 27 9.50391 27H12.8789L19.0039 34V27H54.5039C59.4745 27 63.5039 22.9706 63.5039 18V9C63.5039 4.02944 59.4745 0 54.5039 0H9.50391Z" fill="#9B00FF" fill-opacity="0.8"/>
<path d="M24.2402 12.0938C24.1699 11.6289 23.9688 11.2617 23.6367 10.9922C23.3047 10.7227 22.8887 10.5859 22.3887 10.582C21.9473 10.5859 21.5605 10.6973 21.2285 10.916C20.9004 11.1348 20.6465 11.4551 20.4668 11.877C20.2871 12.2949 20.1973 12.7969 20.1973 13.3828C20.1973 13.9805 20.2871 14.4883 20.4668 14.9062C20.6504 15.3242 20.9043 15.6406 21.2285 15.8555C21.5566 16.0703 21.9395 16.1797 22.377 16.1836C22.8652 16.1797 23.2773 16.0508 23.6133 15.7969C23.9492 15.5391 24.1582 15.1836 24.2402 14.7305L26.0215 14.7422C25.9551 15.2773 25.7656 15.7734 25.4531 16.2305C25.1406 16.6875 24.7188 17.0547 24.1875 17.332C23.6562 17.6055 23.0449 17.7422 22.3535 17.7422C21.5918 17.7422 20.9121 17.5703 20.3145 17.2266C19.7207 16.8789 19.2539 16.377 18.9141 15.7207C18.5742 15.0605 18.4043 14.2812 18.4043 13.3828C18.4043 12.4805 18.5742 11.7012 18.9141 11.0449C19.2578 10.3887 19.7285 9.88867 20.3262 9.54492C20.9238 9.19727 21.5996 9.02344 22.3535 9.02344C23.0059 9.02344 23.5957 9.14453 24.123 9.38672C24.6504 9.62891 25.0781 9.98047 25.4062 10.4414C25.7383 10.9023 25.9434 11.4531 26.0215 12.0938H24.2402ZM28.9512 17.625H27.2168V9.14062H28.9512V17.625ZM30.2988 11.2617H32.0332V17.625H30.2988V11.2617ZM31.166 10.4297C30.9941 10.4297 30.8359 10.3906 30.6914 10.3125C30.5469 10.2305 30.4316 10.123 30.3457 9.99023C30.2598 9.85352 30.2168 9.70703 30.2168 9.55078C30.2168 9.39062 30.2598 9.24219 30.3457 9.10547C30.4316 8.96875 30.5469 8.86133 30.6914 8.7832C30.8359 8.70117 30.9941 8.66016 31.166 8.66016C31.334 8.66016 31.4902 8.70117 31.6348 8.7832C31.7793 8.86133 31.8926 8.96875 31.9746 9.10547C32.0605 9.24219 32.1035 9.39062 32.1035 9.55078C32.1035 9.70703 32.0605 9.85352 31.9746 9.99023C31.8926 10.123 31.7793 10.2305 31.6348 10.3125C31.4902 10.3906 31.334 10.4297 31.166 10.4297ZM36.2402 17.7539C35.5996 17.7539 35.043 17.6152 34.5703 17.3379C34.1016 17.0605 33.7422 16.6738 33.4922 16.1777C33.2461 15.6777 33.123 15.1055 33.123 14.4609C33.123 13.8164 33.248 13.2461 33.498 12.75C33.752 12.2539 34.1133 11.8691 34.582 11.5957C35.0547 11.3184 35.6074 11.1797 36.2402 11.1797C36.7832 11.1797 37.2637 11.2793 37.6816 11.4785C38.0996 11.6777 38.4277 11.9609 38.666 12.3281C38.9082 12.6914 39.041 13.1133 39.0645 13.5938H37.4355C37.3809 13.2695 37.252 13.0117 37.0488 12.8203C36.8457 12.6289 36.584 12.5312 36.2637 12.5273C35.9863 12.5312 35.7422 12.6094 35.5312 12.7617C35.3242 12.9102 35.1641 13.1289 35.0508 13.418C34.9375 13.7031 34.8809 14.043 34.8809 14.4375C34.8809 14.8438 34.9375 15.1914 35.0508 15.4805C35.1641 15.7695 35.3242 15.9902 35.5312 16.1426C35.7383 16.2949 35.9824 16.3711 36.2637 16.3711C36.5723 16.3711 36.8301 16.2793 37.0371 16.0957C37.248 15.9082 37.3809 15.6484 37.4355 15.3164H39.0645C39.041 15.7969 38.9102 16.2207 38.6719 16.5879C38.4375 16.9551 38.1113 17.2422 37.6934 17.4492C37.2793 17.6523 36.7949 17.7539 36.2402 17.7539ZM40.1426 9.14062H41.877V13.6992H41.9707L44.0332 11.2617H46.0254L43.6523 14.0156L46.1543 17.625H44.1152L42.3633 15.0352L41.877 15.5859V17.625H40.1426V9.14062Z" fill="white"/>
<g clip-path="url(#clip0_2268_927)">
<g filter="url(#filter0_d_2268_927)">
<path d="M32.5 36.2754C22.3413 36.2754 14.125 44.4916 14.125 54.6504C14.125 68.4316 32.5 88.7754 32.5 88.7754C32.5 88.7754 50.875 68.4316 50.875 54.6504C50.875 44.4916 42.6587 36.2754 32.5 36.2754ZM32.5 61.2129C28.8775 61.2129 25.9375 58.2729 25.9375 54.6504C25.9375 51.0279 28.8775 48.0879 32.5 48.0879C36.1225 48.0879 39.0625 51.0279 39.0625 54.6504C39.0625 58.2729 36.1225 61.2129 32.5 61.2129Z" fill="#9B00FF"/>
</g>
</g>
<defs>
<filter id="filter0_d_2268_927" x="12.125" y="36.2754" width="44.75" height="60.5" filterUnits="userSpaceOnUse" color-interpolation-filters="sRGB">
<feFlood flood-opacity="0" result="BackgroundImageFix"/>
<feColorMatrix in="SourceAlpha" type="matrix" values="0 0 0 0 0 0 0 0 0 0 0 0 0 0 0 0 0 0 127 0" result="hardAlpha"/>
<feOffset dx="2" dy="4"/>
<feGaussianBlur stdDeviation="2"/>
<feComposite in2="hardAlpha" operator="out"/>
<feColorMatrix type="matrix" values="0 0 0 0 0 0 0 0 0 0 0 0 0 0 0 0 0 0 0.25 0"/>
<feBlend mode="normal" in2="BackgroundImageFix" result="effect1_dropShadow_2268_927"/>
<feBlend mode="normal" in="SourceGraphic" in2="effect1_dropShadow_2268_927" result="shape"/>
</filter>
<clipPath id="clip0_2268_927">
<rect width="63" height="63" fill="white" transform="translate(1 31.0254)"/>
</clipPath>
</defs>
</svg>
