<svg width="64" height="95" viewBox="0 0 64 95" fill="none" xmlns="http://www.w3.org/2000/svg">
<path fill-rule="evenodd" clip-rule="evenodd" d="M9.69434 0C4.72377 0 0.694336 4.02944 0.694336 9V18C0.694336 22.9706 4.72377 27 9.69433 27H13.0693L19.1943 34V27H54.6943C59.6649 27 63.6943 22.9706 63.6943 18V9C63.6943 4.02944 59.6649 0 54.6943 0H9.69434Z" fill="#FF83CA" fill-opacity="0.8"/>
<path d="M24.4307 12.0938C24.3604 11.6289 24.1592 11.2617 23.8271 10.9922C23.4951 10.7227 23.0791 10.5859 22.5791 10.582C22.1377 10.5859 21.751 10.6973 21.4189 10.916C21.0908 11.1348 20.8369 11.4551 20.6572 11.877C20.4775 12.2949 20.3877 12.7969 20.3877 13.3828C20.3877 13.9805 20.4775 14.4883 20.6572 14.9062C20.8408 15.3242 21.0947 15.6406 21.4189 15.8555C21.7471 16.0703 22.1299 16.1797 22.5674 16.1836C23.0557 16.1797 23.4678 16.0508 23.8037 15.7969C24.1396 15.5391 24.3486 15.1836 24.4307 14.7305L26.2119 14.7422C26.1455 15.2773 25.9561 15.7734 25.6436 16.2305C25.3311 16.6875 24.9092 17.0547 24.3779 17.332C23.8467 17.6055 23.2354 17.7422 22.5439 17.7422C21.7822 17.7422 21.1025 17.5703 20.5049 17.2266C19.9111 16.8789 19.4443 16.377 19.1045 15.7207C18.7646 15.0605 18.5947 14.2812 18.5947 13.3828C18.5947 12.4805 18.7646 11.7012 19.1045 11.0449C19.4482 10.3887 19.9189 9.88867 20.5166 9.54492C21.1143 9.19727 21.79 9.02344 22.5439 9.02344C23.1963 9.02344 23.7861 9.14453 24.3135 9.38672C24.8408 9.62891 25.2686 9.98047 25.5967 10.4414C25.9287 10.9023 26.1338 11.4531 26.2119 12.0938H24.4307ZM29.1416 17.625H27.4072V9.14062H29.1416V17.625ZM30.4893 11.2617H32.2236V17.625H30.4893V11.2617ZM31.3564 10.4297C31.1846 10.4297 31.0264 10.3906 30.8818 10.3125C30.7373 10.2305 30.6221 10.123 30.5361 9.99023C30.4502 9.85352 30.4072 9.70703 30.4072 9.55078C30.4072 9.39062 30.4502 9.24219 30.5361 9.10547C30.6221 8.96875 30.7373 8.86133 30.8818 8.7832C31.0264 8.70117 31.1846 8.66016 31.3564 8.66016C31.5244 8.66016 31.6807 8.70117 31.8252 8.7832C31.9697 8.86133 32.083 8.96875 32.165 9.10547C32.251 9.24219 32.2939 9.39062 32.2939 9.55078C32.2939 9.70703 32.251 9.85352 32.165 9.99023C32.083 10.123 31.9697 10.2305 31.8252 10.3125C31.6807 10.3906 31.5244 10.4297 31.3564 10.4297ZM36.4307 17.7539C35.79 17.7539 35.2334 17.6152 34.7607 17.3379C34.292 17.0605 33.9326 16.6738 33.6826 16.1777C33.4365 15.6777 33.3135 15.1055 33.3135 14.4609C33.3135 13.8164 33.4385 13.2461 33.6885 12.75C33.9424 12.2539 34.3037 11.8691 34.7725 11.5957C35.2451 11.3184 35.7979 11.1797 36.4307 11.1797C36.9736 11.1797 37.4541 11.2793 37.8721 11.4785C38.29 11.6777 38.6182 11.9609 38.8564 12.3281C39.0986 12.6914 39.2314 13.1133 39.2549 13.5938H37.626C37.5713 13.2695 37.4424 13.0117 37.2393 12.8203C37.0361 12.6289 36.7744 12.5312 36.4541 12.5273C36.1768 12.5312 35.9326 12.6094 35.7217 12.7617C35.5146 12.9102 35.3545 13.1289 35.2412 13.418C35.1279 13.7031 35.0713 14.043 35.0713 14.4375C35.0713 14.8438 35.1279 15.1914 35.2412 15.4805C35.3545 15.7695 35.5146 15.9902 35.7217 16.1426C35.9287 16.2949 36.1729 16.3711 36.4541 16.3711C36.7627 16.3711 37.0205 16.2793 37.2275 16.0957C37.4385 15.9082 37.5713 15.6484 37.626 15.3164H39.2549C39.2314 15.7969 39.1006 16.2207 38.8623 16.5879C38.6279 16.9551 38.3018 17.2422 37.8838 17.4492C37.4697 17.6523 36.9854 17.7539 36.4307 17.7539ZM40.333 9.14062H42.0674V13.6992H42.1611L44.2236 11.2617H46.2158L43.8428 14.0156L46.3447 17.625H44.3057L42.5537 15.0352L42.0674 15.5859V17.625H40.333V9.14062Z" fill="white"/>
<g clip-path="url(#clip0_2268_925)">
<g filter="url(#filter0_d_2268_925)">
<path d="M32.5 36.2754C22.3413 36.2754 14.125 44.4916 14.125 54.6504C14.125 68.4316 32.5 88.7754 32.5 88.7754C32.5 88.7754 50.875 68.4316 50.875 54.6504C50.875 44.4916 42.6587 36.2754 32.5 36.2754ZM32.5 61.2129C28.8775 61.2129 25.9375 58.2729 25.9375 54.6504C25.9375 51.0279 28.8775 48.0879 32.5 48.0879C36.1225 48.0879 39.0625 51.0279 39.0625 54.6504C39.0625 58.2729 36.1225 61.2129 32.5 61.2129Z" fill="#FF83CA"/>
</g>
</g>
<defs>
<filter id="filter0_d_2268_925" x="12.125" y="36.2754" width="44.75" height="60.5" filterUnits="userSpaceOnUse" color-interpolation-filters="sRGB">
<feFlood flood-opacity="0" result="BackgroundImageFix"/>
<feColorMatrix in="SourceAlpha" type="matrix" values="0 0 0 0 0 0 0 0 0 0 0 0 0 0 0 0 0 0 127 0" result="hardAlpha"/>
<feOffset dx="2" dy="4"/>
<feGaussianBlur stdDeviation="2"/>
<feComposite in2="hardAlpha" operator="out"/>
<feColorMatrix type="matrix" values="0 0 0 0 0 0 0 0 0 0 0 0 0 0 0 0 0 0 0.25 0"/>
<feBlend mode="normal" in2="BackgroundImageFix" result="effect1_dropShadow_2268_925"/>
<feBlend mode="normal" in="SourceGraphic" in2="effect1_dropShadow_2268_925" result="shape"/>
</filter>
<clipPath id="clip0_2268_925">
<rect width="63" height="63" fill="white" transform="translate(1 31.0254)"/>
</clipPath>
</defs>
</svg>
