<svg width="64" height="95" viewBox="0 0 64 95" fill="none" xmlns="http://www.w3.org/2000/svg">
<path d="M9.45605 0C4.48549 0 0.456055 4.02944 0.456055 9V18C0.456055 22.9706 4.48549 27 9.45605 27H12.8311L18.9561 34V27H54.4561C59.4266 27 63.4561 22.9706 63.4561 18V9C63.4561 4.02944 59.4266 0 54.4561 0H9.45605Z" fill="#5ECC17" fill-opacity="0.8"/>
<path d="M24.1924 12.0938C24.1221 11.6289 23.9209 11.2617 23.5889 10.9922C23.2568 10.7227 22.8408 10.5859 22.3408 10.582C21.8994 10.5859 21.5127 10.6973 21.1807 10.916C20.8525 11.1348 20.5986 11.4551 20.4189 11.877C20.2393 12.2949 20.1494 12.7969 20.1494 13.3828C20.1494 13.9805 20.2393 14.4883 20.4189 14.9062C20.6025 15.3242 20.8564 15.6406 21.1807 15.8555C21.5088 16.0703 21.8916 16.1797 22.3291 16.1836C22.8174 16.1797 23.2295 16.0508 23.5654 15.7969C23.9014 15.5391 24.1104 15.1836 24.1924 14.7305L25.9736 14.7422C25.9072 15.2773 25.7178 15.7734 25.4053 16.2305C25.0928 16.6875 24.6709 17.0547 24.1396 17.332C23.6084 17.6055 22.9971 17.7422 22.3057 17.7422C21.5439 17.7422 20.8643 17.5703 20.2666 17.2266C19.6729 16.8789 19.2061 16.377 18.8662 15.7207C18.5264 15.0605 18.3564 14.2812 18.3564 13.3828C18.3564 12.4805 18.5264 11.7012 18.8662 11.0449C19.21 10.3887 19.6807 9.88867 20.2783 9.54492C20.876 9.19727 21.5518 9.02344 22.3057 9.02344C22.958 9.02344 23.5479 9.14453 24.0752 9.38672C24.6025 9.62891 25.0303 9.98047 25.3584 10.4414C25.6904 10.9023 25.8955 11.4531 25.9736 12.0938H24.1924ZM28.9033 17.625H27.1689V9.14062H28.9033V17.625ZM30.251 11.2617H31.9854V17.625H30.251V11.2617ZM31.1182 10.4297C30.9463 10.4297 30.7881 10.3906 30.6436 10.3125C30.499 10.2305 30.3838 10.123 30.2979 9.99023C30.2119 9.85352 30.1689 9.70703 30.1689 9.55078C30.1689 9.39062 30.2119 9.24219 30.2979 9.10547C30.3838 8.96875 30.499 8.86133 30.6436 8.7832C30.7881 8.70117 30.9463 8.66016 31.1182 8.66016C31.2861 8.66016 31.4424 8.70117 31.5869 8.7832C31.7314 8.86133 31.8447 8.96875 31.9268 9.10547C32.0127 9.24219 32.0557 9.39062 32.0557 9.55078C32.0557 9.70703 32.0127 9.85352 31.9268 9.99023C31.8447 10.123 31.7314 10.2305 31.5869 10.3125C31.4424 10.3906 31.2861 10.4297 31.1182 10.4297ZM36.1924 17.7539C35.5518 17.7539 34.9951 17.6152 34.5225 17.3379C34.0537 17.0605 33.6943 16.6738 33.4443 16.1777C33.1982 15.6777 33.0752 15.1055 33.0752 14.4609C33.0752 13.8164 33.2002 13.2461 33.4502 12.75C33.7041 12.2539 34.0654 11.8691 34.5342 11.5957C35.0068 11.3184 35.5596 11.1797 36.1924 11.1797C36.7354 11.1797 37.2158 11.2793 37.6338 11.4785C38.0518 11.6777 38.3799 11.9609 38.6182 12.3281C38.8604 12.6914 38.9932 13.1133 39.0166 13.5938H37.3877C37.333 13.2695 37.2041 13.0117 37.001 12.8203C36.7979 12.6289 36.5361 12.5312 36.2158 12.5273C35.9385 12.5312 35.6943 12.6094 35.4834 12.7617C35.2764 12.9102 35.1162 13.1289 35.0029 13.418C34.8896 13.7031 34.833 14.043 34.833 14.4375C34.833 14.8438 34.8896 15.1914 35.0029 15.4805C35.1162 15.7695 35.2764 15.9902 35.4834 16.1426C35.6904 16.2949 35.9346 16.3711 36.2158 16.3711C36.5244 16.3711 36.7822 16.2793 36.9893 16.0957C37.2002 15.9082 37.333 15.6484 37.3877 15.3164H39.0166C38.9932 15.7969 38.8623 16.2207 38.624 16.5879C38.3896 16.9551 38.0635 17.2422 37.6455 17.4492C37.2314 17.6523 36.7471 17.7539 36.1924 17.7539ZM40.0947 9.14062H41.8291V13.6992H41.9229L43.9854 11.2617H45.9775L43.6045 14.0156L46.1064 17.625H44.0674L42.3154 15.0352L41.8291 15.5859V17.625H40.0947V9.14062Z" fill="white"/>
<g clip-path="url(#clip0_2268_916)">
<g filter="url(#filter0_d_2268_916)">
<path d="M31.9561 36.2754C21.7973 36.2754 13.5811 44.4916 13.5811 54.6504C13.5811 68.4316 31.9561 88.7754 31.9561 88.7754C31.9561 88.7754 50.3311 68.4316 50.3311 54.6504C50.3311 44.4916 42.1148 36.2754 31.9561 36.2754ZM31.9561 61.2129C28.3336 61.2129 25.3936 58.2729 25.3936 54.6504C25.3936 51.0279 28.3336 48.0879 31.9561 48.0879C35.5786 48.0879 38.5186 51.0279 38.5186 54.6504C38.5186 58.2729 35.5786 61.2129 31.9561 61.2129Z" fill="#5ECC17"/>
</g>
</g>
<defs>
<filter id="filter0_d_2268_916" x="11.5811" y="36.2754" width="44.75" height="60.5" filterUnits="userSpaceOnUse" color-interpolation-filters="sRGB">
<feFlood flood-opacity="0" result="BackgroundImageFix"/>
<feColorMatrix in="SourceAlpha" type="matrix" values="0 0 0 0 0 0 0 0 0 0 0 0 0 0 0 0 0 0 127 0" result="hardAlpha"/>
<feOffset dx="2" dy="4"/>
<feGaussianBlur stdDeviation="2"/>
<feComposite in2="hardAlpha" operator="out"/>
<feColorMatrix type="matrix" values="0 0 0 0 0 0 0 0 0 0 0 0 0 0 0 0 0 0 0.25 0"/>
<feBlend mode="normal" in2="BackgroundImageFix" result="effect1_dropShadow_2268_916"/>
<feBlend mode="normal" in="SourceGraphic" in2="effect1_dropShadow_2268_916" result="shape"/>
</filter>
<clipPath id="clip0_2268_916">
<rect width="63" height="63" fill="white" transform="translate(0.456055 31.0254)"/>
</clipPath>
</defs>
</svg>
