<svg width="64" height="95" viewBox="0 0 64 95" fill="none" xmlns="http://www.w3.org/2000/svg">
<path d="M9.78955 0C4.81899 0 0.789551 4.02944 0.789551 9V18C0.789551 22.9706 4.81899 27 9.78955 27H13.1646L19.2896 34V27H54.7896C59.7601 27 63.7896 22.9706 63.7896 18V9C63.7896 4.02944 59.7601 0 54.7896 0H9.78955Z" fill="#DB45FF" fill-opacity="0.8"/>
<path d="M24.5259 12.0938C24.4556 11.6289 24.2544 11.2617 23.9224 10.9922C23.5903 10.7227 23.1743 10.5859 22.6743 10.582C22.2329 10.5859 21.8462 10.6973 21.5142 10.916C21.186 11.1348 20.9321 11.4551 20.7524 11.877C20.5728 12.2949 20.4829 12.7969 20.4829 13.3828C20.4829 13.9805 20.5728 14.4883 20.7524 14.9062C20.936 15.3242 21.1899 15.6406 21.5142 15.8555C21.8423 16.0703 22.2251 16.1797 22.6626 16.1836C23.1509 16.1797 23.563 16.0508 23.8989 15.7969C24.2349 15.5391 24.4438 15.1836 24.5259 14.7305L26.3071 14.7422C26.2407 15.2773 26.0513 15.7734 25.7388 16.2305C25.4263 16.6875 25.0044 17.0547 24.4731 17.332C23.9419 17.6055 23.3306 17.7422 22.6392 17.7422C21.8774 17.7422 21.1978 17.5703 20.6001 17.2266C20.0063 16.8789 19.5396 16.377 19.1997 15.7207C18.8599 15.0605 18.6899 14.2812 18.6899 13.3828C18.6899 12.4805 18.8599 11.7012 19.1997 11.0449C19.5435 10.3887 20.0142 9.88867 20.6118 9.54492C21.2095 9.19727 21.8853 9.02344 22.6392 9.02344C23.2915 9.02344 23.8813 9.14453 24.4087 9.38672C24.936 9.62891 25.3638 9.98047 25.6919 10.4414C26.0239 10.9023 26.229 11.4531 26.3071 12.0938H24.5259ZM29.2368 17.625H27.5024V9.14062H29.2368V17.625ZM30.5845 11.2617H32.3188V17.625H30.5845V11.2617ZM31.4517 10.4297C31.2798 10.4297 31.1216 10.3906 30.9771 10.3125C30.8325 10.2305 30.7173 10.123 30.6313 9.99023C30.5454 9.85352 30.5024 9.70703 30.5024 9.55078C30.5024 9.39062 30.5454 9.24219 30.6313 9.10547C30.7173 8.96875 30.8325 8.86133 30.9771 8.7832C31.1216 8.70117 31.2798 8.66016 31.4517 8.66016C31.6196 8.66016 31.7759 8.70117 31.9204 8.7832C32.0649 8.86133 32.1782 8.96875 32.2603 9.10547C32.3462 9.24219 32.3892 9.39062 32.3892 9.55078C32.3892 9.70703 32.3462 9.85352 32.2603 9.99023C32.1782 10.123 32.0649 10.2305 31.9204 10.3125C31.7759 10.3906 31.6196 10.4297 31.4517 10.4297ZM36.5259 17.7539C35.8853 17.7539 35.3286 17.6152 34.856 17.3379C34.3872 17.0605 34.0278 16.6738 33.7778 16.1777C33.5317 15.6777 33.4087 15.1055 33.4087 14.4609C33.4087 13.8164 33.5337 13.2461 33.7837 12.75C34.0376 12.2539 34.3989 11.8691 34.8677 11.5957C35.3403 11.3184 35.8931 11.1797 36.5259 11.1797C37.0688 11.1797 37.5493 11.2793 37.9673 11.4785C38.3853 11.6777 38.7134 11.9609 38.9517 12.3281C39.1938 12.6914 39.3267 13.1133 39.3501 13.5938H37.7212C37.6665 13.2695 37.5376 13.0117 37.3345 12.8203C37.1313 12.6289 36.8696 12.5312 36.5493 12.5273C36.272 12.5312 36.0278 12.6094 35.8169 12.7617C35.6099 12.9102 35.4497 13.1289 35.3364 13.418C35.2231 13.7031 35.1665 14.043 35.1665 14.4375C35.1665 14.8438 35.2231 15.1914 35.3364 15.4805C35.4497 15.7695 35.6099 15.9902 35.8169 16.1426C36.0239 16.2949 36.2681 16.3711 36.5493 16.3711C36.8579 16.3711 37.1157 16.2793 37.3228 16.0957C37.5337 15.9082 37.6665 15.6484 37.7212 15.3164H39.3501C39.3267 15.7969 39.1958 16.2207 38.9575 16.5879C38.7231 16.9551 38.397 17.2422 37.979 17.4492C37.5649 17.6523 37.0806 17.7539 36.5259 17.7539ZM40.4282 9.14062H42.1626V13.6992H42.2563L44.3188 11.2617H46.311L43.938 14.0156L46.4399 17.625H44.4009L42.6489 15.0352L42.1626 15.5859V17.625H40.4282V9.14062Z" fill="white"/>
<g clip-path="url(#clip0_2268_924)">
<g filter="url(#filter0_d_2268_924)">
<path d="M32.5 36.2754C22.3413 36.2754 14.125 44.4916 14.125 54.6504C14.125 68.4316 32.5 88.7754 32.5 88.7754C32.5 88.7754 50.875 68.4316 50.875 54.6504C50.875 44.4916 42.6587 36.2754 32.5 36.2754ZM32.5 61.2129C28.8775 61.2129 25.9375 58.2729 25.9375 54.6504C25.9375 51.0279 28.8775 48.0879 32.5 48.0879C36.1225 48.0879 39.0625 51.0279 39.0625 54.6504C39.0625 58.2729 36.1225 61.2129 32.5 61.2129Z" fill="#DB45FF"/>
</g>
</g>
<defs>
<filter id="filter0_d_2268_924" x="12.125" y="36.2754" width="44.75" height="60.5" filterUnits="userSpaceOnUse" color-interpolation-filters="sRGB">
<feFlood flood-opacity="0" result="BackgroundImageFix"/>
<feColorMatrix in="SourceAlpha" type="matrix" values="0 0 0 0 0 0 0 0 0 0 0 0 0 0 0 0 0 0 127 0" result="hardAlpha"/>
<feOffset dx="2" dy="4"/>
<feGaussianBlur stdDeviation="2"/>
<feComposite in2="hardAlpha" operator="out"/>
<feColorMatrix type="matrix" values="0 0 0 0 0 0 0 0 0 0 0 0 0 0 0 0 0 0 0.25 0"/>
<feBlend mode="normal" in2="BackgroundImageFix" result="effect1_dropShadow_2268_924"/>
<feBlend mode="normal" in="SourceGraphic" in2="effect1_dropShadow_2268_924" result="shape"/>
</filter>
<clipPath id="clip0_2268_924">
<rect width="63" height="63" fill="white" transform="translate(1 31.0254)"/>
</clipPath>
</defs>
</svg>
