<svg width="72" height="103" viewBox="0 0 72 103" fill="none" xmlns="http://www.w3.org/2000/svg">
<g filter="url(#filter0_d_2268_918)">
<path d="M13.2656 0C8.29506 0 4.26562 4.02944 4.26562 9V18C4.26562 22.9706 8.29506 27 13.2656 27H16.6406L22.7656 34V27H58.2656C63.2362 27 67.2656 22.9706 67.2656 18V9C67.2656 4.02944 63.2362 0 58.2656 0H13.2656Z" fill="#3C840D" fill-opacity="0.8"/>
<path d="M28.002 12.0938C27.9316 11.6289 27.7305 11.2617 27.3984 10.9922C27.0664 10.7227 26.6504 10.5859 26.1504 10.582C25.709 10.5859 25.3223 10.6973 24.9902 10.916C24.6621 11.1348 24.4082 11.4551 24.2285 11.877C24.0488 12.2949 23.959 12.7969 23.959 13.3828C23.959 13.9805 24.0488 14.4883 24.2285 14.9062C24.4121 15.3242 24.666 15.6406 24.9902 15.8555C25.3184 16.0703 25.7012 16.1797 26.1387 16.1836C26.627 16.1797 27.0391 16.0508 27.375 15.7969C27.7109 15.5391 27.9199 15.1836 28.002 14.7305L29.7832 14.7422C29.7168 15.2773 29.5273 15.7734 29.2148 16.2305C28.9023 16.6875 28.4805 17.0547 27.9492 17.332C27.418 17.6055 26.8066 17.7422 26.1152 17.7422C25.3535 17.7422 24.6738 17.5703 24.0762 17.2266C23.4824 16.8789 23.0156 16.377 22.6758 15.7207C22.3359 15.0605 22.166 14.2812 22.166 13.3828C22.166 12.4805 22.3359 11.7012 22.6758 11.0449C23.0195 10.3887 23.4902 9.88867 24.0879 9.54492C24.6855 9.19727 25.3613 9.02344 26.1152 9.02344C26.7676 9.02344 27.3574 9.14453 27.8848 9.38672C28.4121 9.62891 28.8398 9.98047 29.168 10.4414C29.5 10.9023 29.7051 11.4531 29.7832 12.0938H28.002ZM32.7129 17.625H30.9785V9.14062H32.7129V17.625ZM34.0605 11.2617H35.7949V17.625H34.0605V11.2617ZM34.9277 10.4297C34.7559 10.4297 34.5977 10.3906 34.4531 10.3125C34.3086 10.2305 34.1934 10.123 34.1074 9.99023C34.0215 9.85352 33.9785 9.70703 33.9785 9.55078C33.9785 9.39062 34.0215 9.24219 34.1074 9.10547C34.1934 8.96875 34.3086 8.86133 34.4531 8.7832C34.5977 8.70117 34.7559 8.66016 34.9277 8.66016C35.0957 8.66016 35.252 8.70117 35.3965 8.7832C35.541 8.86133 35.6543 8.96875 35.7363 9.10547C35.8223 9.24219 35.8652 9.39062 35.8652 9.55078C35.8652 9.70703 35.8223 9.85352 35.7363 9.99023C35.6543 10.123 35.541 10.2305 35.3965 10.3125C35.252 10.3906 35.0957 10.4297 34.9277 10.4297ZM40.002 17.7539C39.3613 17.7539 38.8047 17.6152 38.332 17.3379C37.8633 17.0605 37.5039 16.6738 37.2539 16.1777C37.0078 15.6777 36.8848 15.1055 36.8848 14.4609C36.8848 13.8164 37.0098 13.2461 37.2598 12.75C37.5137 12.2539 37.875 11.8691 38.3438 11.5957C38.8164 11.3184 39.3691 11.1797 40.002 11.1797C40.5449 11.1797 41.0254 11.2793 41.4434 11.4785C41.8613 11.6777 42.1895 11.9609 42.4277 12.3281C42.6699 12.6914 42.8027 13.1133 42.8262 13.5938H41.1973C41.1426 13.2695 41.0137 13.0117 40.8105 12.8203C40.6074 12.6289 40.3457 12.5312 40.0254 12.5273C39.748 12.5312 39.5039 12.6094 39.293 12.7617C39.0859 12.9102 38.9258 13.1289 38.8125 13.418C38.6992 13.7031 38.6426 14.043 38.6426 14.4375C38.6426 14.8438 38.6992 15.1914 38.8125 15.4805C38.9258 15.7695 39.0859 15.9902 39.293 16.1426C39.5 16.2949 39.7441 16.3711 40.0254 16.3711C40.334 16.3711 40.5918 16.2793 40.7988 16.0957C41.0098 15.9082 41.1426 15.6484 41.1973 15.3164H42.8262C42.8027 15.7969 42.6719 16.2207 42.4336 16.5879C42.1992 16.9551 41.873 17.2422 41.4551 17.4492C41.041 17.6523 40.5566 17.7539 40.002 17.7539ZM43.9043 9.14062H45.6387V13.6992H45.7324L47.7949 11.2617H49.7871L47.4141 14.0156L49.916 17.625H47.877L46.125 15.0352L45.6387 15.5859V17.625H43.9043V9.14062Z" fill="#3F3F41"/>
<g clip-path="url(#clip0_2268_918)">
<g filter="url(#filter1_d_2268_918)">
<path d="M35.7656 36.2754C25.6069 36.2754 17.3906 44.4916 17.3906 54.6504C17.3906 68.4316 35.7656 88.7754 35.7656 88.7754C35.7656 88.7754 54.1406 68.4316 54.1406 54.6504C54.1406 44.4916 45.9244 36.2754 35.7656 36.2754ZM35.7656 61.2129C32.1431 61.2129 29.2031 58.2729 29.2031 54.6504C29.2031 51.0279 32.1431 48.0879 35.7656 48.0879C39.3881 48.0879 42.3281 51.0279 42.3281 54.6504C42.3281 58.2729 39.3881 61.2129 35.7656 61.2129Z" fill="#3C840D"/>
</g>
</g>
</g>
<defs>
<filter id="filter0_d_2268_918" x="0.265625" y="0" width="71" height="102.025" filterUnits="userSpaceOnUse" color-interpolation-filters="sRGB">
<feFlood flood-opacity="0" result="BackgroundImageFix"/>
<feColorMatrix in="SourceAlpha" type="matrix" values="0 0 0 0 0 0 0 0 0 0 0 0 0 0 0 0 0 0 127 0" result="hardAlpha"/>
<feOffset dy="4"/>
<feGaussianBlur stdDeviation="2"/>
<feComposite in2="hardAlpha" operator="out"/>
<feColorMatrix type="matrix" values="0 0 0 0 0 0 0 0 0 0 0 0 0 0 0 0 0 0 0.25 0"/>
<feBlend mode="normal" in2="BackgroundImageFix" result="effect1_dropShadow_2268_918"/>
<feBlend mode="normal" in="SourceGraphic" in2="effect1_dropShadow_2268_918" result="shape"/>
</filter>
<filter id="filter1_d_2268_918" x="15.3906" y="36.2754" width="44.75" height="60.5" filterUnits="userSpaceOnUse" color-interpolation-filters="sRGB">
<feFlood flood-opacity="0" result="BackgroundImageFix"/>
<feColorMatrix in="SourceAlpha" type="matrix" values="0 0 0 0 0 0 0 0 0 0 0 0 0 0 0 0 0 0 127 0" result="hardAlpha"/>
<feOffset dx="2" dy="4"/>
<feGaussianBlur stdDeviation="2"/>
<feComposite in2="hardAlpha" operator="out"/>
<feColorMatrix type="matrix" values="0 0 0 0 0 0 0 0 0 0 0 0 0 0 0 0 0 0 0.25 0"/>
<feBlend mode="normal" in2="BackgroundImageFix" result="effect1_dropShadow_2268_918"/>
<feBlend mode="normal" in="SourceGraphic" in2="effect1_dropShadow_2268_918" result="shape"/>
</filter>
<clipPath id="clip0_2268_918">
<rect width="63" height="63" fill="white" transform="translate(4.26562 31.0254)"/>
</clipPath>
</defs>
</svg>
