<svg width="72" height="95" viewBox="0 0 72 95" fill="none" xmlns="http://www.w3.org/2000/svg">
<g filter="url(#filter0_d_2268_928)">
<path d="M13.4087 0C8.43813 0 4.40869 4.02944 4.40869 9V18C4.40869 22.9706 8.43813 27 13.4087 27H16.7837L22.9087 34V27H58.4087C63.3793 27 67.4087 22.9706 67.4087 18V9C67.4087 4.02944 63.3793 0 58.4087 0H13.4087Z" fill="#F7CB16" fill-opacity="0.8" shape-rendering="crispEdges"/>
</g>
<path d="M28.145 12.0938C28.0747 11.6289 27.8735 11.2617 27.5415 10.9922C27.2095 10.7227 26.7935 10.5859 26.2935 10.582C25.8521 10.5859 25.4653 10.6973 25.1333 10.916C24.8052 11.1348 24.5513 11.4551 24.3716 11.877C24.1919 12.2949 24.1021 12.7969 24.1021 13.3828C24.1021 13.9805 24.1919 14.4883 24.3716 14.9062C24.5552 15.3242 24.8091 15.6406 25.1333 15.8555C25.4614 16.0703 25.8442 16.1797 26.2817 16.1836C26.77 16.1797 27.1821 16.0508 27.5181 15.7969C27.854 15.5391 28.063 15.1836 28.145 14.7305L29.9263 14.7422C29.8599 15.2773 29.6704 15.7734 29.3579 16.2305C29.0454 16.6875 28.6235 17.0547 28.0923 17.332C27.561 17.6055 26.9497 17.7422 26.2583 17.7422C25.4966 17.7422 24.8169 17.5703 24.2192 17.2266C23.6255 16.8789 23.1587 16.377 22.8188 15.7207C22.479 15.0605 22.3091 14.2812 22.3091 13.3828C22.3091 12.4805 22.479 11.7012 22.8188 11.0449C23.1626 10.3887 23.6333 9.88867 24.231 9.54492C24.8286 9.19727 25.5044 9.02344 26.2583 9.02344C26.9106 9.02344 27.5005 9.14453 28.0278 9.38672C28.5552 9.62891 28.9829 9.98047 29.311 10.4414C29.6431 10.9023 29.8481 11.4531 29.9263 12.0938H28.145ZM32.856 17.625H31.1216V9.14062H32.856V17.625ZM34.2036 11.2617H35.938V17.625H34.2036V11.2617ZM35.0708 10.4297C34.8989 10.4297 34.7407 10.3906 34.5962 10.3125C34.4517 10.2305 34.3364 10.123 34.2505 9.99023C34.1646 9.85352 34.1216 9.70703 34.1216 9.55078C34.1216 9.39062 34.1646 9.24219 34.2505 9.10547C34.3364 8.96875 34.4517 8.86133 34.5962 8.7832C34.7407 8.70117 34.8989 8.66016 35.0708 8.66016C35.2388 8.66016 35.395 8.70117 35.5396 8.7832C35.6841 8.86133 35.7974 8.96875 35.8794 9.10547C35.9653 9.24219 36.0083 9.39062 36.0083 9.55078C36.0083 9.70703 35.9653 9.85352 35.8794 9.99023C35.7974 10.123 35.6841 10.2305 35.5396 10.3125C35.395 10.3906 35.2388 10.4297 35.0708 10.4297ZM40.145 17.7539C39.5044 17.7539 38.9478 17.6152 38.4751 17.3379C38.0063 17.0605 37.647 16.6738 37.397 16.1777C37.1509 15.6777 37.0278 15.1055 37.0278 14.4609C37.0278 13.8164 37.1528 13.2461 37.4028 12.75C37.6567 12.2539 38.0181 11.8691 38.4868 11.5957C38.9595 11.3184 39.5122 11.1797 40.145 11.1797C40.688 11.1797 41.1685 11.2793 41.5864 11.4785C42.0044 11.6777 42.3325 11.9609 42.5708 12.3281C42.813 12.6914 42.9458 13.1133 42.9692 13.5938H41.3403C41.2856 13.2695 41.1567 13.0117 40.9536 12.8203C40.7505 12.6289 40.4888 12.5312 40.1685 12.5273C39.8911 12.5312 39.647 12.6094 39.436 12.7617C39.229 12.9102 39.0688 13.1289 38.9556 13.418C38.8423 13.7031 38.7856 14.043 38.7856 14.4375C38.7856 14.8438 38.8423 15.1914 38.9556 15.4805C39.0688 15.7695 39.229 15.9902 39.436 16.1426C39.6431 16.2949 39.8872 16.3711 40.1685 16.3711C40.4771 16.3711 40.7349 16.2793 40.9419 16.0957C41.1528 15.9082 41.2856 15.6484 41.3403 15.3164H42.9692C42.9458 15.7969 42.8149 16.2207 42.5767 16.5879C42.3423 16.9551 42.0161 17.2422 41.5981 17.4492C41.1841 17.6523 40.6997 17.7539 40.145 17.7539ZM44.0474 9.14062H45.7817V13.6992H45.8755L47.938 11.2617H49.9302L47.5571 14.0156L50.0591 17.625H48.02L46.2681 15.0352L45.7817 15.5859V17.625H44.0474V9.14062Z" fill="#3F3F41"/>
<g clip-path="url(#clip0_2268_928)">
<g filter="url(#filter1_d_2268_928)">
<path d="M35.5 36.2754C25.3413 36.2754 17.125 44.4916 17.125 54.6504C17.125 68.4316 35.5 88.7754 35.5 88.7754C35.5 88.7754 53.875 68.4316 53.875 54.6504C53.875 44.4916 45.6587 36.2754 35.5 36.2754ZM35.5 61.2129C31.8775 61.2129 28.9375 58.2729 28.9375 54.6504C28.9375 51.0279 31.8775 48.0879 35.5 48.0879C39.1225 48.0879 42.0625 51.0279 42.0625 54.6504C42.0625 58.2729 39.1225 61.2129 35.5 61.2129Z" fill="#F7CB16"/>
</g>
</g>
<defs>
<filter id="filter0_d_2268_928" x="0.408691" y="0" width="71" height="42" filterUnits="userSpaceOnUse" color-interpolation-filters="sRGB">
<feFlood flood-opacity="0" result="BackgroundImageFix"/>
<feColorMatrix in="SourceAlpha" type="matrix" values="0 0 0 0 0 0 0 0 0 0 0 0 0 0 0 0 0 0 127 0" result="hardAlpha"/>
<feOffset dy="4"/>
<feGaussianBlur stdDeviation="2"/>
<feComposite in2="hardAlpha" operator="out"/>
<feColorMatrix type="matrix" values="0 0 0 0 0 0 0 0 0 0 0 0 0 0 0 0 0 0 0.25 0"/>
<feBlend mode="normal" in2="BackgroundImageFix" result="effect1_dropShadow_2268_928"/>
<feBlend mode="normal" in="SourceGraphic" in2="effect1_dropShadow_2268_928" result="shape"/>
</filter>
<filter id="filter1_d_2268_928" x="15.125" y="36.2754" width="44.75" height="60.5" filterUnits="userSpaceOnUse" color-interpolation-filters="sRGB">
<feFlood flood-opacity="0" result="BackgroundImageFix"/>
<feColorMatrix in="SourceAlpha" type="matrix" values="0 0 0 0 0 0 0 0 0 0 0 0 0 0 0 0 0 0 127 0" result="hardAlpha"/>
<feOffset dx="2" dy="4"/>
<feGaussianBlur stdDeviation="2"/>
<feComposite in2="hardAlpha" operator="out"/>
<feColorMatrix type="matrix" values="0 0 0 0 0 0 0 0 0 0 0 0 0 0 0 0 0 0 0.25 0"/>
<feBlend mode="normal" in2="BackgroundImageFix" result="effect1_dropShadow_2268_928"/>
<feBlend mode="normal" in="SourceGraphic" in2="effect1_dropShadow_2268_928" result="shape"/>
</filter>
<clipPath id="clip0_2268_928">
<rect width="63" height="63" fill="white" transform="translate(4 31.0254)"/>
</clipPath>
</defs>
</svg>
