<svg width="72" height="95" viewBox="0 0 72 95" fill="none" xmlns="http://www.w3.org/2000/svg">
<g filter="url(#filter0_d_2268_930)">
<path d="M13.2183 0C8.2477 0 4.21826 4.02944 4.21826 9V18C4.21826 22.9706 8.2477 27 13.2183 27H16.5933L22.7183 34V27H58.2183C63.1888 27 67.2183 22.9706 67.2183 18V9C67.2183 4.02944 63.1888 0 58.2183 0H13.2183Z" fill="#FFEB0F" fill-opacity="0.8" shape-rendering="crispEdges"/>
</g>
<path d="M27.9546 12.0938C27.8843 11.6289 27.6831 11.2617 27.3511 10.9922C27.019 10.7227 26.603 10.5859 26.103 10.582C25.6616 10.5859 25.2749 10.6973 24.9429 10.916C24.6147 11.1348 24.3608 11.4551 24.1812 11.877C24.0015 12.2949 23.9116 12.7969 23.9116 13.3828C23.9116 13.9805 24.0015 14.4883 24.1812 14.9062C24.3647 15.3242 24.6187 15.6406 24.9429 15.8555C25.271 16.0703 25.6538 16.1797 26.0913 16.1836C26.5796 16.1797 26.9917 16.0508 27.3276 15.7969C27.6636 15.5391 27.8726 15.1836 27.9546 14.7305L29.7358 14.7422C29.6694 15.2773 29.48 15.7734 29.1675 16.2305C28.855 16.6875 28.4331 17.0547 27.9019 17.332C27.3706 17.6055 26.7593 17.7422 26.0679 17.7422C25.3062 17.7422 24.6265 17.5703 24.0288 17.2266C23.4351 16.8789 22.9683 16.377 22.6284 15.7207C22.2886 15.0605 22.1187 14.2812 22.1187 13.3828C22.1187 12.4805 22.2886 11.7012 22.6284 11.0449C22.9722 10.3887 23.4429 9.88867 24.0405 9.54492C24.6382 9.19727 25.314 9.02344 26.0679 9.02344C26.7202 9.02344 27.3101 9.14453 27.8374 9.38672C28.3647 9.62891 28.7925 9.98047 29.1206 10.4414C29.4526 10.9023 29.6577 11.4531 29.7358 12.0938H27.9546ZM32.6655 17.625H30.9312V9.14062H32.6655V17.625ZM34.0132 11.2617H35.7476V17.625H34.0132V11.2617ZM34.8804 10.4297C34.7085 10.4297 34.5503 10.3906 34.4058 10.3125C34.2612 10.2305 34.146 10.123 34.0601 9.99023C33.9741 9.85352 33.9312 9.70703 33.9312 9.55078C33.9312 9.39062 33.9741 9.24219 34.0601 9.10547C34.146 8.96875 34.2612 8.86133 34.4058 8.7832C34.5503 8.70117 34.7085 8.66016 34.8804 8.66016C35.0483 8.66016 35.2046 8.70117 35.3491 8.7832C35.4937 8.86133 35.6069 8.96875 35.689 9.10547C35.7749 9.24219 35.8179 9.39062 35.8179 9.55078C35.8179 9.70703 35.7749 9.85352 35.689 9.99023C35.6069 10.123 35.4937 10.2305 35.3491 10.3125C35.2046 10.3906 35.0483 10.4297 34.8804 10.4297ZM39.9546 17.7539C39.314 17.7539 38.7573 17.6152 38.2847 17.3379C37.8159 17.0605 37.4565 16.6738 37.2065 16.1777C36.9604 15.6777 36.8374 15.1055 36.8374 14.4609C36.8374 13.8164 36.9624 13.2461 37.2124 12.75C37.4663 12.2539 37.8276 11.8691 38.2964 11.5957C38.769 11.3184 39.3218 11.1797 39.9546 11.1797C40.4976 11.1797 40.978 11.2793 41.396 11.4785C41.814 11.6777 42.1421 11.9609 42.3804 12.3281C42.6226 12.6914 42.7554 13.1133 42.7788 13.5938H41.1499C41.0952 13.2695 40.9663 13.0117 40.7632 12.8203C40.5601 12.6289 40.2983 12.5312 39.978 12.5273C39.7007 12.5312 39.4565 12.6094 39.2456 12.7617C39.0386 12.9102 38.8784 13.1289 38.7651 13.418C38.6519 13.7031 38.5952 14.043 38.5952 14.4375C38.5952 14.8438 38.6519 15.1914 38.7651 15.4805C38.8784 15.7695 39.0386 15.9902 39.2456 16.1426C39.4526 16.2949 39.6968 16.3711 39.978 16.3711C40.2866 16.3711 40.5444 16.2793 40.7515 16.0957C40.9624 15.9082 41.0952 15.6484 41.1499 15.3164H42.7788C42.7554 15.7969 42.6245 16.2207 42.3862 16.5879C42.1519 16.9551 41.8257 17.2422 41.4077 17.4492C40.9937 17.6523 40.5093 17.7539 39.9546 17.7539ZM43.8569 9.14062H45.5913V13.6992H45.6851L47.7476 11.2617H49.7397L47.3667 14.0156L49.8687 17.625H47.8296L46.0776 15.0352L45.5913 15.5859V17.625H43.8569V9.14062Z" fill="#3F3F41"/>
<g clip-path="url(#clip0_2268_930)">
<g filter="url(#filter1_d_2268_930)">
<path d="M35.5 36.2754C25.3413 36.2754 17.125 44.4916 17.125 54.6504C17.125 68.4316 35.5 88.7754 35.5 88.7754C35.5 88.7754 53.875 68.4316 53.875 54.6504C53.875 44.4916 45.6587 36.2754 35.5 36.2754ZM35.5 61.2129C31.8775 61.2129 28.9375 58.2729 28.9375 54.6504C28.9375 51.0279 31.8775 48.0879 35.5 48.0879C39.1225 48.0879 42.0625 51.0279 42.0625 54.6504C42.0625 58.2729 39.1225 61.2129 35.5 61.2129Z" fill="#FFEB0F"/>
</g>
</g>
<defs>
<filter id="filter0_d_2268_930" x="0.218262" y="0" width="71" height="42" filterUnits="userSpaceOnUse" color-interpolation-filters="sRGB">
<feFlood flood-opacity="0" result="BackgroundImageFix"/>
<feColorMatrix in="SourceAlpha" type="matrix" values="0 0 0 0 0 0 0 0 0 0 0 0 0 0 0 0 0 0 127 0" result="hardAlpha"/>
<feOffset dy="4"/>
<feGaussianBlur stdDeviation="2"/>
<feComposite in2="hardAlpha" operator="out"/>
<feColorMatrix type="matrix" values="0 0 0 0 0 0 0 0 0 0 0 0 0 0 0 0 0 0 0.25 0"/>
<feBlend mode="normal" in2="BackgroundImageFix" result="effect1_dropShadow_2268_930"/>
<feBlend mode="normal" in="SourceGraphic" in2="effect1_dropShadow_2268_930" result="shape"/>
</filter>
<filter id="filter1_d_2268_930" x="15.125" y="36.2754" width="44.75" height="60.5" filterUnits="userSpaceOnUse" color-interpolation-filters="sRGB">
<feFlood flood-opacity="0" result="BackgroundImageFix"/>
<feColorMatrix in="SourceAlpha" type="matrix" values="0 0 0 0 0 0 0 0 0 0 0 0 0 0 0 0 0 0 127 0" result="hardAlpha"/>
<feOffset dx="2" dy="4"/>
<feGaussianBlur stdDeviation="2"/>
<feComposite in2="hardAlpha" operator="out"/>
<feColorMatrix type="matrix" values="0 0 0 0 0 0 0 0 0 0 0 0 0 0 0 0 0 0 0.25 0"/>
<feBlend mode="normal" in2="BackgroundImageFix" result="effect1_dropShadow_2268_930"/>
<feBlend mode="normal" in="SourceGraphic" in2="effect1_dropShadow_2268_930" result="shape"/>
</filter>
<clipPath id="clip0_2268_930">
<rect width="63" height="63" fill="white" transform="translate(4 31.0254)"/>
</clipPath>
</defs>
</svg>
