<svg width="64" height="95" viewBox="0 0 64 95" fill="none" xmlns="http://www.w3.org/2000/svg">
<path d="M9.97998 0C5.00942 0 0.97998 4.02944 0.97998 9V18C0.97998 22.9706 5.00942 27 9.97998 27H13.355L19.48 34V27H54.98C59.9505 27 63.98 22.9706 63.98 18V9C63.98 4.02944 59.9505 0 54.98 0H9.97998Z" fill="#0085FF" fill-opacity="0.8"/>
<path d="M24.7163 12.0938C24.646 11.6289 24.4448 11.2617 24.1128 10.9922C23.7808 10.7227 23.3647 10.5859 22.8647 10.582C22.4233 10.5859 22.0366 10.6973 21.7046 10.916C21.3765 11.1348 21.1226 11.4551 20.9429 11.877C20.7632 12.2949 20.6733 12.7969 20.6733 13.3828C20.6733 13.9805 20.7632 14.4883 20.9429 14.9062C21.1265 15.3242 21.3804 15.6406 21.7046 15.8555C22.0327 16.0703 22.4155 16.1797 22.853 16.1836C23.3413 16.1797 23.7534 16.0508 24.0894 15.7969C24.4253 15.5391 24.6343 15.1836 24.7163 14.7305L26.4976 14.7422C26.4312 15.2773 26.2417 15.7734 25.9292 16.2305C25.6167 16.6875 25.1948 17.0547 24.6636 17.332C24.1323 17.6055 23.521 17.7422 22.8296 17.7422C22.0679 17.7422 21.3882 17.5703 20.7905 17.2266C20.1968 16.8789 19.73 16.377 19.3901 15.7207C19.0503 15.0605 18.8804 14.2812 18.8804 13.3828C18.8804 12.4805 19.0503 11.7012 19.3901 11.0449C19.7339 10.3887 20.2046 9.88867 20.8022 9.54492C21.3999 9.19727 22.0757 9.02344 22.8296 9.02344C23.4819 9.02344 24.0718 9.14453 24.5991 9.38672C25.1265 9.62891 25.5542 9.98047 25.8823 10.4414C26.2144 10.9023 26.4194 11.4531 26.4976 12.0938H24.7163ZM29.4272 17.625H27.6929V9.14062H29.4272V17.625ZM30.7749 11.2617H32.5093V17.625H30.7749V11.2617ZM31.6421 10.4297C31.4702 10.4297 31.312 10.3906 31.1675 10.3125C31.0229 10.2305 30.9077 10.123 30.8218 9.99023C30.7358 9.85352 30.6929 9.70703 30.6929 9.55078C30.6929 9.39062 30.7358 9.24219 30.8218 9.10547C30.9077 8.96875 31.0229 8.86133 31.1675 8.7832C31.312 8.70117 31.4702 8.66016 31.6421 8.66016C31.8101 8.66016 31.9663 8.70117 32.1108 8.7832C32.2554 8.86133 32.3687 8.96875 32.4507 9.10547C32.5366 9.24219 32.5796 9.39062 32.5796 9.55078C32.5796 9.70703 32.5366 9.85352 32.4507 9.99023C32.3687 10.123 32.2554 10.2305 32.1108 10.3125C31.9663 10.3906 31.8101 10.4297 31.6421 10.4297ZM36.7163 17.7539C36.0757 17.7539 35.519 17.6152 35.0464 17.3379C34.5776 17.0605 34.2183 16.6738 33.9683 16.1777C33.7222 15.6777 33.5991 15.1055 33.5991 14.4609C33.5991 13.8164 33.7241 13.2461 33.9741 12.75C34.228 12.2539 34.5894 11.8691 35.0581 11.5957C35.5308 11.3184 36.0835 11.1797 36.7163 11.1797C37.2593 11.1797 37.7397 11.2793 38.1577 11.4785C38.5757 11.6777 38.9038 11.9609 39.1421 12.3281C39.3843 12.6914 39.5171 13.1133 39.5405 13.5938H37.9116C37.8569 13.2695 37.728 13.0117 37.5249 12.8203C37.3218 12.6289 37.0601 12.5312 36.7397 12.5273C36.4624 12.5312 36.2183 12.6094 36.0073 12.7617C35.8003 12.9102 35.6401 13.1289 35.5269 13.418C35.4136 13.7031 35.3569 14.043 35.3569 14.4375C35.3569 14.8438 35.4136 15.1914 35.5269 15.4805C35.6401 15.7695 35.8003 15.9902 36.0073 16.1426C36.2144 16.2949 36.4585 16.3711 36.7397 16.3711C37.0483 16.3711 37.3062 16.2793 37.5132 16.0957C37.7241 15.9082 37.8569 15.6484 37.9116 15.3164H39.5405C39.5171 15.7969 39.3862 16.2207 39.1479 16.5879C38.9136 16.9551 38.5874 17.2422 38.1694 17.4492C37.7554 17.6523 37.271 17.7539 36.7163 17.7539ZM40.6187 9.14062H42.353V13.6992H42.4468L44.5093 11.2617H46.5015L44.1284 14.0156L46.6304 17.625H44.5913L42.8394 15.0352L42.353 15.5859V17.625H40.6187V9.14062Z" fill="white"/>
<g clip-path="url(#clip0_2268_921)">
<g filter="url(#filter0_d_2268_921)">
<path d="M32.5 36.2754C22.3413 36.2754 14.125 44.4916 14.125 54.6504C14.125 68.4316 32.5 88.7754 32.5 88.7754C32.5 88.7754 50.875 68.4316 50.875 54.6504C50.875 44.4916 42.6587 36.2754 32.5 36.2754ZM32.5 61.2129C28.8775 61.2129 25.9375 58.2729 25.9375 54.6504C25.9375 51.0279 28.8775 48.0879 32.5 48.0879C36.1225 48.0879 39.0625 51.0279 39.0625 54.6504C39.0625 58.2729 36.1225 61.2129 32.5 61.2129Z" fill="#0085FF"/>
</g>
</g>
<defs>
<filter id="filter0_d_2268_921" x="12.125" y="36.2754" width="44.75" height="60.5" filterUnits="userSpaceOnUse" color-interpolation-filters="sRGB">
<feFlood flood-opacity="0" result="BackgroundImageFix"/>
<feColorMatrix in="SourceAlpha" type="matrix" values="0 0 0 0 0 0 0 0 0 0 0 0 0 0 0 0 0 0 127 0" result="hardAlpha"/>
<feOffset dx="2" dy="4"/>
<feGaussianBlur stdDeviation="2"/>
<feComposite in2="hardAlpha" operator="out"/>
<feColorMatrix type="matrix" values="0 0 0 0 0 0 0 0 0 0 0 0 0 0 0 0 0 0 0.25 0"/>
<feBlend mode="normal" in2="BackgroundImageFix" result="effect1_dropShadow_2268_921"/>
<feBlend mode="normal" in="SourceGraphic" in2="effect1_dropShadow_2268_921" result="shape"/>
</filter>
<clipPath id="clip0_2268_921">
<rect width="63" height="63" fill="white" transform="translate(1 31.0254)"/>
</clipPath>
</defs>
</svg>
