<svg width="71" height="103" viewBox="0 0 71 103" fill="none" xmlns="http://www.w3.org/2000/svg">
<g filter="url(#filter0_d_2268_894)">
<path d="M13 0C8.02944 0 4 4.02944 4 9V18C4 22.9706 8.02944 27 13 27H16.375L22.5 34V27H58C62.9706 27 67 22.9706 67 18V9C67 4.02944 62.9706 0 58 0H13Z" fill="#ADE534" fill-opacity="0.8"/>
<path d="M27.7363 12.0938C27.666 11.6289 27.4648 11.2617 27.1328 10.9922C26.8008 10.7227 26.3848 10.5859 25.8848 10.582C25.4434 10.5859 25.0566 10.6973 24.7246 10.916C24.3965 11.1348 24.1426 11.4551 23.9629 11.877C23.7832 12.2949 23.6934 12.7969 23.6934 13.3828C23.6934 13.9805 23.7832 14.4883 23.9629 14.9062C24.1465 15.3242 24.4004 15.6406 24.7246 15.8555C25.0527 16.0703 25.4355 16.1797 25.873 16.1836C26.3613 16.1797 26.7734 16.0508 27.1094 15.7969C27.4453 15.5391 27.6543 15.1836 27.7363 14.7305L29.5176 14.7422C29.4512 15.2773 29.2617 15.7734 28.9492 16.2305C28.6367 16.6875 28.2148 17.0547 27.6836 17.332C27.1523 17.6055 26.541 17.7422 25.8496 17.7422C25.0879 17.7422 24.4082 17.5703 23.8105 17.2266C23.2168 16.8789 22.75 16.377 22.4102 15.7207C22.0703 15.0605 21.9004 14.2812 21.9004 13.3828C21.9004 12.4805 22.0703 11.7012 22.4102 11.0449C22.7539 10.3887 23.2246 9.88867 23.8223 9.54492C24.4199 9.19727 25.0957 9.02344 25.8496 9.02344C26.502 9.02344 27.0918 9.14453 27.6191 9.38672C28.1465 9.62891 28.5742 9.98047 28.9023 10.4414C29.2344 10.9023 29.4395 11.4531 29.5176 12.0938H27.7363ZM32.4473 17.625H30.7129V9.14062H32.4473V17.625ZM33.7949 11.2617H35.5293V17.625H33.7949V11.2617ZM34.6621 10.4297C34.4902 10.4297 34.332 10.3906 34.1875 10.3125C34.043 10.2305 33.9277 10.123 33.8418 9.99023C33.7559 9.85352 33.7129 9.70703 33.7129 9.55078C33.7129 9.39062 33.7559 9.24219 33.8418 9.10547C33.9277 8.96875 34.043 8.86133 34.1875 8.7832C34.332 8.70117 34.4902 8.66016 34.6621 8.66016C34.8301 8.66016 34.9863 8.70117 35.1309 8.7832C35.2754 8.86133 35.3887 8.96875 35.4707 9.10547C35.5566 9.24219 35.5996 9.39062 35.5996 9.55078C35.5996 9.70703 35.5566 9.85352 35.4707 9.99023C35.3887 10.123 35.2754 10.2305 35.1309 10.3125C34.9863 10.3906 34.8301 10.4297 34.6621 10.4297ZM39.7363 17.7539C39.0957 17.7539 38.5391 17.6152 38.0664 17.3379C37.5977 17.0605 37.2383 16.6738 36.9883 16.1777C36.7422 15.6777 36.6191 15.1055 36.6191 14.4609C36.6191 13.8164 36.7441 13.2461 36.9941 12.75C37.248 12.2539 37.6094 11.8691 38.0781 11.5957C38.5508 11.3184 39.1035 11.1797 39.7363 11.1797C40.2793 11.1797 40.7598 11.2793 41.1777 11.4785C41.5957 11.6777 41.9238 11.9609 42.1621 12.3281C42.4043 12.6914 42.5371 13.1133 42.5605 13.5938H40.9316C40.877 13.2695 40.748 13.0117 40.5449 12.8203C40.3418 12.6289 40.0801 12.5312 39.7598 12.5273C39.4824 12.5312 39.2383 12.6094 39.0273 12.7617C38.8203 12.9102 38.6602 13.1289 38.5469 13.418C38.4336 13.7031 38.377 14.043 38.377 14.4375C38.377 14.8438 38.4336 15.1914 38.5469 15.4805C38.6602 15.7695 38.8203 15.9902 39.0273 16.1426C39.2344 16.2949 39.4785 16.3711 39.7598 16.3711C40.0684 16.3711 40.3262 16.2793 40.5332 16.0957C40.7441 15.9082 40.877 15.6484 40.9316 15.3164H42.5605C42.5371 15.7969 42.4062 16.2207 42.168 16.5879C41.9336 16.9551 41.6074 17.2422 41.1895 17.4492C40.7754 17.6523 40.291 17.7539 39.7363 17.7539ZM43.6387 9.14062H45.373V13.6992H45.4668L47.5293 11.2617H49.5215L47.1484 14.0156L49.6504 17.625H47.6113L45.8594 15.0352L45.373 15.5859V17.625H43.6387V9.14062Z" fill="#3F3F41"/>
<g clip-path="url(#clip0_2268_894)">
<g filter="url(#filter1_d_2268_894)">
<path d="M35.5 36.2754C25.3413 36.2754 17.125 44.4916 17.125 54.6504C17.125 68.4316 35.5 88.7754 35.5 88.7754C35.5 88.7754 53.875 68.4316 53.875 54.6504C53.875 44.4916 45.6587 36.2754 35.5 36.2754ZM35.5 61.2129C31.8775 61.2129 28.9375 58.2729 28.9375 54.6504C28.9375 51.0279 31.8775 48.0879 35.5 48.0879C39.1225 48.0879 42.0625 51.0279 42.0625 54.6504C42.0625 58.2729 39.1225 61.2129 35.5 61.2129Z" fill="#ADE634"/>
</g>
</g>
</g>
<defs>
<filter id="filter0_d_2268_894" x="0" y="0" width="71" height="102.025" filterUnits="userSpaceOnUse" color-interpolation-filters="sRGB">
<feFlood flood-opacity="0" result="BackgroundImageFix"/>
<feColorMatrix in="SourceAlpha" type="matrix" values="0 0 0 0 0 0 0 0 0 0 0 0 0 0 0 0 0 0 127 0" result="hardAlpha"/>
<feOffset dy="4"/>
<feGaussianBlur stdDeviation="2"/>
<feComposite in2="hardAlpha" operator="out"/>
<feColorMatrix type="matrix" values="0 0 0 0 0 0 0 0 0 0 0 0 0 0 0 0 0 0 0.25 0"/>
<feBlend mode="normal" in2="BackgroundImageFix" result="effect1_dropShadow_2268_894"/>
<feBlend mode="normal" in="SourceGraphic" in2="effect1_dropShadow_2268_894" result="shape"/>
</filter>
<filter id="filter1_d_2268_894" x="15.125" y="36.2754" width="44.75" height="60.5" filterUnits="userSpaceOnUse" color-interpolation-filters="sRGB">
<feFlood flood-opacity="0" result="BackgroundImageFix"/>
<feColorMatrix in="SourceAlpha" type="matrix" values="0 0 0 0 0 0 0 0 0 0 0 0 0 0 0 0 0 0 127 0" result="hardAlpha"/>
<feOffset dx="2" dy="4"/>
<feGaussianBlur stdDeviation="2"/>
<feComposite in2="hardAlpha" operator="out"/>
<feColorMatrix type="matrix" values="0 0 0 0 0 0 0 0 0 0 0 0 0 0 0 0 0 0 0.25 0"/>
<feBlend mode="normal" in2="BackgroundImageFix" result="effect1_dropShadow_2268_894"/>
<feBlend mode="normal" in="SourceGraphic" in2="effect1_dropShadow_2268_894" result="shape"/>
</filter>
<clipPath id="clip0_2268_894">
<rect width="63" height="63" fill="white" transform="translate(4 31.0254)"/>
</clipPath>
</defs>
</svg>
