<svg width="64" height="95" viewBox="0 0 64 95" fill="none" xmlns="http://www.w3.org/2000/svg">
<path d="M9.59912 0C4.62856 0 0.599121 4.02944 0.599121 9V18C0.599121 22.9706 4.62856 27 9.59912 27H12.9741L19.0991 34V27H54.5991C59.5697 27 63.5991 22.9706 63.5991 18V9C63.5991 4.02944 59.5697 0 54.5991 0H9.59912Z" fill="#FC94FF" fill-opacity="0.8"/>
<path d="M24.3354 12.0938C24.2651 11.6289 24.064 11.2617 23.7319 10.9922C23.3999 10.7227 22.9839 10.5859 22.4839 10.582C22.0425 10.5859 21.6558 10.6973 21.3237 10.916C20.9956 11.1348 20.7417 11.4551 20.562 11.877C20.3823 12.2949 20.2925 12.7969 20.2925 13.3828C20.2925 13.9805 20.3823 14.4883 20.562 14.9062C20.7456 15.3242 20.9995 15.6406 21.3237 15.8555C21.6519 16.0703 22.0347 16.1797 22.4722 16.1836C22.9604 16.1797 23.3726 16.0508 23.7085 15.7969C24.0444 15.5391 24.2534 15.1836 24.3354 14.7305L26.1167 14.7422C26.0503 15.2773 25.8608 15.7734 25.5483 16.2305C25.2358 16.6875 24.814 17.0547 24.2827 17.332C23.7515 17.6055 23.1401 17.7422 22.4487 17.7422C21.687 17.7422 21.0073 17.5703 20.4097 17.2266C19.8159 16.8789 19.3491 16.377 19.0093 15.7207C18.6694 15.0605 18.4995 14.2812 18.4995 13.3828C18.4995 12.4805 18.6694 11.7012 19.0093 11.0449C19.353 10.3887 19.8237 9.88867 20.4214 9.54492C21.019 9.19727 21.6948 9.02344 22.4487 9.02344C23.1011 9.02344 23.6909 9.14453 24.2183 9.38672C24.7456 9.62891 25.1733 9.98047 25.5015 10.4414C25.8335 10.9023 26.0386 11.4531 26.1167 12.0938H24.3354ZM29.0464 17.625H27.312V9.14062H29.0464V17.625ZM30.394 11.2617H32.1284V17.625H30.394V11.2617ZM31.2612 10.4297C31.0894 10.4297 30.9312 10.3906 30.7866 10.3125C30.6421 10.2305 30.5269 10.123 30.4409 9.99023C30.355 9.85352 30.312 9.70703 30.312 9.55078C30.312 9.39062 30.355 9.24219 30.4409 9.10547C30.5269 8.96875 30.6421 8.86133 30.7866 8.7832C30.9312 8.70117 31.0894 8.66016 31.2612 8.66016C31.4292 8.66016 31.5854 8.70117 31.73 8.7832C31.8745 8.86133 31.9878 8.96875 32.0698 9.10547C32.1558 9.24219 32.1987 9.39062 32.1987 9.55078C32.1987 9.70703 32.1558 9.85352 32.0698 9.99023C31.9878 10.123 31.8745 10.2305 31.73 10.3125C31.5854 10.3906 31.4292 10.4297 31.2612 10.4297ZM36.3354 17.7539C35.6948 17.7539 35.1382 17.6152 34.6655 17.3379C34.1968 17.0605 33.8374 16.6738 33.5874 16.1777C33.3413 15.6777 33.2183 15.1055 33.2183 14.4609C33.2183 13.8164 33.3433 13.2461 33.5933 12.75C33.8472 12.2539 34.2085 11.8691 34.6772 11.5957C35.1499 11.3184 35.7026 11.1797 36.3354 11.1797C36.8784 11.1797 37.3589 11.2793 37.7769 11.4785C38.1948 11.6777 38.5229 11.9609 38.7612 12.3281C39.0034 12.6914 39.1362 13.1133 39.1597 13.5938H37.5308C37.4761 13.2695 37.3472 13.0117 37.144 12.8203C36.9409 12.6289 36.6792 12.5312 36.3589 12.5273C36.0815 12.5312 35.8374 12.6094 35.6265 12.7617C35.4194 12.9102 35.2593 13.1289 35.146 13.418C35.0327 13.7031 34.9761 14.043 34.9761 14.4375C34.9761 14.8438 35.0327 15.1914 35.146 15.4805C35.2593 15.7695 35.4194 15.9902 35.6265 16.1426C35.8335 16.2949 36.0776 16.3711 36.3589 16.3711C36.6675 16.3711 36.9253 16.2793 37.1323 16.0957C37.3433 15.9082 37.4761 15.6484 37.5308 15.3164H39.1597C39.1362 15.7969 39.0054 16.2207 38.7671 16.5879C38.5327 16.9551 38.2065 17.2422 37.7886 17.4492C37.3745 17.6523 36.8901 17.7539 36.3354 17.7539ZM40.2378 9.14062H41.9722V13.6992H42.0659L44.1284 11.2617H46.1206L43.7476 14.0156L46.2495 17.625H44.2104L42.4585 15.0352L41.9722 15.5859V17.625H40.2378V9.14062Z" fill="white"/>
<g clip-path="url(#clip0_2268_926)">
<g filter="url(#filter0_d_2268_926)">
<path d="M32.5 36.2754C22.3413 36.2754 14.125 44.4916 14.125 54.6504C14.125 68.4316 32.5 88.7754 32.5 88.7754C32.5 88.7754 50.875 68.4316 50.875 54.6504C50.875 44.4916 42.6587 36.2754 32.5 36.2754ZM32.5 61.2129C28.8775 61.2129 25.9375 58.2729 25.9375 54.6504C25.9375 51.0279 28.8775 48.0879 32.5 48.0879C36.1225 48.0879 39.0625 51.0279 39.0625 54.6504C39.0625 58.2729 36.1225 61.2129 32.5 61.2129Z" fill="#FC94FF"/>
</g>
</g>
<defs>
<filter id="filter0_d_2268_926" x="12.125" y="36.2754" width="44.75" height="60.5" filterUnits="userSpaceOnUse" color-interpolation-filters="sRGB">
<feFlood flood-opacity="0" result="BackgroundImageFix"/>
<feColorMatrix in="SourceAlpha" type="matrix" values="0 0 0 0 0 0 0 0 0 0 0 0 0 0 0 0 0 0 127 0" result="hardAlpha"/>
<feOffset dx="2" dy="4"/>
<feGaussianBlur stdDeviation="2"/>
<feComposite in2="hardAlpha" operator="out"/>
<feColorMatrix type="matrix" values="0 0 0 0 0 0 0 0 0 0 0 0 0 0 0 0 0 0 0.25 0"/>
<feBlend mode="normal" in2="BackgroundImageFix" result="effect1_dropShadow_2268_926"/>
<feBlend mode="normal" in="SourceGraphic" in2="effect1_dropShadow_2268_926" result="shape"/>
</filter>
<clipPath id="clip0_2268_926">
<rect width="63" height="63" fill="white" transform="translate(1 31.0254)"/>
</clipPath>
</defs>
</svg>
