<svg width="64" height="95" viewBox="0 0 64 95" fill="none" xmlns="http://www.w3.org/2000/svg">
<path d="M9.36084 0C4.39028 0 0.36084 4.02944 0.36084 9V18C0.36084 22.9706 4.39028 27 9.36084 27H12.7358L18.8608 34V27H54.3608C59.3314 27 63.3608 22.9706 63.3608 18V9C63.3608 4.02944 59.3314 0 54.3608 0H9.36084Z" fill="#8AD161" fill-opacity="0.8"/>
<path d="M24.0972 12.0938C24.0269 11.6289 23.8257 11.2617 23.4937 10.9922C23.1616 10.7227 22.7456 10.5859 22.2456 10.582C21.8042 10.5859 21.4175 10.6973 21.0854 10.916C20.7573 11.1348 20.5034 11.4551 20.3237 11.877C20.144 12.2949 20.0542 12.7969 20.0542 13.3828C20.0542 13.9805 20.144 14.4883 20.3237 14.9062C20.5073 15.3242 20.7612 15.6406 21.0854 15.8555C21.4136 16.0703 21.7964 16.1797 22.2339 16.1836C22.7222 16.1797 23.1343 16.0508 23.4702 15.7969C23.8062 15.5391 24.0151 15.1836 24.0972 14.7305L25.8784 14.7422C25.812 15.2773 25.6226 15.7734 25.3101 16.2305C24.9976 16.6875 24.5757 17.0547 24.0444 17.332C23.5132 17.6055 22.9019 17.7422 22.2104 17.7422C21.4487 17.7422 20.769 17.5703 20.1714 17.2266C19.5776 16.8789 19.1108 16.377 18.771 15.7207C18.4312 15.0605 18.2612 14.2812 18.2612 13.3828C18.2612 12.4805 18.4312 11.7012 18.771 11.0449C19.1147 10.3887 19.5854 9.88867 20.1831 9.54492C20.7808 9.19727 21.4565 9.02344 22.2104 9.02344C22.8628 9.02344 23.4526 9.14453 23.98 9.38672C24.5073 9.62891 24.9351 9.98047 25.2632 10.4414C25.5952 10.9023 25.8003 11.4531 25.8784 12.0938H24.0972ZM28.8081 17.625H27.0737V9.14062H28.8081V17.625ZM30.1558 11.2617H31.8901V17.625H30.1558V11.2617ZM31.0229 10.4297C30.8511 10.4297 30.6929 10.3906 30.5483 10.3125C30.4038 10.2305 30.2886 10.123 30.2026 9.99023C30.1167 9.85352 30.0737 9.70703 30.0737 9.55078C30.0737 9.39062 30.1167 9.24219 30.2026 9.10547C30.2886 8.96875 30.4038 8.86133 30.5483 8.7832C30.6929 8.70117 30.8511 8.66016 31.0229 8.66016C31.1909 8.66016 31.3472 8.70117 31.4917 8.7832C31.6362 8.86133 31.7495 8.96875 31.8315 9.10547C31.9175 9.24219 31.9604 9.39062 31.9604 9.55078C31.9604 9.70703 31.9175 9.85352 31.8315 9.99023C31.7495 10.123 31.6362 10.2305 31.4917 10.3125C31.3472 10.3906 31.1909 10.4297 31.0229 10.4297ZM36.0972 17.7539C35.4565 17.7539 34.8999 17.6152 34.4272 17.3379C33.9585 17.0605 33.5991 16.6738 33.3491 16.1777C33.103 15.6777 32.98 15.1055 32.98 14.4609C32.98 13.8164 33.105 13.2461 33.355 12.75C33.6089 12.2539 33.9702 11.8691 34.439 11.5957C34.9116 11.3184 35.4644 11.1797 36.0972 11.1797C36.6401 11.1797 37.1206 11.2793 37.5386 11.4785C37.9565 11.6777 38.2847 11.9609 38.5229 12.3281C38.7651 12.6914 38.8979 13.1133 38.9214 13.5938H37.2925C37.2378 13.2695 37.1089 13.0117 36.9058 12.8203C36.7026 12.6289 36.4409 12.5312 36.1206 12.5273C35.8433 12.5312 35.5991 12.6094 35.3882 12.7617C35.1812 12.9102 35.021 13.1289 34.9077 13.418C34.7944 13.7031 34.7378 14.043 34.7378 14.4375C34.7378 14.8438 34.7944 15.1914 34.9077 15.4805C35.021 15.7695 35.1812 15.9902 35.3882 16.1426C35.5952 16.2949 35.8394 16.3711 36.1206 16.3711C36.4292 16.3711 36.687 16.2793 36.894 16.0957C37.105 15.9082 37.2378 15.6484 37.2925 15.3164H38.9214C38.8979 15.7969 38.7671 16.2207 38.5288 16.5879C38.2944 16.9551 37.9683 17.2422 37.5503 17.4492C37.1362 17.6523 36.6519 17.7539 36.0972 17.7539ZM39.9995 9.14062H41.7339V13.6992H41.8276L43.8901 11.2617H45.8823L43.5093 14.0156L46.0112 17.625H43.9722L42.2202 15.0352L41.7339 15.5859V17.625H39.9995V9.14062Z" fill="#3F3F41"/>
<g clip-path="url(#clip0_2268_917)">
<g filter="url(#filter0_d_2268_917)">
<path d="M31.8608 36.2754C21.7021 36.2754 13.4858 44.4916 13.4858 54.6504C13.4858 68.4316 31.8608 88.7754 31.8608 88.7754C31.8608 88.7754 50.2358 68.4316 50.2358 54.6504C50.2358 44.4916 42.0196 36.2754 31.8608 36.2754ZM31.8608 61.2129C28.2383 61.2129 25.2983 58.2729 25.2983 54.6504C25.2983 51.0279 28.2383 48.0879 31.8608 48.0879C35.4833 48.0879 38.4233 51.0279 38.4233 54.6504C38.4233 58.2729 35.4833 61.2129 31.8608 61.2129Z" fill="#8AD161"/>
</g>
</g>
<defs>
<filter id="filter0_d_2268_917" x="11.4858" y="36.2754" width="44.75" height="60.5" filterUnits="userSpaceOnUse" color-interpolation-filters="sRGB">
<feFlood flood-opacity="0" result="BackgroundImageFix"/>
<feColorMatrix in="SourceAlpha" type="matrix" values="0 0 0 0 0 0 0 0 0 0 0 0 0 0 0 0 0 0 127 0" result="hardAlpha"/>
<feOffset dx="2" dy="4"/>
<feGaussianBlur stdDeviation="2"/>
<feComposite in2="hardAlpha" operator="out"/>
<feColorMatrix type="matrix" values="0 0 0 0 0 0 0 0 0 0 0 0 0 0 0 0 0 0 0.25 0"/>
<feBlend mode="normal" in2="BackgroundImageFix" result="effect1_dropShadow_2268_917"/>
<feBlend mode="normal" in="SourceGraphic" in2="effect1_dropShadow_2268_917" result="shape"/>
</filter>
<clipPath id="clip0_2268_917">
<rect width="63" height="63" fill="white" transform="translate(0.36084 31.0254)"/>
</clipPath>
</defs>
</svg>
