<svg width="72" height="95" viewBox="0 0 72 95" fill="none" xmlns="http://www.w3.org/2000/svg">
<g filter="url(#filter0_d_2268_929)">
<path d="M13.3135 0C8.34291 0 4.31348 4.02944 4.31348 9V18C4.31348 22.9706 8.34291 27 13.3135 27H16.6885L22.8135 34V27H58.3135C63.284 27 67.3135 22.9706 67.3135 18V9C67.3135 4.02944 63.284 0 58.3135 0H13.3135Z" fill="#F2DC17" fill-opacity="0.8" shape-rendering="crispEdges"/>
</g>
<path d="M28.0498 12.0938C27.9795 11.6289 27.7783 11.2617 27.4463 10.9922C27.1143 10.7227 26.6982 10.5859 26.1982 10.582C25.7568 10.5859 25.3701 10.6973 25.0381 10.916C24.71 11.1348 24.4561 11.4551 24.2764 11.877C24.0967 12.2949 24.0068 12.7969 24.0068 13.3828C24.0068 13.9805 24.0967 14.4883 24.2764 14.9062C24.46 15.3242 24.7139 15.6406 25.0381 15.8555C25.3662 16.0703 25.749 16.1797 26.1865 16.1836C26.6748 16.1797 27.0869 16.0508 27.4229 15.7969C27.7588 15.5391 27.9678 15.1836 28.0498 14.7305L29.8311 14.7422C29.7646 15.2773 29.5752 15.7734 29.2627 16.2305C28.9502 16.6875 28.5283 17.0547 27.9971 17.332C27.4658 17.6055 26.8545 17.7422 26.1631 17.7422C25.4014 17.7422 24.7217 17.5703 24.124 17.2266C23.5303 16.8789 23.0635 16.377 22.7236 15.7207C22.3838 15.0605 22.2139 14.2812 22.2139 13.3828C22.2139 12.4805 22.3838 11.7012 22.7236 11.0449C23.0674 10.3887 23.5381 9.88867 24.1357 9.54492C24.7334 9.19727 25.4092 9.02344 26.1631 9.02344C26.8154 9.02344 27.4053 9.14453 27.9326 9.38672C28.46 9.62891 28.8877 9.98047 29.2158 10.4414C29.5479 10.9023 29.7529 11.4531 29.8311 12.0938H28.0498ZM32.7607 17.625H31.0264V9.14062H32.7607V17.625ZM34.1084 11.2617H35.8428V17.625H34.1084V11.2617ZM34.9756 10.4297C34.8037 10.4297 34.6455 10.3906 34.501 10.3125C34.3564 10.2305 34.2412 10.123 34.1553 9.99023C34.0693 9.85352 34.0264 9.70703 34.0264 9.55078C34.0264 9.39062 34.0693 9.24219 34.1553 9.10547C34.2412 8.96875 34.3564 8.86133 34.501 8.7832C34.6455 8.70117 34.8037 8.66016 34.9756 8.66016C35.1436 8.66016 35.2998 8.70117 35.4443 8.7832C35.5889 8.86133 35.7021 8.96875 35.7842 9.10547C35.8701 9.24219 35.9131 9.39062 35.9131 9.55078C35.9131 9.70703 35.8701 9.85352 35.7842 9.99023C35.7021 10.123 35.5889 10.2305 35.4443 10.3125C35.2998 10.3906 35.1436 10.4297 34.9756 10.4297ZM40.0498 17.7539C39.4092 17.7539 38.8525 17.6152 38.3799 17.3379C37.9111 17.0605 37.5518 16.6738 37.3018 16.1777C37.0557 15.6777 36.9326 15.1055 36.9326 14.4609C36.9326 13.8164 37.0576 13.2461 37.3076 12.75C37.5615 12.2539 37.9229 11.8691 38.3916 11.5957C38.8643 11.3184 39.417 11.1797 40.0498 11.1797C40.5928 11.1797 41.0732 11.2793 41.4912 11.4785C41.9092 11.6777 42.2373 11.9609 42.4756 12.3281C42.7178 12.6914 42.8506 13.1133 42.874 13.5938H41.2451C41.1904 13.2695 41.0615 13.0117 40.8584 12.8203C40.6553 12.6289 40.3936 12.5312 40.0732 12.5273C39.7959 12.5312 39.5518 12.6094 39.3408 12.7617C39.1338 12.9102 38.9736 13.1289 38.8604 13.418C38.7471 13.7031 38.6904 14.043 38.6904 14.4375C38.6904 14.8438 38.7471 15.1914 38.8604 15.4805C38.9736 15.7695 39.1338 15.9902 39.3408 16.1426C39.5479 16.2949 39.792 16.3711 40.0732 16.3711C40.3818 16.3711 40.6396 16.2793 40.8467 16.0957C41.0576 15.9082 41.1904 15.6484 41.2451 15.3164H42.874C42.8506 15.7969 42.7197 16.2207 42.4814 16.5879C42.2471 16.9551 41.9209 17.2422 41.5029 17.4492C41.0889 17.6523 40.6045 17.7539 40.0498 17.7539ZM43.9521 9.14062H45.6865V13.6992H45.7803L47.8428 11.2617H49.835L47.4619 14.0156L49.9639 17.625H47.9248L46.1729 15.0352L45.6865 15.5859V17.625H43.9521V9.14062Z" fill="#3F3F41"/>
<g clip-path="url(#clip0_2268_929)">
<g filter="url(#filter1_d_2268_929)">
<path d="M35.5 36.2754C25.3413 36.2754 17.125 44.4916 17.125 54.6504C17.125 68.4316 35.5 88.7754 35.5 88.7754C35.5 88.7754 53.875 68.4316 53.875 54.6504C53.875 44.4916 45.6587 36.2754 35.5 36.2754ZM35.5 61.2129C31.8775 61.2129 28.9375 58.2729 28.9375 54.6504C28.9375 51.0279 31.8775 48.0879 35.5 48.0879C39.1225 48.0879 42.0625 51.0279 42.0625 54.6504C42.0625 58.2729 39.1225 61.2129 35.5 61.2129Z" fill="#F2DC17"/>
</g>
</g>
<defs>
<filter id="filter0_d_2268_929" x="0.313477" y="0" width="71" height="42" filterUnits="userSpaceOnUse" color-interpolation-filters="sRGB">
<feFlood flood-opacity="0" result="BackgroundImageFix"/>
<feColorMatrix in="SourceAlpha" type="matrix" values="0 0 0 0 0 0 0 0 0 0 0 0 0 0 0 0 0 0 127 0" result="hardAlpha"/>
<feOffset dy="4"/>
<feGaussianBlur stdDeviation="2"/>
<feComposite in2="hardAlpha" operator="out"/>
<feColorMatrix type="matrix" values="0 0 0 0 0 0 0 0 0 0 0 0 0 0 0 0 0 0 0.25 0"/>
<feBlend mode="normal" in2="BackgroundImageFix" result="effect1_dropShadow_2268_929"/>
<feBlend mode="normal" in="SourceGraphic" in2="effect1_dropShadow_2268_929" result="shape"/>
</filter>
<filter id="filter1_d_2268_929" x="15.125" y="36.2754" width="44.75" height="60.5" filterUnits="userSpaceOnUse" color-interpolation-filters="sRGB">
<feFlood flood-opacity="0" result="BackgroundImageFix"/>
<feColorMatrix in="SourceAlpha" type="matrix" values="0 0 0 0 0 0 0 0 0 0 0 0 0 0 0 0 0 0 127 0" result="hardAlpha"/>
<feOffset dx="2" dy="4"/>
<feGaussianBlur stdDeviation="2"/>
<feComposite in2="hardAlpha" operator="out"/>
<feColorMatrix type="matrix" values="0 0 0 0 0 0 0 0 0 0 0 0 0 0 0 0 0 0 0.25 0"/>
<feBlend mode="normal" in2="BackgroundImageFix" result="effect1_dropShadow_2268_929"/>
<feBlend mode="normal" in="SourceGraphic" in2="effect1_dropShadow_2268_929" result="shape"/>
</filter>
<clipPath id="clip0_2268_929">
<rect width="63" height="63" fill="white" transform="translate(4 31.0254)"/>
</clipPath>
</defs>
</svg>
