<svg width="64" height="95" viewBox="0 0 64 95" fill="none" xmlns="http://www.w3.org/2000/svg">
<path d="M9.17041 0C4.19985 0 0.17041 4.02944 0.17041 9V18C0.17041 22.9706 4.19985 27 9.17041 27H12.5454L18.6704 34V27H54.1704C59.141 27 63.1704 22.9706 63.1704 18V9C63.1704 4.02944 59.141 0 54.1704 0H9.17041Z" fill="#81CFFF" fill-opacity="0.8"/>
<path d="M23.9067 12.0938C23.8364 11.6289 23.6353 11.2617 23.3032 10.9922C22.9712 10.7227 22.5552 10.5859 22.0552 10.582C21.6138 10.5859 21.2271 10.6973 20.895 10.916C20.5669 11.1348 20.313 11.4551 20.1333 11.877C19.9536 12.2949 19.8638 12.7969 19.8638 13.3828C19.8638 13.9805 19.9536 14.4883 20.1333 14.9062C20.3169 15.3242 20.5708 15.6406 20.895 15.8555C21.2231 16.0703 21.606 16.1797 22.0435 16.1836C22.5317 16.1797 22.9438 16.0508 23.2798 15.7969C23.6157 15.5391 23.8247 15.1836 23.9067 14.7305L25.688 14.7422C25.6216 15.2773 25.4321 15.7734 25.1196 16.2305C24.8071 16.6875 24.3853 17.0547 23.854 17.332C23.3228 17.6055 22.7114 17.7422 22.02 17.7422C21.2583 17.7422 20.5786 17.5703 19.981 17.2266C19.3872 16.8789 18.9204 16.377 18.5806 15.7207C18.2407 15.0605 18.0708 14.2812 18.0708 13.3828C18.0708 12.4805 18.2407 11.7012 18.5806 11.0449C18.9243 10.3887 19.395 9.88867 19.9927 9.54492C20.5903 9.19727 21.2661 9.02344 22.02 9.02344C22.6724 9.02344 23.2622 9.14453 23.7896 9.38672C24.3169 9.62891 24.7446 9.98047 25.0728 10.4414C25.4048 10.9023 25.6099 11.4531 25.688 12.0938H23.9067ZM28.6177 17.625H26.8833V9.14062H28.6177V17.625ZM29.9653 11.2617H31.6997V17.625H29.9653V11.2617ZM30.8325 10.4297C30.6606 10.4297 30.5024 10.3906 30.3579 10.3125C30.2134 10.2305 30.0981 10.123 30.0122 9.99023C29.9263 9.85352 29.8833 9.70703 29.8833 9.55078C29.8833 9.39062 29.9263 9.24219 30.0122 9.10547C30.0981 8.96875 30.2134 8.86133 30.3579 8.7832C30.5024 8.70117 30.6606 8.66016 30.8325 8.66016C31.0005 8.66016 31.1567 8.70117 31.3013 8.7832C31.4458 8.86133 31.5591 8.96875 31.6411 9.10547C31.7271 9.24219 31.77 9.39062 31.77 9.55078C31.77 9.70703 31.7271 9.85352 31.6411 9.99023C31.5591 10.123 31.4458 10.2305 31.3013 10.3125C31.1567 10.3906 31.0005 10.4297 30.8325 10.4297ZM35.9067 17.7539C35.2661 17.7539 34.7095 17.6152 34.2368 17.3379C33.7681 17.0605 33.4087 16.6738 33.1587 16.1777C32.9126 15.6777 32.7896 15.1055 32.7896 14.4609C32.7896 13.8164 32.9146 13.2461 33.1646 12.75C33.4185 12.2539 33.7798 11.8691 34.2485 11.5957C34.7212 11.3184 35.2739 11.1797 35.9067 11.1797C36.4497 11.1797 36.9302 11.2793 37.3481 11.4785C37.7661 11.6777 38.0942 11.9609 38.3325 12.3281C38.5747 12.6914 38.7075 13.1133 38.731 13.5938H37.1021C37.0474 13.2695 36.9185 13.0117 36.7153 12.8203C36.5122 12.6289 36.2505 12.5312 35.9302 12.5273C35.6528 12.5312 35.4087 12.6094 35.1978 12.7617C34.9907 12.9102 34.8306 13.1289 34.7173 13.418C34.604 13.7031 34.5474 14.043 34.5474 14.4375C34.5474 14.8438 34.604 15.1914 34.7173 15.4805C34.8306 15.7695 34.9907 15.9902 35.1978 16.1426C35.4048 16.2949 35.6489 16.3711 35.9302 16.3711C36.2388 16.3711 36.4966 16.2793 36.7036 16.0957C36.9146 15.9082 37.0474 15.6484 37.1021 15.3164H38.731C38.7075 15.7969 38.5767 16.2207 38.3384 16.5879C38.104 16.9551 37.7778 17.2422 37.3599 17.4492C36.9458 17.6523 36.4614 17.7539 35.9067 17.7539ZM39.8091 9.14062H41.5435V13.6992H41.6372L43.6997 11.2617H45.6919L43.3188 14.0156L45.8208 17.625H43.7817L42.0298 15.0352L41.5435 15.5859V17.625H39.8091V9.14062Z" fill="#3F3F41"/>
<g clip-path="url(#clip0_2268_919)">
<g filter="url(#filter0_d_2268_919)">
<path d="M31.6704 36.2754C21.5117 36.2754 13.2954 44.4916 13.2954 54.6504C13.2954 68.4316 31.6704 88.7754 31.6704 88.7754C31.6704 88.7754 50.0454 68.4316 50.0454 54.6504C50.0454 44.4916 41.8292 36.2754 31.6704 36.2754ZM31.6704 61.2129C28.0479 61.2129 25.1079 58.2729 25.1079 54.6504C25.1079 51.0279 28.0479 48.0879 31.6704 48.0879C35.2929 48.0879 38.2329 51.0279 38.2329 54.6504C38.2329 58.2729 35.2929 61.2129 31.6704 61.2129Z" fill="#81CFFF"/>
</g>
</g>
<defs>
<filter id="filter0_d_2268_919" x="11.2954" y="36.2754" width="44.75" height="60.5" filterUnits="userSpaceOnUse" color-interpolation-filters="sRGB">
<feFlood flood-opacity="0" result="BackgroundImageFix"/>
<feColorMatrix in="SourceAlpha" type="matrix" values="0 0 0 0 0 0 0 0 0 0 0 0 0 0 0 0 0 0 127 0" result="hardAlpha"/>
<feOffset dx="2" dy="4"/>
<feGaussianBlur stdDeviation="2"/>
<feComposite in2="hardAlpha" operator="out"/>
<feColorMatrix type="matrix" values="0 0 0 0 0 0 0 0 0 0 0 0 0 0 0 0 0 0 0.25 0"/>
<feBlend mode="normal" in2="BackgroundImageFix" result="effect1_dropShadow_2268_919"/>
<feBlend mode="normal" in="SourceGraphic" in2="effect1_dropShadow_2268_919" result="shape"/>
</filter>
<clipPath id="clip0_2268_919">
<rect width="63" height="63" fill="white" transform="translate(0.17041 31.0254)"/>
</clipPath>
</defs>
</svg>
