<svg width="64" height="95" viewBox="0 0 64 95" fill="none" xmlns="http://www.w3.org/2000/svg">
<path d="M9.0752 0C4.10463 0 0.0751953 4.02944 0.0751953 9V18C0.0751953 22.9706 4.10463 27 9.07519 27H12.4502L18.5752 34V27H54.0752C59.0458 27 63.0752 22.9706 63.0752 18V9C63.0752 4.02944 59.0458 0 54.0752 0H9.0752Z" fill="#53B5FF" fill-opacity="0.8"/>
<path d="M23.8115 12.0938C23.7412 11.6289 23.54 11.2617 23.208 10.9922C22.876 10.7227 22.46 10.5859 21.96 10.582C21.5186 10.5859 21.1318 10.6973 20.7998 10.916C20.4717 11.1348 20.2178 11.4551 20.0381 11.877C19.8584 12.2949 19.7686 12.7969 19.7686 13.3828C19.7686 13.9805 19.8584 14.4883 20.0381 14.9062C20.2217 15.3242 20.4756 15.6406 20.7998 15.8555C21.1279 16.0703 21.5107 16.1797 21.9482 16.1836C22.4365 16.1797 22.8486 16.0508 23.1846 15.7969C23.5205 15.5391 23.7295 15.1836 23.8115 14.7305L25.5928 14.7422C25.5264 15.2773 25.3369 15.7734 25.0244 16.2305C24.7119 16.6875 24.29 17.0547 23.7588 17.332C23.2275 17.6055 22.6162 17.7422 21.9248 17.7422C21.1631 17.7422 20.4834 17.5703 19.8857 17.2266C19.292 16.8789 18.8252 16.377 18.4854 15.7207C18.1455 15.0605 17.9756 14.2812 17.9756 13.3828C17.9756 12.4805 18.1455 11.7012 18.4854 11.0449C18.8291 10.3887 19.2998 9.88867 19.8975 9.54492C20.4951 9.19727 21.1709 9.02344 21.9248 9.02344C22.5771 9.02344 23.167 9.14453 23.6943 9.38672C24.2217 9.62891 24.6494 9.98047 24.9775 10.4414C25.3096 10.9023 25.5146 11.4531 25.5928 12.0938H23.8115ZM28.5225 17.625H26.7881V9.14062H28.5225V17.625ZM29.8701 11.2617H31.6045V17.625H29.8701V11.2617ZM30.7373 10.4297C30.5654 10.4297 30.4072 10.3906 30.2627 10.3125C30.1182 10.2305 30.0029 10.123 29.917 9.99023C29.8311 9.85352 29.7881 9.70703 29.7881 9.55078C29.7881 9.39062 29.8311 9.24219 29.917 9.10547C30.0029 8.96875 30.1182 8.86133 30.2627 8.7832C30.4072 8.70117 30.5654 8.66016 30.7373 8.66016C30.9053 8.66016 31.0615 8.70117 31.2061 8.7832C31.3506 8.86133 31.4639 8.96875 31.5459 9.10547C31.6318 9.24219 31.6748 9.39062 31.6748 9.55078C31.6748 9.70703 31.6318 9.85352 31.5459 9.99023C31.4639 10.123 31.3506 10.2305 31.2061 10.3125C31.0615 10.3906 30.9053 10.4297 30.7373 10.4297ZM35.8115 17.7539C35.1709 17.7539 34.6143 17.6152 34.1416 17.3379C33.6729 17.0605 33.3135 16.6738 33.0635 16.1777C32.8174 15.6777 32.6943 15.1055 32.6943 14.4609C32.6943 13.8164 32.8193 13.2461 33.0693 12.75C33.3232 12.2539 33.6846 11.8691 34.1533 11.5957C34.626 11.3184 35.1787 11.1797 35.8115 11.1797C36.3545 11.1797 36.835 11.2793 37.2529 11.4785C37.6709 11.6777 37.999 11.9609 38.2373 12.3281C38.4795 12.6914 38.6123 13.1133 38.6357 13.5938H37.0068C36.9521 13.2695 36.8232 13.0117 36.6201 12.8203C36.417 12.6289 36.1553 12.5312 35.835 12.5273C35.5576 12.5312 35.3135 12.6094 35.1025 12.7617C34.8955 12.9102 34.7354 13.1289 34.6221 13.418C34.5088 13.7031 34.4521 14.043 34.4521 14.4375C34.4521 14.8438 34.5088 15.1914 34.6221 15.4805C34.7354 15.7695 34.8955 15.9902 35.1025 16.1426C35.3096 16.2949 35.5537 16.3711 35.835 16.3711C36.1436 16.3711 36.4014 16.2793 36.6084 16.0957C36.8193 15.9082 36.9521 15.6484 37.0068 15.3164H38.6357C38.6123 15.7969 38.4814 16.2207 38.2432 16.5879C38.0088 16.9551 37.6826 17.2422 37.2646 17.4492C36.8506 17.6523 36.3662 17.7539 35.8115 17.7539ZM39.7139 9.14062H41.4482V13.6992H41.542L43.6045 11.2617H45.5967L43.2236 14.0156L45.7256 17.625H43.6865L41.9346 15.0352L41.4482 15.5859V17.625H39.7139V9.14062Z" fill="white"/>
<g clip-path="url(#clip0_2268_920)">
<g filter="url(#filter0_d_2268_920)">
<path d="M31.5 36.2754C21.3413 36.2754 13.125 44.4916 13.125 54.6504C13.125 68.4316 31.5 88.7754 31.5 88.7754C31.5 88.7754 49.875 68.4316 49.875 54.6504C49.875 44.4916 41.6587 36.2754 31.5 36.2754ZM31.5 61.2129C27.8775 61.2129 24.9375 58.2729 24.9375 54.6504C24.9375 51.0279 27.8775 48.0879 31.5 48.0879C35.1225 48.0879 38.0625 51.0279 38.0625 54.6504C38.0625 58.2729 35.1225 61.2129 31.5 61.2129Z" fill="#53B5FF"/>
</g>
</g>
<defs>
<filter id="filter0_d_2268_920" x="11.125" y="36.2754" width="44.75" height="60.5" filterUnits="userSpaceOnUse" color-interpolation-filters="sRGB">
<feFlood flood-opacity="0" result="BackgroundImageFix"/>
<feColorMatrix in="SourceAlpha" type="matrix" values="0 0 0 0 0 0 0 0 0 0 0 0 0 0 0 0 0 0 127 0" result="hardAlpha"/>
<feOffset dx="2" dy="4"/>
<feGaussianBlur stdDeviation="2"/>
<feComposite in2="hardAlpha" operator="out"/>
<feColorMatrix type="matrix" values="0 0 0 0 0 0 0 0 0 0 0 0 0 0 0 0 0 0 0.25 0"/>
<feBlend mode="normal" in2="BackgroundImageFix" result="effect1_dropShadow_2268_920"/>
<feBlend mode="normal" in="SourceGraphic" in2="effect1_dropShadow_2268_920" result="shape"/>
</filter>
<clipPath id="clip0_2268_920">
<rect width="63" height="63" fill="white" transform="translate(0 31.0254)"/>
</clipPath>
</defs>
</svg>
