<svg width="64" height="95" viewBox="0 0 64 95" fill="none" xmlns="http://www.w3.org/2000/svg">
<path d="M9.88477 0C4.9142 0 0.884766 4.02944 0.884766 9V18C0.884766 22.9706 4.9142 27 9.88476 27H13.2598L19.3848 34V27H54.8848C59.8553 27 63.8848 22.9706 63.8848 18V9C63.8848 4.02944 59.8553 0 54.8848 0H9.88477Z" fill="#528AB2" fill-opacity="0.8"/>
<path d="M24.6211 12.0938C24.5508 11.6289 24.3496 11.2617 24.0176 10.9922C23.6855 10.7227 23.2695 10.5859 22.7695 10.582C22.3281 10.5859 21.9414 10.6973 21.6094 10.916C21.2812 11.1348 21.0273 11.4551 20.8477 11.877C20.668 12.2949 20.5781 12.7969 20.5781 13.3828C20.5781 13.9805 20.668 14.4883 20.8477 14.9062C21.0312 15.3242 21.2852 15.6406 21.6094 15.8555C21.9375 16.0703 22.3203 16.1797 22.7578 16.1836C23.2461 16.1797 23.6582 16.0508 23.9941 15.7969C24.3301 15.5391 24.5391 15.1836 24.6211 14.7305L26.4023 14.7422C26.3359 15.2773 26.1465 15.7734 25.834 16.2305C25.5215 16.6875 25.0996 17.0547 24.5684 17.332C24.0371 17.6055 23.4258 17.7422 22.7344 17.7422C21.9727 17.7422 21.293 17.5703 20.6953 17.2266C20.1016 16.8789 19.6348 16.377 19.2949 15.7207C18.9551 15.0605 18.7852 14.2812 18.7852 13.3828C18.7852 12.4805 18.9551 11.7012 19.2949 11.0449C19.6387 10.3887 20.1094 9.88867 20.707 9.54492C21.3047 9.19727 21.9805 9.02344 22.7344 9.02344C23.3867 9.02344 23.9766 9.14453 24.5039 9.38672C25.0312 9.62891 25.459 9.98047 25.7871 10.4414C26.1191 10.9023 26.3242 11.4531 26.4023 12.0938H24.6211ZM29.332 17.625H27.5977V9.14062H29.332V17.625ZM30.6797 11.2617H32.4141V17.625H30.6797V11.2617ZM31.5469 10.4297C31.375 10.4297 31.2168 10.3906 31.0723 10.3125C30.9277 10.2305 30.8125 10.123 30.7266 9.99023C30.6406 9.85352 30.5977 9.70703 30.5977 9.55078C30.5977 9.39062 30.6406 9.24219 30.7266 9.10547C30.8125 8.96875 30.9277 8.86133 31.0723 8.7832C31.2168 8.70117 31.375 8.66016 31.5469 8.66016C31.7148 8.66016 31.8711 8.70117 32.0156 8.7832C32.1602 8.86133 32.2734 8.96875 32.3555 9.10547C32.4414 9.24219 32.4844 9.39062 32.4844 9.55078C32.4844 9.70703 32.4414 9.85352 32.3555 9.99023C32.2734 10.123 32.1602 10.2305 32.0156 10.3125C31.8711 10.3906 31.7148 10.4297 31.5469 10.4297ZM36.6211 17.7539C35.9805 17.7539 35.4238 17.6152 34.9512 17.3379C34.4824 17.0605 34.123 16.6738 33.873 16.1777C33.627 15.6777 33.5039 15.1055 33.5039 14.4609C33.5039 13.8164 33.6289 13.2461 33.8789 12.75C34.1328 12.2539 34.4941 11.8691 34.9629 11.5957C35.4355 11.3184 35.9883 11.1797 36.6211 11.1797C37.1641 11.1797 37.6445 11.2793 38.0625 11.4785C38.4805 11.6777 38.8086 11.9609 39.0469 12.3281C39.2891 12.6914 39.4219 13.1133 39.4453 13.5938H37.8164C37.7617 13.2695 37.6328 13.0117 37.4297 12.8203C37.2266 12.6289 36.9648 12.5312 36.6445 12.5273C36.3672 12.5312 36.123 12.6094 35.9121 12.7617C35.7051 12.9102 35.5449 13.1289 35.4316 13.418C35.3184 13.7031 35.2617 14.043 35.2617 14.4375C35.2617 14.8438 35.3184 15.1914 35.4316 15.4805C35.5449 15.7695 35.7051 15.9902 35.9121 16.1426C36.1191 16.2949 36.3633 16.3711 36.6445 16.3711C36.9531 16.3711 37.2109 16.2793 37.418 16.0957C37.6289 15.9082 37.7617 15.6484 37.8164 15.3164H39.4453C39.4219 15.7969 39.291 16.2207 39.0527 16.5879C38.8184 16.9551 38.4922 17.2422 38.0742 17.4492C37.6602 17.6523 37.1758 17.7539 36.6211 17.7539ZM40.5234 9.14062H42.2578V13.6992H42.3516L44.4141 11.2617H46.4062L44.0332 14.0156L46.5352 17.625H44.4961L42.7441 15.0352L42.2578 15.5859V17.625H40.5234V9.14062Z" fill="white"/>
<g clip-path="url(#clip0_2268_922)">
<g filter="url(#filter0_d_2268_922)">
<path d="M32.5 36.2754C22.3413 36.2754 14.125 44.4916 14.125 54.6504C14.125 68.4316 32.5 88.7754 32.5 88.7754C32.5 88.7754 50.875 68.4316 50.875 54.6504C50.875 44.4916 42.6587 36.2754 32.5 36.2754ZM32.5 61.2129C28.8775 61.2129 25.9375 58.2729 25.9375 54.6504C25.9375 51.0279 28.8775 48.0879 32.5 48.0879C36.1225 48.0879 39.0625 51.0279 39.0625 54.6504C39.0625 58.2729 36.1225 61.2129 32.5 61.2129Z" fill="#528AB2"/>
</g>
</g>
<defs>
<filter id="filter0_d_2268_922" x="12.125" y="36.2754" width="44.75" height="60.5" filterUnits="userSpaceOnUse" color-interpolation-filters="sRGB">
<feFlood flood-opacity="0" result="BackgroundImageFix"/>
<feColorMatrix in="SourceAlpha" type="matrix" values="0 0 0 0 0 0 0 0 0 0 0 0 0 0 0 0 0 0 127 0" result="hardAlpha"/>
<feOffset dx="2" dy="4"/>
<feGaussianBlur stdDeviation="2"/>
<feComposite in2="hardAlpha" operator="out"/>
<feColorMatrix type="matrix" values="0 0 0 0 0 0 0 0 0 0 0 0 0 0 0 0 0 0 0.25 0"/>
<feBlend mode="normal" in2="BackgroundImageFix" result="effect1_dropShadow_2268_922"/>
<feBlend mode="normal" in="SourceGraphic" in2="effect1_dropShadow_2268_922" result="shape"/>
</filter>
<clipPath id="clip0_2268_922">
<rect width="63" height="63" fill="white" transform="translate(1 31.0254)"/>
</clipPath>
</defs>
</svg>
